<?xml version='1.0' encoding='utf-8'?>
<!-- Created by Zoltan Dul in 2026 - free to use with MIT license. Part of React Odontogram Modul - https://github.com/ZoliQua/React-Odontogram-Modul - SVG Version: 2.1.4 -->
<svg xmlns="http://www.w3.org/2000/svg" id="incisor_x5F_tooth" version="1.1" viewBox="0 0 39.2 62.7">
  <style>
    [data-active="0"] { display: none; }
  </style>
  <defs>
    <linearGradient id="linear-gradient-11-0" x1="18.7" y1="5079.7" x2="22" y2="5079.7" gradientTransform="translate(0 -5060.6929)" gradientUnits="userSpaceOnUse" data-active="1">
      <stop offset=".2" stop-color="#ff422a" stop-opacity=".5" data-active="1" />
      <stop offset="1" stop-color="#000" data-active="1" />
      </linearGradient>
    <linearGradient id="linear-gradient-11-1" x1="-20908.9" y1="-5740.3" x2="-20905.6" y2="-5740.3" gradientTransform="translate(-20696.6296 -6377.2536) rotate(-178.2)" gradientUnits="userSpaceOnUse" data-active="1">
      <stop offset=".2" stop-color="#ff422a" stop-opacity=".5" data-active="1" />
      <stop offset="1" stop-color="#000" data-active="1" />
      </linearGradient>
    <linearGradient id="linear-gradient-11-2" x1="-162.9" y1="5403.3" x2="-159.6" y2="5403.3" gradientTransform="translate(11.3134 -5391.342) rotate(-1.8)" gradientUnits="userSpaceOnUse" data-active="1">
      <stop offset=".2" stop-color="#ff422a" stop-opacity=".5" data-active="1" />
      <stop offset="1" stop-color="#000" data-active="1" />
      </linearGradient>
    <linearGradient id="linear-gradient-11-3" x1="-20580.6" y1="-6356.9" x2="-20577.3" y2="-6356.9" gradientTransform="translate(-20728.8758 -5767.3209) rotate(178.4)" gradientUnits="userSpaceOnUse" data-active="1">
      <stop offset=".2" stop-color="#ff422a" stop-opacity=".5" data-active="1" />
      <stop offset="1" stop-color="#000" data-active="1" />
      </linearGradient>
    <linearGradient id="linear-gradient-11-4" x1="-2023.6" y1="7828.4" x2="-2020.3" y2="7828.4" gradientTransform="translate(-292.4941 -8069.216) rotate(-16.7)" gradientUnits="userSpaceOnUse" data-active="1">
      <stop offset=".2" stop-color="#ff422a" stop-opacity=".5" data-active="1" />
      <stop offset="1" stop-color="#000" data-active="1" />
      </linearGradient>
    <linearGradient id="linear-gradient-11-5" x1="-21052.1" y1="197.1" x2="-21048.8" y2="197.1" gradientTransform="translate(-19806.4913 -11958.2465) rotate(-148.4) scale(1.1 1)" gradientUnits="userSpaceOnUse" data-active="1">
      <stop offset=".2" stop-color="#ff422a" stop-opacity=".5" data-active="1" />
      <stop offset="1" stop-color="#000" data-active="1" />
      </linearGradient>
    <linearGradient id="linear-gradient-11-6" x1="-21050.5" y1="199.5" x2="-21047.1" y2="199.5" gradientTransform="translate(-19806.4913 -11958.2465) rotate(-148.4) scale(1.1 1)" gradientUnits="userSpaceOnUse" data-active="1">
      <stop offset=".2" stop-color="#ff422a" stop-opacity=".5" data-active="1" />
      <stop offset="1" stop-color="#000" data-active="1" />
      </linearGradient>
    <linearGradient id="linear-gradient-11-7" x1="-7795.7" y1="10948.9" x2="-7792.3" y2="10948.9" gradientTransform="translate(-2354.6922 -13697.4876) rotate(-47.9) scale(1.1 1)" gradientUnits="userSpaceOnUse" data-active="1">
      <stop offset=".2" stop-color="#ff422a" stop-opacity=".5" data-active="1" />
      <stop offset="1" stop-color="#000" data-active="1" />
      </linearGradient>
    <linearGradient id="linear-gradient-11-8" x1="18.1" y1="5080.7" x2="22.5" y2="5080.7" gradientTransform="translate(0 -5060.6929)" gradientUnits="userSpaceOnUse" data-active="1">
      <stop offset=".2" stop-color="#ff422a" stop-opacity=".5" data-active="1" />
      <stop offset="1" stop-color="#000" data-active="1" />
      </linearGradient>
    <linearGradient id="linear-gradient-11-9" x1="-20909.1" y1="-5741.1" x2="-20904.7" y2="-5741.1" gradientTransform="translate(-20696.6296 -6377.2536) rotate(-178.2)" gradientUnits="userSpaceOnUse" data-active="1">
      <stop offset=".2" stop-color="#ff422a" stop-opacity=".5" data-active="1" />
      <stop offset="1" stop-color="#000" data-active="1" />
      </linearGradient>
    <linearGradient id="linear-gradient-11-10" x1="-163.6" y1="5404" x2="-159.2" y2="5404" gradientTransform="translate(11.3134 -5391.342) rotate(-1.8)" gradientUnits="userSpaceOnUse" data-active="1">
      <stop offset=".2" stop-color="#ff422a" stop-opacity=".5" data-active="1" />
      <stop offset="1" stop-color="#000" data-active="1" />
      </linearGradient>
    <linearGradient id="linear-gradient-11-11" x1="-20580.6" y1="-6357.5" x2="-20576.2" y2="-6357.5" gradientTransform="translate(-20728.8758 -5767.3209) rotate(178.4)" gradientUnits="userSpaceOnUse" data-active="1">
      <stop offset=".2" stop-color="#ff422a" stop-opacity=".5" data-active="1" />
      <stop offset="1" stop-color="#000" data-active="1" />
      </linearGradient>
    <linearGradient id="linear-gradient-11-12" x1="-2665.9" y1="8402.8" x2="-2661.5" y2="8402.8" gradientTransform="translate(-857.4265 -8762.1165) rotate(-23.3)" gradientUnits="userSpaceOnUse" data-active="1">
      <stop offset=".2" stop-color="#ff422a" stop-opacity=".5" data-active="1" />
      <stop offset=".7" stop-color="#9b0402" data-active="1" />
      <stop offset="1" stop-color="#6b0000" data-active="1" />
      </linearGradient>
    <linearGradient id="linear-gradient-11-13" x1="-21052.7" y1="193.4" x2="-21048.5" y2="193.4" gradientTransform="translate(-19806.4913 -11958.2465) rotate(-148.4) scale(1.1 1)" gradientUnits="userSpaceOnUse" data-active="1">
      <stop offset=".2" stop-color="#ff422a" stop-opacity=".5" data-active="1" />
      <stop offset="1" stop-color="#000" data-active="1" />
      </linearGradient>
    <linearGradient id="linear-gradient-11-14" x1="-21050.9" y1="197.4" x2="-21046.6" y2="197.4" gradientTransform="translate(-19806.4913 -11958.2465) rotate(-148.4) scale(1.1 1)" gradientUnits="userSpaceOnUse" data-active="1">
      <stop offset=".2" stop-color="#ff422a" stop-opacity=".5" data-active="1" />
      <stop offset="1" stop-color="#000" data-active="1" />
      </linearGradient>
    <linearGradient id="linear-gradient-11-15" x1="-7794.8" y1="10949" x2="-7790.8" y2="10949" gradientTransform="translate(-2354.6922 -13697.4876) rotate(-47.9) scale(1.1 1)" gradientUnits="userSpaceOnUse" data-active="1">
      <stop offset=".2" stop-color="red" stop-opacity=".5" data-active="1" />
      <stop offset="1" stop-color="#b40000" data-active="1" />
      </linearGradient>
    <linearGradient id="linear-gradient-11-16" x1="20" y1="3068.6" x2="20" y2="3078.3" gradientTransform="translate(0 -3032.6929)" gradientUnits="userSpaceOnUse" data-active="1">
      <stop offset=".2" stop-color="#cf0" stop-opacity=".5" data-active="1" />
      <stop offset="1" stop-color="#b4c500" data-active="1" />
      </linearGradient>
    <linearGradient id="linear-gradient-11-17" x1="19.8" y1="3064.8" x2="19.8" y2="3072.3" gradientTransform="translate(0 -3032.6929)" gradientUnits="userSpaceOnUse" data-active="1">
      <stop offset="0" stop-color="#c8c9c9" data-active="1" />
      <stop offset="1" stop-color="#828282" data-active="1" />
      </linearGradient>
    <radialGradient id="radial-gradient-11-0" cx="20.9" cy="3079.6" fx="20.9" fy="3079.6" r="11.5" gradientTransform="translate(-.4 -3032.6929)" gradientUnits="userSpaceOnUse" data-active="1">
      <stop offset="0" stop-color="#fff" data-active="1" />
      <stop offset="0" stop-color="#ececec" data-active="1" />
      <stop offset=".3" stop-color="#cfcfcf" data-active="1" />
      <stop offset=".6" stop-color="#bababa" data-active="1" />
      <stop offset=".8" stop-color="#aeaeae" data-active="1" />
      <stop offset="1" stop-color="#aaa" data-active="1" />
      </radialGradient>
    <radialGradient id="radial-gradient-11-1" cx="-789" cy="3080.7" fx="-789" fy="3080.7" r="10.2" gradientTransform="translate(1124.4504 -3032.6929) scale(1.4 1)" gradientUnits="userSpaceOnUse" data-active="1">
      <stop offset="0" stop-color="#fff" data-active="1" />
      <stop offset="0" stop-color="#fefefe" data-active="1" />
      <stop offset=".2" stop-color="#f8d6d4" data-active="1" />
      <stop offset=".3" stop-color="#f2b5b2" data-active="1" />
      <stop offset=".5" stop-color="#ee9b98" data-active="1" />
      <stop offset=".6" stop-color="#eb8985" data-active="1" />
      <stop offset=".8" stop-color="#e97e79" data-active="1" />
      <stop offset="1" stop-color="#e97b76" data-active="1" />
      </radialGradient>
    <linearGradient id="linear-gradient-11-18" x1="19.3" y1="3085.9" x2="19.3" y2="3076.2" gradientTransform="translate(0 -3032.6929)" gradientUnits="userSpaceOnUse" data-active="1">
      <stop offset="0" stop-color="#f9ae94" data-active="1" />
      <stop offset=".5" stop-color="#cd986a" data-active="1" />
      <stop offset="1" stop-color="#f9ae94" data-active="1" />
      </linearGradient>
    <radialGradient id="radial-gradient-11-2" cx="19.6" cy="1053.2" fx="19.6" fy="1053.2" r="11.5" gradientTransform="translate(0 -1004.6929)" gradientUnits="userSpaceOnUse" data-active="1">
      <stop offset="0" stop-color="#fff" data-active="1" />
      <stop offset="0" stop-color="#fdf3ea" data-active="1" />
      <stop offset=".2" stop-color="#f9d8b9" data-active="1" />
      <stop offset=".3" stop-color="#f5c18f" data-active="1" />
      <stop offset=".4" stop-color="#f2ae6c" data-active="1" />
      <stop offset=".6" stop-color="#f09f52" data-active="1" />
      <stop offset=".7" stop-color="#ef953f" data-active="1" />
      <stop offset=".9" stop-color="#ee8f33" data-active="1" />
      <stop offset="1" stop-color="#ee8d30" data-active="1" />
      </radialGradient>
    </defs>
  <g id="base" data-active="1">
    <path id="bone-base" d="M36.5,16.8l-2.5,1.2c-2.3,1.4,0,8.6-1.8,10.8,0,4.4-4.1,3.5-5.3,3.4-3.5-.2-11.8,0-15.8,0s-4.5-2.9-4.6-2.8c-1.9,0-2-11.4-2-11.4l-1.3-2c-.2-.4-2.1-.9-2.1-1.4V.6h35.5v16.2h-.1Z" data-active="1" style="fill: #fdecc5;" />
    <path id="gum-base" d="M37.2,17.4c-1,1-2.5,1.7-3,3-1,3.5-.2,7.6-1.5,11-1.9,5.1-5.6.4-9.2.5-3.6,0-7.6-.2-11,.5-2.1.6-4.3,2.6-6.5,1.2-5.3-3.7-1.7-12.6-3.7-17.6-.2-.9-1.9-2.3-1-2.8,1-.5,3.8,1,4.2,2.2,1.9,3.7-1.8,13.9,3.2,15.2,2.4.3,7.7-.6,12.2-.9,3.4-.6,8.7.9,10.6-2.3,1.9-3.2-.1-8.1,2.3-11.1s5.1-1.2,3.5.9h0v.2h-.1Z" data-active="1" style="fill: #f79f9a;" />
    </g>
  <g id="mods" data-active="1">
    <path id="parodontal" d="M10.4,27.4c-.4,3-.5,6.1,3,7,4.3.9,8.9,2.1,12.9-.3,1.9-1.2,3.5-2.5,3.6-4.6,0-2.8-.6-6-.9-8.6-.5-4.4-1.3-9.9-5.6-12.3-3.5-1.3-8.7-1-10.3,2.6-2.2,4.9-1.9,10.5-2.7,16,0,0,0,.2,0,.2Z" data-active="1" style="display: none; fill: #ffa46a;" />
    <g id="inflammation" data-active="1">
      <g id="cysta" data-active="1" style="display: none;">
        <path id="cysta-outside" d="M9.2,2.8c-2.7,2.4-1.6,8.8,1.6,10.6s4.9,1.8,7.1,2c4.2.4,11.6-.5,13.1-6.4C32.6,1.8,24.4,0,18.8.3c-3,0-7.2.5-9.5,2.6Z" data-active="1" style="fill: #ffa46a;" />
        <path id="cysta-inside" d="M10.7,3.3c-2.3,2.2-1.3,7.9,1.3,9.4s4.3,1.5,6,1.8c3.6.3,9.9-.4,11.2-5.6C30.7,2.2,23.8.7,18.9.9c-2.5,0-6.1.4-8.1,2.3h-.1Z" data-active="1" style="fill: #feffd5;" />
        </g>
      <g id="granuloma" data-active="1" style="display: none;">
        <path id="granuloma-outside" d="M11.7,2.2c-2.1,2-1.3,7.4,1.3,8.9s3.8,1.5,5.5,1.7c3.3.3,9-.4,10.2-5.3C29.8,1.3,23.5-.2,19.1,0c-2.3,0-5.6.4-7.4,2.2Z" data-active="1" style="fill: #ffa46a;" />
        <path id="granuloma-inside" d="M12.8,2.9c-1.8,1.7-1,6,1,7.2s3.3,1.2,4.6,1.3c2.8.3,7.5-.3,8.5-4.3,1.1-5.1-4.2-6.3-7.8-6.1-1.9,0-4.7.3-6.2,1.8h0Z" data-active="1" style="fill: #feffd5;" />
        </g>
      <g id="abscess" data-active="1" style="display: none;">
        <path id="abscess-inside" d="M11.2,3.7c-.9.7-2.5-1.6-5.8,1.2s4.4,2,4.8,4.5-2.3,2.8-1.7,3.2,6.6-1.8,7.1-1.7c1.1.4,2,.4,2.9.5,1.3.1,3,0,4.5-.4s2.6.3,3.3-.4,7.5-.6,7.3-1.4-4.3-2.9-4.2-3.4c.2-.9,3.6-3.3,3.4-3.9s-6.4,1.7-7,1.2-.3-1.7-.7-1.9c-.7-.3-1.8,0-2.6-.2s-2.3-.4-3.3-.4c-1.2,0-2.5.2-3.9.6s-1.8.9-2.4,1.5l-1.4-1-.3,1.9Z" data-active="1" style="fill: #feffd5; stroke: #ffa46a; stroke-miterlimit: 10;" />
        </g>
      </g>
    <g id="mobility" data-active="1" style="display: none;">
      <path id="tooth-mobility-2" d="M24.8,12.6l3.3-1.7c-1,1.8-1.9,3.6-2.9,5.4l3.6-1.8c-1.3,2.1-2.5,4.3-3.7,6.5,1.4-.4,2.8-.9,4.3-1.3-1.1,1.6-2.3,3.2-3.4,4.8.9-.3,1.8-.5,2.7-.7-.7,1.3-1.4,2.5-2.2,3.7,1.1-.6,2.3-1,3.5-1.3-.9,1.2-1.7,2.5-2.5,3.8.8-.3,1.6-.5,2.4-.6-.9,1-1.7,2-2.6,3" data-active="1" style="fill: none; stroke: #f99; stroke-miterlimit: 10; stroke-width: .8px;" />
      <path id="tooth-mobility-1" d="M12.4,12.6c1.2-.3,2.4,0,3.4.8-1.5,1.2-3,2.3-4.5,3.3,1.5-.1,2.9,0,4.4.5-1.4,1.1-2.8,2.3-4.2,3.6,1.1,0,2.2.3,3.2.7-1,.9-2,1.7-2.9,2.6.8,0,1.7.3,2.5.7-1,1.2-1.9,2.5-2.7,3.9,1-.2,2-.4,3-.6-1.5,1.1-2.8,2.5-3.9,4.3.8.2,1.7.2,2.5,0" data-active="1" style="fill: none; stroke: #f99; stroke-miterlimit: 10; stroke-width: .8px;" />
      </g>
    </g>
  <g id="tooth-variants" data-active="1">
    <path id="no-tooth-after-extraction" d="M18.7,32c1.8-.6,7.6,1.2,7.9-.7-1-8.6-.6-33.1-8.9-29.7s-2.3,18.8-3.8,28.1c-.1,1.7,2,2.9,4.8,2.2h0Z" data-active="1" style="display: none; fill: #fff; stroke: #f99; stroke-miterlimit: 10; stroke-width: .2px;" />
    <path id="tooth-under-gum" d="M16.4,1c-.8,2.2-.5,4.5-.4,6.8.1,2.1.1,4.1.2,6.2,0,1.5-.2,2.9-.7,4.2-.5,1.7-.9,3.9-.7,5.7.2,2.7,1.6,4.9,4.3,4.5,2.7-.4,7.5-.5,7.1-2.9s-.8-5.3-2-7.5-.2-.3-.3-.5c-.6-1-1.3-2.5-1.3-3.6-.2-2.9-1.6-6.1-2.6-8.9-.4-1.6-1.1-3-2.6-3.9" data-active="1" style="display: none; fill: #ebebeb; stroke: #c8c9c9; stroke-miterlimit: 10;" />
    <path id="tooth-broken-inicisal" d="M17.5.8c-2.4,4.5-2.5,9.8-2.8,14.8-.3,4.6-.9,9-1.3,13.6-.3,3.2-1.3,6.2-2.8,9-1.6,3.5-3.1,8.2-3.3,12.3-.3,5,1.3,9.4,5.4,10.7s0-6,.9-6.4c3.4-1.4,5.6,1.5,6.5,1.5s4.1-1.4,5.3-1.7c4.2-1,.8,6.9,2.5,6.5s3.9-1.7,3.9-3.8c0-5.4-.3-11.8-2.3-17s-.3-.8-.5-1.2c-1.1-2.4-2.1-5.9-1.9-8.3.5-6.5-1.8-13.8-3-20.3-.4-3.6-1.6-7-4.6-9.3" data-active="1" style="display: none; fill: #ebebeb; stroke: #c8c9c9; stroke-miterlimit: 10;" />
    <path id="tooth-broken-mesial-distal-inicisal" d="M17.5.8c-2.4,4.5-2.5,9.8-2.8,14.8-.3,4.6-.9,9-1.3,13.6-.3,3.2-1.3,6.2-2.8,9-.7,1.5,2.3,4.5,1.8,6.3s-1.3,1.7-1.2,2.6c0,1.4,1.3,2.9,1.2,4.3,0,1-4.1,1.3-4,2.3.3,2.7.9,4.9,2.3,6.3s2.9-1.7,5-1.7,1.8-3.5,3.1-3.5,3.8,2.9,5,2.8,3,3.9,4.5,3.5c3.6-1,3-1.6,3-3.6s-3.1-2.7-3.2-4.6,1.4-2.2,1.4-3.2-1.5-2.1-1.7-3.1c-.3-1.9,2.4-4.5,1.8-6.2-2-5.2-.3-.8-.5-1.2-1.1-2.4-2.1-5.9-1.9-8.3.5-6.5-1.8-13.8-3-20.3-.4-3.6-1.6-7-4.6-9.3" data-active="1" style="display: none; fill: #ebebeb; stroke: #c8c9c9; stroke-miterlimit: 10;" />
    <path id="tooth-broken-mesial-distal" d="M17.5.8c-2.4,4.5-2.5,9.8-2.8,14.8-.3,4.6-.9,9-1.3,13.6-.3,3.2-1.3,6.2-2.8,9-.7,1.5,2.3,4.5,1.8,6.3s-1.3,1.7-1.2,2.6c0,1.4,1.3,2.9,1.2,4.3,0,1-4.1,1.3-4,2.3.5,4.7,2,8,7.1,8s9.3.4,12.9-.6,3-1.6,3-3.6-3.1-2.7-3.2-4.6,1.4-2.2,1.4-3.2-1.5-2.1-1.7-3.1c-.3-1.9,2.4-4.5,1.8-6.2-2-5.2-.3-.8-.5-1.2-1.1-2.4-2.1-5.9-1.9-8.3.5-6.5-1.8-13.8-3-20.3-.4-3.6-1.6-7-4.6-9.3" data-active="1" style="display: none; fill: #ebebeb; stroke: #c8c9c9; stroke-miterlimit: 10;" />
    <path id="tooth-broken-mesial-inicisal" d="M17.5.8c-2.4,4.5-2.5,9.8-2.8,14.8-.3,4.6-.9,9-1.3,13.6-.3,3.2-1.3,6.2-2.8,9-1.6,3.5-3.1,8.2-3.3,12.3-.3,6,2,11.1,8.1,11.1h6.7c2.5,0-1-6.4.5-6.7,2.4-.6,3.8-.5,3.8-2.6s5.5.7,5.4-1c-.2-4.2-.8-7.3-2.2-11s-.3-.8-.5-1.2c-1.1-2.4-2.1-5.9-1.9-8.3.5-6.5-1.8-13.8-3-20.3-.4-3.6-1.6-7-4.6-9.3" data-active="1" style="display: none; fill: #ebebeb; stroke: #c8c9c9; stroke-miterlimit: 10;" />
    <path id="tooth-broken-mesial" d="M17.5.8c-2.4,4.5-2.5,9.8-2.8,14.8-.3,4.6-.9,9-1.3,13.6-.3,3.2-1.3,6.2-2.8,9-1.6,3.5-3.1,8.2-3.3,12.3-.3,6,2,11.1,8.1,11.1s9.3.4,12.9-.6,3-1.6,3-3.6-3.1-2.7-3.2-4.6,1.4-2.2,1.4-3.2-1.5-2.1-1.7-3.1c-.3-1.9,2.4-4.5,1.8-6.2-2-5.2-.3-.8-.5-1.2-1.1-2.4-2.1-5.9-1.9-8.3.5-6.5-1.8-13.8-3-20.3-.4-3.6-1.6-7-4.6-9.3" data-active="1" style="display: none; fill: #ebebeb; stroke: #c8c9c9; stroke-miterlimit: 10;" />
    <path id="tooth-broken-distal-inicisal" d="M17.5.8c-2.4,4.5-2.5,9.8-2.8,14.8-.3,4.6-.9,9-1.3,13.6-.3,3.2-1.3,6.2-2.8,9-1.3,2.8-2.5,6.4-3,9.8s.7,1.3.7,2.1c0,1.3,4,.2,4.2,1.3s3.3,0,3.8.9c1.2,2.5-2.8,9.3.6,9.3,6.1,0,15.1,1.1,15.1-4.3s-.3-11.8-2.3-17-.3-.8-.5-1.2c-1.1-2.4-2.1-5.9-1.9-8.3.5-6.5-1.8-13.8-3-20.3-.4-3.6-1.6-7-4.6-9.3" data-active="1" style="display: none; fill: #ebebeb; stroke: #c8c9c9; stroke-miterlimit: 10;" />
    <path id="tooth-broken-distal" d="M17.5.8c-2.4,4.5-2.5,9.8-2.8,14.8-.3,4.6-.9,9-1.3,13.6-.3,3.2-1.3,6.2-2.8,9-.8,1.7.6,3.9,0,5.9s-.9,4.3-1.1,5.3-1,1.4-1.1,2.6c0,1.8,2.8,0,3.2,1.5.9,3.6-.6,8.1,3.7,8.1,6.1,0,16.5,1.1,16.5-4.3s-.3-11.8-2.3-17-.3-.8-.5-1.2c-1.1-2.4-2.1-5.9-1.9-8.3.5-6.5-1.8-13.8-3-20.3-.4-3.6-1.6-7-4.6-9.3" data-active="1" style="display: none; fill: #ebebeb; stroke: #c8c9c9; stroke-miterlimit: 10;" />
    <path id="tooth-crownprep" d="M17.5.8c-2.4,4.5-2.5,9.8-2.8,14.8-.3,4.6-.9,9-1.3,13.6-.3,3.2-1.3,6.2-2.8,9-.4,1-1.6,4.3-2,5.4s4.8,0,5.1.6c.4,1-.2,3.2-.2,4.5.6.9,1.4,1.3,6,1.3s6.8.6,7.3-1.4-.2-2.7,0-3.8,4.2.4,4-.5c-.3-1.3-.7-2.7-1.2-3.9-2-5.2-.3-.8-.5-1.2-1.1-2.4-2.1-5.9-1.9-8.3.5-6.5-1.8-13.8-3-20.3-.4-3.6-1.6-7-4.6-9.3" data-active="1" style="display: none; fill: #ebebeb; stroke: #c8c9c9; stroke-miterlimit: 10;" />
    <path id="tooth-radix" d="M17.5.8c-2.4,4.5-2.5,9.8-2.8,14.8-.3,4.6-.9,9-1.3,13.6-.3,3.2-1.3,6.2-2.8,9-.4,1-1.6,4.3-2,5.4s5.9-.3,11.8-.4,10.3.7,10.2.3c-.3-1.3-.5-1.9-1-3.1-2-5.2-.3-.8-.5-1.2-1.1-2.4-2.1-5.9-1.9-8.3.5-6.5-1.8-13.8-3-20.3-.4-3.6-1.6-7-4.6-9.3" data-active="1" style="display: none; fill: #ebebeb; stroke: #c8c9c9; stroke-miterlimit: 10;" />
    </g>
  <g id="tooth" data-active="1">
    <path id="tooth-base" d="M18.3,1.1c-2.4,4.5-3.3,9.5-3.6,14.5-.3,4.6-.9,9-1.3,13.6-.3,3.2-1.3,6.2-2.8,9-1.6,3.5-3.1,8.2-3.3,12.3-.3,6,2,11.1,8.1,11.1s16.5,1.1,16.5-4.3-.3-11.8-2.3-17-.3-.8-.5-1.2c-1.1-2.4-2.1-5.9-1.9-8.3.5-6.5-1.8-13.8-3-20.3-.4-3.6-1.2-7.1-4.2-9.4" data-active="1" style="fill: #ebebeb; stroke: #c8c9c9; stroke-miterlimit: 10;" />
    <path id="tooth-base-beauty" d="M15.5,57.5c2-.7,3.5-1,5.1-.6,2.5.3,4.1,1.5,5.5,3-1.5-.5-3.1-.6-4.9-.4-2.1.3-3.6.6-5.2,0-.6-.3-.9-1.2-.5-1.9h0Z" data-active="1" style="fill: #fefefe;" />
    <g id="tooth-inflam-pulp" data-active="1" style="display: none;">
      <path id="tooth-inflam-pulp-base" d="M20.6,1.4c.5,0,.7,3,.3,5-.3,2.3-.1,8.6.1,11.1.4,5.8.1,5.2.3,11.3s1.7,8.7,1.2,10.6c-.6,2.9-4.9,3.3-5.1.4s1.1-7.8,1.5-12.5-.2-9.7,0-10.9c.4-3.3.1-7.5-.1-10.4s-.9-3.5,0-4.3c0,0-.6-1,1.9-.4h0Z" data-active="1" style="fill: #ff422a;" />
      <path id="pulp-inflam-path-8" d="M22,19h0v-.2c-.2-.2-.5-.3-.7-.3-.6,0-1.3,0-1.9.1s-1,.4-.3.7,2.1.3,2.9-.3Z" data-active="1" style="fill: url(#linear-gradient-11-0);" />
      <path id="pulp-inflam-path-7" d="M17.6,16.8h0v.2c.2.2.4.3.7.3.6.1,1.3,0,1.9,0s1-.3.3-.7-2.1-.4-2.9.2Z" data-active="1" style="fill: url(#linear-gradient-11-1);" />
      <path id="pulp-inflam-path-6" d="M22,14.3h0v-.2c-.2-.2-.5-.3-.7-.3-.6,0-1.3,0-1.9.2s-1,.4-.2.7,2.1.2,2.9-.4c0,0-.1,0,0,0h0Z" data-active="1" style="fill: url(#linear-gradient-11-2);" />
      <path id="pulp-inflam-path-5" d="M17.4,12.5h0v.2c.2.2.5.3.7.3.6,0,1.3,0,1.9-.2s1-.4.2-.7-2.1-.2-2.9.3h.1,0Z" data-active="1" style="fill: url(#linear-gradient-11-3);" />
      <path id="pulp-inflam-path-4" d="M21.9,9.6h0s0-.1-.1-.2c-.2-.1-.5-.1-.8-.1-.6,0-1.2.4-1.8.7s-.8.6,0,.7,2.1-.3,2.7-1.1Z" data-active="1" style="fill: url(#linear-gradient-11-4);" />
      <path id="pulp-inflam-path-3" d="M17.8,6.4h0v.2c0,.3.3.5.5.7.5.4,1.2.7,1.8.9s1.1.2.6-.5-1.7-1.4-2.8-1.4h-.1Z" data-active="1" style="fill: url(#linear-gradient-11-5);" />
      <path id="pulp-inflam-path-2" d="M17.6,3.4h0v.2c0,.3.3.5.5.7.5.4,1.2.7,1.8.9s1.1.2.6-.5-1.7-1.4-2.8-1.4h-.1Z" data-active="1" style="fill: url(#linear-gradient-11-6);" />
      <path id="pulp-inflam-path-1" d="M21.9,3.5h-.2c-.3,0-.5.2-.8.3-.5.4-.9,1-1.3,1.6s-.4,1,.3.7,1.7-1.4,1.9-2.5h.1Z" data-active="1" style="fill: url(#linear-gradient-11-7);" />
      </g>
    <path id="tooth-healthy-pulp" d="M20.6,1.4c.5,0,.7,3,.3,5-.3,2.3-.1,8.6.1,11.1.4,5.8.1,5.2.3,11.3s1.7,8.7,1.2,10.6c-.6,2.9-4.9,3.3-5.1.4s1.1-7.8,1.5-12.5-.2-9.7,0-10.9c.4-3.3.1-7.5-.1-10.4s-.9-3.5,0-4.3c0,0-.6-1,1.9-.4h0Z" data-active="1" style="fill: #fcc5bc;" />
    <path id="tooth-bruxism-wear" d="M13.5,58.3c.8,1.7,1.4,1,2.7.3.4-.2.8-.6,1.2-.2.9,1.7,1.2,1.3,2.7.5.8-.3,2.2-1.3,2.7,0,.4,1,.8.6,1.4,0,.5-.4,1.5-1.5,2-.8.3.3.6,1.5,1.2,1.3.5-.2,1.1-1.8,1.7-1.6.3.2.6.8,1,1.2.3.4.7.8.6,1.1-.5.8-1.9.9-2.8,1.2-4.5,1-9.3,1.1-13.9.6-1.6,0-5.9-.3-3-2.8.8-.7,1.9-1.1,2.3-.8,0,0,.2,0,.2,0Z" data-active="1" style="display: none; fill: #fff; stroke: #aaa; stroke-miterlimit: 10; stroke-width: .5px;" />
    <path id="tooth-bruxism-neck-wear" d="M23.1,45.3c-.4-1.7-.7-1-1.4-.3-.2.2-.4.6-.6.2-.4-1.7-.6-1.3-1.4-.5-.4.3-1.2,1.3-1.4,0-.2-1-.4-.6-.7,0-.3.4-.8,1.5-1.1.8-.1-.3-.3-1.5-.6-1.3s-.6,1.8-.9,1.6c-.1-.2-.3-.8-.5-1.2-.1-.4-.3-.8-.3-1.1.3-.8,1-.9,1.5-1.2,2.4-.9,4.8-1,7.2-.4.8,0,3,.4,1.5,2.8-.4.7-1,1.1-1.2.8h-.1s0-.2,0-.2Z" data-active="1" style="display: none; fill: #fff; stroke: #aaa; stroke-miterlimit: 10; stroke-width: .5px;" />
    </g>
  <g id="milktooth" data-active="1" style="display: none;">
    <path id="milktooth-base" d="M17.5.8c-2.4,4.5-2.5,9.8-2.8,14.8-.3,4.6-.9,9-1.3,13.6-.3,3.2-1.3,6.2-2.8,9-1.6,3.5-3.1,8.2-3.3,12.3-.3,6,2,11.1,8.1,11.1s16.5,1.1,16.5-4.3-.3-11.8-2.3-17-.3-.8-.5-1.2c-1.1-2.4-2.1-5.9-1.9-8.3.5-6.5-1.8-13.8-3-20.3-.4-3.6-1.6-7-4.6-9.3" data-active="1" style="fill: #fff; stroke: #c8c9c9; stroke-miterlimit: 10;" />
    <path id="milktooth-beauty" d="M15.5,57.5c2-.7,3.5-1,5.1-.6,2.5.3,4.1,1.5,5.5,3-1.5-.5-3.1-.6-4.9-.4-2.1.3-3.6.6-5.2,0-.6-.3-.9-1.2-.5-1.9h0Z" data-active="1" style="fill: #eaeaea;" />
    <g id="milktooth-inflam-pulp" data-active="1" style="display: none;">
      <path id="tooth-inflam-pulp-base1" d="M20.6,1.4c.7,0,.9,3.2.4,5.3-.4,2.4-.1,9.1.1,11.7.5,6.1.1,5.5.4,11.9s2.3,9.2,1.6,11.2c-.8,3.1-6.5,3.5-6.8.4s1.5-8.2,2-13.2-.3-10.2,0-11.5c.5-3.5.1-7.9-.1-11s-1.2-3.7,0-4.5c0,0-.8-1.1,2.5-.4h-.1Z" data-active="1" style="fill: #b70000;" />
      <path id="pulp-inflam-path-81" d="M22.5,20h0v-.2c-.3-.2-.7-.3-.9-.3-.8,0-1.7,0-2.5.1s-1.3.4-.4.7,2.8.3,3.9-.3c0,0-.1,0-.1,0Z" data-active="1" style="fill: url(#linear-gradient-11-8);" />
      <path id="pulp-inflam-path-71" d="M16.6,17.6h0v.2c.3.2.5.3.9.3.8.1,1.7,0,2.5,0s1.3-.3.4-.7-2.8-.4-3.9.2h.1Z" data-active="1" style="fill: url(#linear-gradient-11-9);" />
      <path id="pulp-inflam-path-61" d="M22.5,15h0v-.2c-.3-.2-.7-.3-.9-.3-.8,0-1.7,0-2.5.2s-1.3.4-.3.7,2.8.2,3.9-.4h-.2Z" data-active="1" style="fill: url(#linear-gradient-11-10);" />
      <path id="pulp-inflam-path-51" d="M16.3,13.1h0v.2c.3.2.7.3.9.3.8,0,1.7,0,2.5-.2s1.3-.4.3-.7-2.8-.2-3.9.3h.2Z" data-active="1" style="fill: url(#linear-gradient-11-11);" />
      <path id="pulp-inflam-path-41" d="M23.5,7.6h0l-.2-.2h-1.1c-.8,0-1.5.6-2.3,1.1s-1,.8,0,.8,2.7-.7,3.4-1.7c0,0,.2,0,.2,0Z" data-active="1" style="fill: url(#linear-gradient-11-12);" />
      <path id="pulp-inflam-path-31" d="M15.7,9.7h0v.2c0,.3.4.5.7.7.7.4,1.6.7,2.4.9s1.5.2.8-.5-2.3-1.5-3.7-1.5h-.1v.2s-.1,0,0,0h0Z" data-active="1" style="fill: url(#linear-gradient-11-13);" />
      <path id="pulp-inflam-path-21" d="M16.1,5.3h0v.2c0,.3.4.5.7.7.7.4,1.6.7,2.4.9s1.5.2.8-.5-2.3-1.5-3.7-1.5h-.1v.2h0Z" data-active="1" style="fill: url(#linear-gradient-11-14);" />
      <path id="pulp-inflam-path-11" d="M23.2,2.7h-.3c-.4,0-.7.2-1.1.3-.7.4-1.2,1.1-1.7,1.7s-.5,1.1.4.7,2.3-1.5,2.5-2.6h.2Z" data-active="1" style="fill: url(#linear-gradient-11-15);" />
      </g>
    <path id="milktooth-healthy-pulp" d="M20.7,1.4c.7,0,1,3.2.4,5.3-.4,2.4-.1,9.1.1,11.7.6,6.1.1,5.5.4,11.9s2.3,9.2,1.7,11.2c-.8,3.1-6.8,3.5-7,.4s1.5-8.2,2.1-13.2-.3-10.2,0-11.5c.6-3.5.1-7.9-.1-11s-1.2-3.7,0-4.5c0,0-.8-1.1,2.6-.4h-.2Z" data-active="1" style="fill: #fcc5bc;" />
    </g>
  <g id="endos" data-active="1">
    <path id="endo-medical-filling" d="M20,5.5c.8,2.4.9,7.6,1.2,10.8.3,4.3,2.6,17.5,2.9,21.8.1,4.8-8.3,5.8-7.8-1.4.6-6.3,1.7-19.1,2.1-25,0-1,.6-9.3,1.6-6.4h0v.2Z" data-active="1" style="display: none; fill: #fff; stroke: #f9ae94; stroke-miterlimit: 10; stroke-width: .2px;" />
    <path id="endo-filling-incomplete" d="M23.2,41.2c1.7-1.8.6-4.4.4-6.6-1.1-6.4-1.3-13.7-2.9-20-1.3-2.6-2,3.8-2,4.6-.4,4.8-1.1,10-1.8,14.8-.2,2.4-1,5.4,1.1,7.2,1.3,1.1,3.7,1.1,5,0,0,0,.2,0,.2,0Z" data-active="1" style="display: none; fill: #388aca;" />
    <path id="endo-filling" d="M20,5.5c.8,2.4.9,7.6,1.2,10.8.3,4.3,1.4,16,1.8,20.4-.4,4.1-2.3,7.1-5.1,4.7s-1.8-2.9-1.5-4.5c.5-3.3,0,.4.4-5.7.6-6.3,1.4-13.4,1.7-19.3,0-1,.6-9.3,1.6-6.4h0v.2-.2h-.1Z" data-active="1" style="display: none; fill: #388aca;" />
    <path id="endo-glass-pin" d="M20,11.8c.7,1.8.9,5.4,1.1,7.6.3,3,1.4,11.4,1.7,14.4,0,3.4,5.6,10.5,1.7,13.6-3.6,2.9-12.9,2-12-4,.9-4.8,3.9-8.6,4.3-13.6.6-4.4,1.2-9.4,1.6-13.7,0-.7.5-6.6,1.6-4.6h0v.2h0Z" data-active="1" style="display: none; fill: #c8c9c9;" />
    <path id="endo-metal-pin" d="M20,11.8c.7,1.8.9,5.4,1.1,7.6.3,3,1.4,11.4,1.7,14.4,0,3.4,5.6,10.5,1.7,13.6-3.6,2.9-12.9,2-12-4,.9-4.8,3.9-8.6,4.3-13.6.6-4.4,1.2-9.4,1.6-13.7,0-.7.5-6.6,1.6-4.6h0v.2h0Z" data-active="1" style="display: none; fill: #3951a3;" />
    <path id="endo-resorption" d="M11.4,7.7S15,.5,15.5.5l6.6.2c1.7,0,4.1,8.1,4,8.2l-.6,1.9c-.2.7-.6,1.3-1.1,1.9l-2.1,2.3c-1.3,1.4-3.4,1.5-4.8.2l-3-2.7c-.2-.2-.4-.5-.6-.7l-2.7-4.2h.2Z" data-active="1" style="display: none; fill: #fdecc5;" />
    <path id="endo-resection" d="M13.5,7S17.1-.2,17.6-.2l6.6.2c1.7,0,4.1,8.1,4,8.2l-.2,6.5-14.7-.2v-7.6h.2Z" data-active="1" style="display: none; fill: #fdecc5;" />
    </g>
  <g id="surfaces" data-active="1">
    <g id="subcaries" data-active="1">
      <path id="subcaries-buccal" d="M16,48.9c.8,1.1,2.1,1.5,3.3,1.6,1.9.2,3.3-1.1,4.2-3,.4-.7.6-1.2.6-2-.6-4-8.6-3-9.6-1.3-.6,1.2.9,3.6,1.5,4.6h0,0,0Z" data-active="1" style="display: none; fill: #0a1018; stroke: #000; stroke-miterlimit: 10;" />
      <path id="subcaries-mesial" d="M26,33.6c-4.5-.5-4.6,13.5-2.7,15.6,1.8,3.8,6.8,3.8,7.9-.6.9-3.4-1.9-13.5-5.1-15h-.1Z" data-active="1" style="display: none; fill: #0a1018; stroke: #000; stroke-miterlimit: 10;" />
      <path id="subcaries-distal" d="M10.2,52.9c2.6,0,4.6-5.4,5.4-8.1,1.4-3.8,1.7-8.6-2.3-8.6-5.1.3-7.7,15.1-3.2,16.7h.1Z" data-active="1" style="display: none; fill: #0a1018; stroke: #000; stroke-miterlimit: 10;" />
      <path id="subcaries-occlusal" d="M10,57.8c.6,3.9,7.2,4.4,10.9,4.2,3.3,0,7.9,0,9.6-3.1,2.4-5.8-6.3-9.1-11.7-8.8-3.9.2-8.3,4-8.8,7.5h0Z" data-active="1" style="display: none; fill: #0a1018; stroke: #000; stroke-miterlimit: 10;" />
      </g>
    <g id="caries" data-active="1">
      <path id="caries-subcrown" d="M8.8,41.8c-1.1,2.9,3.9-1.3,5.8-1.8,2.9-.5,6.5-3.2,6.3-5.2-.8-4-8.8-3.4-9.7-.7,0,0-2.4,7.7-2.4,7.7Z" data-active="1" style="display: none; fill: #0a1018; stroke: #000; stroke-miterlimit: 10;" />
      <path id="caries-buccal" d="M15.4,49.9c1.1,1.1,2.9,1.6,4.6,1.7,2.7.2,4.6-1.1,6-3.1.5-.7.9-1.3.9-2.1-.8-4.2-12.1-3.1-13.6-1.4-.9,1.3,1.3,3.8,2.1,4.8h.1-.1,0Z" data-active="1" style="display: none; fill: #0a1018; stroke: #000; stroke-miterlimit: 10;" />
      <g id="caries-mesial" data-active="1" style="display: none;">
        <path id="mesial-shape" d="M26.9,36.2c-3.8-.4-3.9,11.5-2.3,13.3,1.5,3.2,5.8,3.2,6.7-.5.8-2.9-1.6-11.5-4.3-12.8h-.1Z" data-active="1" style="fill: #0a1018; stroke: #000; stroke-miterlimit: 10;" />
        <path id="mesial-patch2" d="M27.4,42.7c3.2,0-.8-4.3-1.7-1.7-.3.9.7,1.7,1.4,1.7h.3Z" data-active="1" style="fill: #fff;" />
        <path id="mesial-patch1" d="M26.6,49.5c1.3,1.4,4.6-.5,2.2-1.5-1.6-.6-2.5.5-2.2,1.4h0Z" data-active="1" style="fill: #fff;" />
        </g>
      <g id="caries-distal" data-active="1" style="display: none;">
        <path id="distal-shape" d="M9.1,53.9c2.3,0,4-4.7,4.7-7,1.2-3.3,1.5-7.5-2-7.5-4.4.3-6.7,13.1-2.8,14.5h.1Z" data-active="1" style="fill: #0a1018; stroke: #000; stroke-miterlimit: 10;" />
        <path id="distal-patch2" d="M11.9,45.3c1-.4,1-2.6-.2-2.6s-1.2,2.8,0,2.6h.2Z" data-active="1" style="fill: #fff;" />
        <path id="distal-patch1" d="M8.8,50.4c.2.3.6.6.9.8.3,0,.8.3.7,0-.2-.5-.8-1.8-1.2-2.1-.7-.4-.6.9-.5,1.2h.1Z" data-active="1" style="fill: #fff;" />
        </g>
      <g id="caries-occlusal" data-active="1" style="display: none;">
        <path id="occlusal-shape" d="M11.3,58.4c.5,3.4,6.3,3.9,9.6,3.7,2.9,0,6.9,0,8.4-2.7,2.1-5.1-5.5-8-10.3-7.7-3.4.2-7.3,3.5-7.7,6.6h0Z" data-active="1" style="fill: #0a1018; stroke: #000; stroke-miterlimit: 10;" />
        <path id="occlusal-patch2" d="M21.6,58.4c-1.3,3.1,5.3,1.7,6,.2.8-.8.5-2.1-.6-2.4-1.9-.6-4.1.9-5.4,2.1h0Z" data-active="1" style="fill: #fff; stroke: #000; stroke-miterlimit: 10; stroke-width: .2px;" />
        <path id="occlusal-patch1" d="M14,58.4c-.3,1.6,1.4,2.8,2.5,1.3.7-.9.9-3.2-.5-3.3-1,0-1.9.7-2,1.8v.2Z" data-active="1" style="fill: #fff; stroke: #000; stroke-miterlimit: 10; stroke-width: .2px;" />
        </g>
      </g>
    <g id="fillings" data-active="1">
      <g id="amalgam" data-active="1">
        <path id="filling-amalgam-occlusal" d="M11.5,57.9c.5,3.4,6.3,3.9,9.6,3.7,2.9,0,6.9,0,8.4-2.7,2.1-5.1-5.5-8-10.3-7.7-3.4.2-7.3,3.5-7.7,6.6h0Z" data-active="1" style="display: none; fill: #aaa; stroke: #aaa; stroke-miterlimit: 10;" />
        <path id="filling-amalgam-buccal" d="M19,49.8c2,0,2.7-3,3.1-4.6.5-2.5-3.6-2-4.8-1-2,1.4-.8,5.3,1.6,5.6h.2-.1Z" data-active="1" style="display: none; fill: #aaa; stroke: #aaa; stroke-miterlimit: 10;" />
        <path id="filling-amalgam-mesial" d="M26.5,34.9c-3.8-.4-3.9,11.5-2.3,13.3,1.5,3.2,5.8,3.2,6.7-.5.8-2.9-1.6-11.5-4.3-12.8h-.1Z" data-active="1" style="display: none; fill: #aaa; stroke: #aaa; stroke-miterlimit: 10;" />
        <path id="filling-amalgam-distal" d="M10.4,51.9c2.3,0,4-4.7,4.7-7,1.2-3.3,1.5-7.5-2-7.5-4.4.3-6.7,13.1-2.8,14.5h.1Z" data-active="1" style="display: none; fill: #aaa; stroke: #aaa; stroke-miterlimit: 10;" />
        </g>
      <g id="composite" data-active="1">
        <path id="filling-composite-occlusal" d="M11.3,58c.5,3.4,6.3,3.9,9.6,3.7,2.9,0,6.9,0,8.4-2.7,2.1-5.1-5.5-8-10.3-7.7-3.4.2-7.3,3.5-7.7,6.6h0Z" data-active="1" style="display: none; fill: #feffbf; stroke: #feffbf; stroke-miterlimit: 10;" />
        <path id="filling-composite-buccal" d="M18.8,49.8c2,0,2.7-3,3.1-4.6.5-2.5-3.6-2-4.8-1-2,1.4-.8,5.3,1.6,5.6h.2-.1Z" data-active="1" style="display: none; fill: #feffbf; stroke: #feffbf; stroke-miterlimit: 10;" />
        <path id="filling-composite-mesial" d="M26.3,34.9c-3.8-.4-3.9,11.5-2.3,13.3,1.5,3.2,5.8,3.2,6.7-.5.8-2.9-1.6-11.5-4.3-12.8h-.1Z" data-active="1" style="display: none; fill: #feffbf; stroke: #feffbf; stroke-miterlimit: 10;" />
        <path id="filling-composite-distal" d="M10.2,52c2.3,0,4-4.7,4.7-7,1.2-3.3,1.5-7.5-2-7.5-4.4.3-6.7,13.1-2.8,14.5h.1Z" data-active="1" style="display: none; fill: #feffbf; stroke: #feffbf; stroke-miterlimit: 10;" />
        </g>
      <g id="gic" data-active="1">
        <path id="filling-gic-occlusal" d="M11.5,57.9c.5,3.4,6.3,3.9,9.6,3.7,2.9,0,6.9,0,8.4-2.7,2.1-5.1-5.5-8-10.3-7.7-3.4.2-7.3,3.5-7.7,6.6h0Z" data-active="1" style="display: none; fill: #f9ae94; stroke: #f99; stroke-miterlimit: 10;" />
        <path id="filling-gic-buccal" d="M19,49.8c2,0,2.7-3,3.1-4.6.5-2.5-3.6-2-4.8-1-2,1.4-.8,5.3,1.6,5.6h.2-.1Z" data-active="1" style="display: none; fill: #f9ae94; stroke: #f99; stroke-miterlimit: 10;" />
        <path id="filling-gic-mesial" d="M26.5,34.9c-3.8-.4-3.9,11.5-2.3,13.3,1.5,3.2,5.8,3.2,6.7-.5.8-2.9-1.6-11.5-4.3-12.8h-.1Z" data-active="1" style="display: none; fill: #f9ae94; stroke: #f99; stroke-miterlimit: 10;" />
        <path id="filling-gic-distal" d="M10.4,51.9c2.3,0,4-4.7,4.7-7,1.2-3.3,1.5-7.5-2-7.5-4.4.3-6.7,13.1-2.8,14.5h.1Z" data-active="1" style="display: none; fill: #f9ae94; stroke: #f99; stroke-miterlimit: 10;" />
        </g>
      <g id="temporary" data-active="1">
        <path id="filling-temporary-occlusal" d="M11.5,57.9c.5,3.4,6.3,3.9,9.6,3.7,2.9,0,6.9,0,8.4-2.7,2.1-5.1-5.5-8-10.3-7.7-3.4.2-7.3,3.5-7.7,6.6h0Z" data-active="1" style="display: none; fill: #fff; stroke: #eee; stroke-miterlimit: 10;" />
        <path id="filling-temporary-buccal" d="M19,49.8c2,0,2.7-3,3.1-4.6.5-2.5-3.6-2-4.8-1-2,1.4-.8,5.3,1.6,5.6h.2-.1Z" data-active="1" style="display: none; fill: #fff; stroke: #eee; stroke-miterlimit: 10;" />
        <path id="filling-temporary-mesial" d="M26.5,34.9c-3.8-.4-3.9,11.5-2.3,13.3,1.5,3.2,5.8,3.2,6.7-.5.8-2.9-1.6-11.5-4.3-12.8h-.1Z" data-active="1" style="display: none; fill: #fff; stroke: #eee; stroke-miterlimit: 10;" />
        <path id="filling-temporary-distal" d="M10.4,51.9c2.3,0,4-4.7,4.7-7,1.2-3.3,1.5-7.5-2-7.5-4.4.3-6.7,13.1-2.8,14.5h.1Z" data-active="1" style="display: none; fill: #fff; stroke: #eee; stroke-miterlimit: 10;" />
        </g>
      </g>
    <g id="contact-point" data-active="1">
      <g id="mesial-no-contact-point" data-active="1" style="display: none;">
        <path d="M29.6,44.8c1.1,2.4,2.5,5.1,4,7.7" data-active="1" style="fill: none; stroke: #aaa; stroke-miterlimit: 10; stroke-width: .5px;" />
        <path d="M30,53c.7-1.6.8-2.6,1.3-3.8.6-1.4,1.1-3,1.5-4.5" data-active="1" style="fill: none; stroke: #aaa; stroke-miterlimit: 10; stroke-width: .5px;" />
        </g>
      <g id="distal-no-contact-point" data-active="1" style="display: none;">
        <path d="M5.8,45.9c.9,2.6,2.2,5.4,3.4,8.2" data-active="1" style="fill: none; stroke: #aaa; stroke-miterlimit: 10; stroke-width: .5px;" />
        <path d="M5.7,54.1c.9-1.5,1-2.5,1.6-3.6.8-1.3,1.4-2.8,1.9-4.3" data-active="1" style="fill: none; stroke: #aaa; stroke-miterlimit: 10; stroke-width: .5px;" />
        </g>
      </g>
    </g>
  <g id="restorations" data-active="1">
    <g id="implant" data-active="1" style="display: none;">
      <path id="implant-locator-screw" d="M16.4,44.5c.9,1.5,3.8.9,5.4,1,3.2-.5,1.7-4.6,2-7,0-.7.2-1.6-.3-2.1-.2-.3-.7-.4-1-.4-1.5,0-3.4-.2-4.9.2-1.3.3-1.4,1.3-1.4,2.5,0,2-.2,3.9.1,5.7v.2h0Z" data-active="1" style="fill: url(#linear-gradient-11-16); stroke: #c8c9c9; stroke-miterlimit: 10; stroke-width: .2px;" />
      <path id="implant-connector" d="M13.5,37.8h0c.1,1.4,1.1,2.1,1.9,1.7,1.4-.7,1.6-2,3.4-2.1h3.3c.8,0,1.8,1.9,2.9,2.2s1.4-.6,1.3-1.6c0-1.9,0-5.6-.5-5.7s-3.1,0-3.7,0h-4.5c-1,0-2.7-.4-3.5.7-.8,1.1-1,2.9-.8,4l.2.7h0Z" data-active="1" style="fill: url(#linear-gradient-11-17);" />
      <path id="implant-bar" d="M6.7,50.6c5.8.3,21,0,27.4,0s2.8-2.2,3-4.1.2-3.2-1-3.4-4.8,0-6.3,0c-3.6,0-6.7,0-10.1.2-3.8,0-12.1.2-12.7,0-1.1,0-2.1.7-2.2,1.7-.2,1.9-.2,5.5,1.8,5.3h0v.3h0Z" data-active="1" style="fill: url(#radial-gradient-11-0);" />
      <g id="implant-healing-abutment" data-active="1" style="display: none;">
        <path id="implant-healing-abutment-connector" d="M16.5,37c1.7.3,3.7-.2,5.4-.2,3.3,0,4.2-1.2,3.4-5.6-.8-3.9-1.7-9-2.7-13.4-.3-1.1-.6-2.2-1.1-3.1-2.3-4.5-4.3,1.7-4.7,5-.5,3.4-.6,5.9-1.3,9-.6,2.7-2.4,7.7.7,8.3h.3Z" data-active="1" style="fill: #a0a0a0; stroke: #8c8c8c; stroke-miterlimit: 10; stroke-width: .5px;" />
        <path d="M27.1,33.5h-9.2c-1.4,0-5,.2-5,.2,0,0-.4.9-.7,1.7s-.3,1.2-.3,1.8v2.7c0,.3.2.5.2.7h1.1c2.4-.3,4.9-.4,7.3-.4v-.2c.3,0-.7-.2-.9-.2.4.5-1.8,0-2.1,0-.5,0-.7-.5-.7-1v-2.4c0-.6.6-.5.4-.6l-4.1.3c-.4,0-.7.2-1.1,0l2.5-.5c3.2-.6,6.4-.3,9.5,0,.6,0,1.2,0,1.9.2h.5c.2,0,.4,0,.5.2-.2-.2,0-2.5,0-2.5h.2Z" data-active="1" style="fill: #475563;" />
        <path d="M20.7,40v-.2h.2c.1,0,0,0,0-.2.5,0,2,.3,2.6.2.1.3.5.2.7.2.6,0,2.3.2,2.5-.9s.2-1.8,0-2.7-.3-.4-.1-.6h.4s.2,0,.2.4v3.6c0,.2-.1.4-.2.6-.9,0-1.8-.2-2.8-.3h-3.6,0Z" data-active="1" style="fill: #8c8c8c;" />
        <path d="M20.4,35.8c-.1-.2-.3-.2-.5-.2l-.9.2c-.1-.2-.4-.2-.6,0-.1-.2-.9,0-1,0l-4.1.3c-.4,0-.7.2-1.1,0l2.5-.5c3.2-.6,6.4-.3,9.5,0,.1.3,0,.2.3.6.2.3.3.2.4.5.1.7,0,1.5,0,2.1s-.3.8-.7.9c-.7,0-2,.2-2.7,0s-1.4-.2-1.4-.6v-.9c-.1-.4,0-1.5,0-2s.5-.7.3-.5h0Z" data-active="1" style="fill: #e8eef0;" />
        <path d="M23.5,39.8h.7c.4-.2.7-.6.7-1v-1.9c0-.6-.9-1.1-1.5-1.1-.3-.4.9,0,.8-.2.6,0,1.2,0,1.9.2s.3,0,.5,0c-.2.2,0,.4.1.6.1.9.1,1.8,0,2.7s-1.9,1-2.5.9-.6,0-.7-.2h0Z" data-active="1" style="fill: #a0a0a0;" />
        <path d="M17.4,35.7c.1,0,.9-.2,1,0,.2-.2.5-.2.6,0,0,0-.2.2-.2.3,0,1-.2,1.9,0,2.9s.6.6,1,.7c.4.5-1.8,0-2.1,0-.5,0-.7-.5-.7-1v-2.4c0-.8.6-.5.4-.6h0Z" data-active="1" style="fill: #6f7c86;" />
        <path d="M20.7,39.8c.3,0-1.1-.3-.9-.2-.4,0-.9,0-1-.7-.2-.9,0-1.9,0-2.9s.2-.2.2-.3l.9-.2c.2,0,.4,0,.5.2-.2.2-.3.4-.3.7v2.5c0,.9.5.6.7.7v.2h-.2s.1,0,0,0h0Z" data-active="1" style="fill: #a0a0a0;" />
        </g>
      <g id="implant-base" data-active="1">
        <path d="M16.7,33.5c-.1-1.3-.2-2.7.2-4h5.6c.4,1,.2,2.9.2,4h-6Z" data-active="1" style="fill: #bbc3c6;" />
        <path d="M17.9,7.1c-.2,0,0-2.2,0-2.4.2-1.3.9-2.4,1.9-3,1-.6.2,0,.2-.3,1.7,0,3.3,1.1,3.8,3.1s0,1.2.1,1.8h-1.3c0-.8,0-2.1-.8-2.3s-.7,0-.7.3c0,.8,0,1.5.2,2.1l-3.5.6h0Z" data-active="1" style="fill: #bac3c7;" />
        <path d="M16.9,29.5c-.4,1.3-.3,2.7-.2,4l-3.8.2c0-.7-.3-4.2.7-4,1.1-.2,2.2-.2,3.3-.2Z" data-active="1" style="fill: #a0a4a5;" />
        <path d="M17.5,29v-2.5c1.5-.3,3-.7,4.6-.7l.2,3.3h-4.8Z" data-active="1" style="fill: #bac3c6;" />
        <path d="M20.1,1.3s-.1.2-.2.3c-1,.6-1.6,1.7-1.9,3-.3,1.3-.2,2.4,0,2.4l-2.4.6c.1-1.1,0-2.2.3-3.3s1.1-2.2,2.1-2.7c1-.5,1.5-.4,2.2-.4h-.1Z" data-active="1" style="fill: #9ca3a6;" />
        <path d="M22.7,33.5c0-1.1.2-3-.2-4h2.7c.2,1,.3,3,0,4h-2.5Z" data-active="1" style="fill: #e8eef0;" />
        <path d="M17.4,26.4v2.5c.1,0-3.4.2-3.4.2,0-.7,0-1.4.1-2,1.1-.4,2.2-.5,3.2-.8h.1,0Z" data-active="1" style="fill: #9ea3a4;" />
        <path d="M25.2,33.6c.2-1,.2-3,0-4h1.4c.8.2.7,3.3.5,4h-1.9Z" data-active="1" style="fill: #bcc4c7;" />
        <path d="M22.3,29l-.2-3.3c.6-.2,1.3-.2,1.9-.2l.2,3.6h-1.9Z" data-active="1" style="fill: #e3eaeb;" />
        <path d="M24.2,29.1l-.2-3.6c.5-.1,1.1-.1,1.7-.1l.3,3.8h-1.8Z" data-active="1" style="fill: #b8c2c4;" />
        <path d="M17.5,24.6v-1.1c1.5-.3,3-.6,4.5-.7v1.1l-4.5.7Z" data-active="1" style="fill: #b7c0c3;" />
        <path d="M17.6,21.7c-.1-.4,0-.8,0-1.2,1.5-.3,2.9-.5,4.3-.7v1.2l-4.4.7h.1Z" data-active="1" style="fill: #b9c0c4;" />
        <path d="M17.7,18.8c-.3-.4,0-.5-.2-1.1,1.4-.4,2.8-.6,4.3-.8v1.2c-1.3.2-2.7.4-4.1.7Z" data-active="1" style="fill: #b8c0c3;" />
        <path d="M17.6,15.8v-1.1c1.3-.3,2.7-.6,4.1-.7v1.1l-4.1.7Z" data-active="1" style="fill: #b7bfc3;" />
        <path d="M17.7,12.9v-1.1c1.3-.3,2.6-.5,3.9-.7v1.2l-4,.6h.1Z" data-active="1" style="fill: #b9c1c5;" />
        <path d="M17.7,8.9c1.2-.3,2.4-.6,3.7-.7v1.2c-1.2.1-2.4.4-3.7.6v-1.1Z" data-active="1" style="fill: #bac3c5;" />
        <path d="M17.5,25.9c0-.2,0-.5-.1-.7-.2.2-.5.3-.6,0,1.7-.4,3.5-.7,5.3-.9.1.2,0,.5,0,.8l-4.6.7h0Z" data-active="1" style="fill: #b7c0c3;" />
        <path d="M17.6,23c-.2-.2,0-.5,0-.8,1.5-.3,3-.6,4.5-.7v.8l-4.4.7s-.1,0,0,0h-.1Z" data-active="1" style="fill: #b9c0c3;" />
        <path d="M17.5,23.5v1.1l-3.2.8v-1.1c1-.4,2.1-.5,3.1-.7h.1Z" data-active="1" style="fill: #9a9fa1;" />
        <path d="M17.7,20c-.1-.3-.2-.4-.2-.7,1.5-.3,2.9-.6,4.3-.7v.8l-4.2.7h.1Z" data-active="1" style="fill: #bac0c3;" />
        <path d="M17.6,20.5c0,.4-.1.8,0,1.2l-3.1.7v-1.2c1-.4,2-.5,3-.7,0,0,.1,0,0,0h.1Z" data-active="1" style="fill: #999fa1;" />
        <path d="M17.6,17.1v-.8c1.4-.3,2.8-.5,4.2-.7v.8s-4.2.7-4.2.7Z" data-active="1" style="fill: #bac1c4;" />
        <path d="M17.6,14.2v-.7c1.3-.3,2.7-.5,4-.7v.8l-4.1.6s.1,0,.1,0Z" data-active="1" style="fill: #b9c0c3;" />
        <path d="M17.7,11.3v-.8c1.2-.4,2.5-.5,3.8-.7,0,.2.1.5,0,.8l-3.9.7h.1Z" data-active="1" style="fill: #bbc2c4;" />
        <path d="M17.5,17.7c.1.6,0,.7.2,1.1l-2.9.7v-1.1c.9-.5,1.8-.4,2.7-.6h0Z" data-active="1" style="fill: #9ba0a2;" />
        <path d="M16.7,25.3c.1.2.4.2.6,0,.1.2.1.5.1.7-1.2.3-2.4.5-3.6.9s-.4-.2-.5-.4c0-.6,2.7-1,3.2-1.1h.2Z" data-active="1" style="fill: #a8aeb1;" />
        <path d="M17.5,22.2v.8l-3.5.9c-.2,0-.4-.3-.4-.4,0-.6,3.3-1.1,3.8-1.2h.1Z" data-active="1" style="fill: #a6abad;" />
        <path d="M17.6,14.7v1.1l-2.7.7v-1.2c.9-.4,1.8-.5,2.6-.6,0,0,.1,0,0,0,0,0,.1,0,.1,0Z" data-active="1" style="fill: #9ba0a3;" />
        <path d="M21.4,6.5c-.1-.7-.2-1.4-.2-2.1s.5-.4.7-.3c.8.2.7,1.5.8,2.3l-1.3.2h0Z" data-active="1" style="fill: #e4e9ea;" />
        <path d="M17.8,8.4v-.8c1.2-.3,2.4-.5,3.7-.6v.8l-3.7.6Z" data-active="1" style="fill: #bcc2c4;" />
        <path d="M17.5,19.3c0,.3,0,.5.2.7-1.2.2-2.2.5-3.4.8s-.4-.2-.4-.3c-.1-.7,3.1-1.1,3.6-1.2Z" data-active="1" style="fill: #a6abad;" />
        <path d="M17.7,11.8v1.1l-2.5.7c0-.3,0-.9.1-1.1.8-.4,1.6-.4,2.4-.6h0Z" data-active="1" style="fill: #9da2a4;" />
        <path d="M17.6,16.4v.8l-3.2.8c-.2,0-.3-.3-.3-.4s0-.3.2-.4c1.1-.4,2.2-.6,3.2-.8h.1Z" data-active="1" style="fill: #a5aaac;" />
        <path d="M17.7,8.9v1.1l-2.4.6v-1.1c.8-.3,1.6-.4,2.3-.6h.1Z" data-active="1" style="fill: #9ca1a3;" />
        <path d="M17.6,13.5v.7l-2.9.8c-.2,0-.4-.2-.4-.3-.2-.7,3-1.1,3.3-1.1h0Z" data-active="1" style="fill: #a5aaac;" />
        <path d="M17.6,10.5v.8l-2.8.7c-.2,0-.3-.2-.4-.3s0-.4.3-.4c1-.3,1.9-.6,2.9-.7h0Z" data-active="1" style="fill: #a2a7a9;" />
        <path d="M17.8,7.6v.8c-.9.2-1.7.4-2.6.7s-.4-.1-.4-.3,0-.3.2-.4c.9-.4,1.8-.5,2.8-.8Z" data-active="1" style="fill: #a7abae;" />
        <path d="M22.1,23.9v-1.1c.5-.2,1.1-.2,1.7-.2.1.4,0,.8,0,1.2l-1.8.2h0Z" data-active="1" style="fill: #e2e9eb;" />
        <path d="M22,21v-1.2l1.8-.2v1.1c-.5.2-1.1.2-1.7.3h0Z" data-active="1" style="fill: #e1e8e9;" />
        <path d="M21.8,16.9c.6,0,1.2-.2,1.8-.2v1.2l-1.7.2v-1.2h0Z" data-active="1" style="fill: #e3e9ea;" />
        <path d="M21.7,15.2v-1.1c.5,0,1.1-.2,1.6-.2.2.4,0,.8.2,1.1-.6,0-1.2,0-1.8.2Z" data-active="1" style="fill: #e3e9ea;" />
        <path d="M23.9,23.7v-1.2c.5,0,1.1-.1,1.7-.1,0,.4.1.8.1,1.2-.6.2-1.2,0-1.7.1h-.1Z" data-active="1" style="fill: #b7bfc3;" />
        <path d="M21.6,12.3c-.1-.4,0-.8,0-1.2l1.6-.2v1.1c-.4.1-1,.2-1.5.2h-.1Z" data-active="1" style="fill: #e4eaeb;" />
        <path d="M24,25v-.8c.5,0,2.5-.5,2.4.3s-1.8.5-2.4.5Z" data-active="1" style="fill: #b4bdc0;" />
        <path d="M23.9,22.1v-.8c.4,0,2.4-.5,2.3.2s-.2.4-.4.4h-1.9s0,.2,0,.2Z" data-active="1" style="fill: #b8c0c4;" />
        <path d="M21.4,8.2c.5,0,1-.2,1.5-.2.1.4,0,.8.2,1.1-.5.1-1,.2-1.6.2v-1.2h-.1Z" data-active="1" style="fill: #e3e8e9;" />
        <path d="M23.8,20.7v-1.1c.4,0,.9-.1,1.4-.1,0,.4.1.8,0,1.1-.5.2-1.1,0-1.5.1h.1Z" data-active="1" style="fill: #b8c0c3;" />
        <path d="M23.6,19.2v-.8c.4,0,2.2-.5,2.2.2s-1.7.5-2.2.6Z" data-active="1" style="fill: #b5bdc1;" />
        <path d="M23.6,17.9v-1.2c.5,0,.9-.2,1.4-.1v1.1c-.5.1-1,0-1.5.1h.1Z" data-active="1" style="fill: #b8c1c5;" />
        <path d="M23.5,16.2c-.1-.2,0-.5,0-.8.5,0,2.1-.4,2.2.2s-1.5.6-2.1.6h-.1Z" data-active="1" style="fill: #bac0c3;" />
        <path d="M23.3,13.3c-.1-.2,0-.5-.1-.8.5,0,2.1-.5,2.1.2s-1.5.5-2,.6Z" data-active="1" style="fill: #b6bec2;" />
        <path d="M23.4,15c-.1-.4,0-.8-.2-1.1.5,0,.9-.2,1.4-.1,0,.4.1.8,0,1.1h-1.3.1Z" data-active="1" style="fill: #b9c2c6;" />
        <path d="M22.1,25.2v-.8c.7,0,1.3-.2,2-.2v.8l-1.9.2h-.1Z" data-active="1" style="fill: #e5e9eb;" />
        <path d="M23.1,10.4v-.8c.3,0,2.2-.5,2,.3s-1.4.4-1.9.5h-.1Z" data-active="1" style="fill: #bbc2c5;" />
        <path d="M23.2,12v-1.1c.3,0,.7-.1,1.2,0,0,.3.1.7,0,1.1-.4.3-.9,0-1.3.1h0Z" data-active="1" style="fill: #b6bfc2;" />
        <path d="M22,22.2v-.8c.6,0,1.2-.2,1.8-.2v.8l-1.9.2h.1Z" data-active="1" style="fill: #e6ebec;" />
        <path d="M23.1,9.2c-.2-.3,0-.8-.2-1.1.4,0,.8-.2,1.3,0,0,.3.1.7,0,1.1-.4.2-.8,0-1.2.1h.1Z" data-active="1" style="fill: #bdc3c6;" />
        <path d="M21.9,19.3v-.8c.6,0,1.2-.3,1.8-.2v.8l-1.8.2Z" data-active="1" style="fill: #e6eaeb;" />
        <path d="M22.9,7.6v-.8c.4,0,2.1-.5,1.9.3s-1.4.4-1.9.4h0Z" data-active="1" style="fill: #bfc4c7;" />
        <path d="M21.8,16.4v-.8l1.7-.2v.8l-1.8.2h0Z" data-active="1" style="fill: #e5eaeb;" />
        <path d="M21.6,13.5v-.8l1.7-.2c0,.3,0,.5.1.8l-1.7.2h-.1Z" data-active="1" style="fill: #e6ebeb;" />
        <path d="M21.5,10.6v-.8c.5,0,1-.2,1.6-.2v.8l-1.6.2Z" data-active="1" style="fill: #e6eaeb;" />
        <path d="M21.4,7c.5,0,1-.2,1.5-.2v.8l-1.5.2v-.8Z" data-active="1" style="fill: #e1e5e6;" />
        </g>
      </g>
    <g id="prosthesis-implant" data-active="1">
      <g id="prosthesis-implant-gum" data-active="1" style="display: none; opacity: .5;">
        <path d="M36.4,53.9v-11.7c0-.8-.9-1.5-2-1.5H4.7c-9.3,0-2,.6-2,1.4-.1,2.7-.3,8.7-.4,11.7s.9,1.5,2.1,1.5h30.1c6.1,0,2-.7,2-1.5h-.1Z" data-active="1" style="fill: url(#radial-gradient-11-1);" />
        <path d="M36.3,53.9c0-3.9-.4-7.9-.5-11.7-.2-1.2-2.8-.7-4.6-.9h-5.9c-4.1,0-13.7-.5-17.7-.4h-2.9c-.7,0-1.4,1-.9,1.5,0,3.8,0,7.8-.4,11.6,0,0,0,.2.4.4.3,0,.5.2,1.1.2h2.9l5.9.3c3.9,0,13.9.4,17.7.5h2.9c.9,0,2.1-.4,2.1-1.4h0ZM36.5,53.9c0,1.1-1.3,1.6-2.3,1.6h-2.9c-3.7,0-13.8.4-17.7.5-1.9,0-7,.2-8.8.2-1.3.2-3.8-.5-3.6-2.9v-.7c0-3.4,0-6.9.3-10.3.1-2,1.8-1.8,3.2-1.6,9.1,0,20.3-.6,29.5-.6s2.7.5,2.9,2c0,4-.3,7.9-.5,11.8h-.1Z" data-active="1" style="fill: #ffa46a;" />
        </g>
      <path id="prosthesis-implant-crown" d="M26.8,62c-.8,1.9-6,1.3-7.8,1.3s-3.7.2-4.7-.8c-2.5-2.1-.8-10.1,1.4-12,2.7-2.4,7.7-2,9.8.9,1.2,1.6,1.3,4.2,1.4,6.3,0,1.4.2,2.7,0,3.9v.3h-.1Z" data-active="1" style="display: none; fill: #f9ae94; stroke: #1b3f1c; stroke-miterlimit: 10;" />
      </g>
    <g id="prosthesis" data-active="1">
      <path id="prosthesis-connector" d="M14.2,53.1c6-.2,12.5.5,18.3-.5,3-.6,5.6-3.3,4.2-6-2.4-3.8-8-3-13-3.2h-10.6c-3.2,0-6.7,0-9.4,1.5-2.5,1.5-3.1,4.9-.9,6.6,3.1,2.1,7.1,1.5,11.2,1.6,0,0,.2,0,.2,0Z" data-active="1" style="display: none; fill: url(#linear-gradient-11-18); stroke: #1b3f1c; stroke-miterlimit: 10; stroke-width: .2px;" />
      <path id="prosthesis-crown" d="M31.7,59.3c-1.3,3.5-10.6,2.4-13.8,2.5-3,0-6.5.4-8.4-1.4-4.4-3.9-1.4-18.9,2.5-22.4,4.8-4.4,13.6-3.7,17.4,1.7,2.1,3,2.4,7.8,2.5,11.7,0,2.6.4,5.1,0,7.3l-.2.5h0Z" data-active="1" style="display: none; fill: #f9ae94; stroke: #1b3f1c; stroke-miterlimit: 10;" />
      </g>
    <g id="telescope" data-active="1">
      <path id="telescope-bridge-connector" d="M14.2,53.1c6-.2,12.5.5,18.3-.5,3-.6,5.6-3.3,4.2-6-2.4-3.8-8-3-13-3.2h-10.6c-3.2,0-6.7,0-9.4,1.5-2.5,1.5-3.1,4.9-.9,6.6,3.1,2.1,7.1,1.5,11.2,1.6,0,0,.2,0,.2,0Z" data-active="1" style="display: none; fill: #388aca; stroke: #1b3f1c; stroke-miterlimit: 10; stroke-width: .5px;" />
      <g id="telescope-crown" data-active="1" style="display: none;">
        <path id="telescope-crown-outside" d="M32.1,59.3c-1.4,3.5-11.1,2.4-14.5,2.5-3.1,0-6.8.4-8.8-1.4-4.6-3.9-1.5-18.9,2.6-22.4,5-4.4,14.3-3.7,18.3,1.8,2.2,3,2.5,7.8,2.6,11.7,0,2.6.4,5.1,0,7.3,0,0-.2.5-.2.5Z" data-active="1" style="fill: #0051bf; stroke: #1b3f1c; stroke-miterlimit: 10;" />
        <path id="telescope-crown-inside" d="M29.9,57.4c-1.2,2.8-9.1,2-11.9,2.1-2.6,0-5.6.3-7.2-1.1-3.7-3.2-1.2-15.5,2.2-18.4,4.1-3.6,11.7-3,15,1.4,1.8,2.5,2,6.4,2.2,9.6,0,2.1.4,4.2,0,6v.4s-.3,0-.3,0Z" data-active="1" style="fill: #aaa; stroke: #1b3f1c; stroke-miterlimit: 10;" />
        </g>
      </g>
    <g id="zircon" data-active="1">
      <path id="zircon-bridge-connector" d="M14.2,53.1c6-.2,12.5.5,18.3-.5,3-.6,5.6-3.3,4.2-6-2.4-3.8-8-3-13-3.2h-10.6c-3.2,0-6.7,0-9.4,1.5-2.5,1.5-3.1,4.9-.9,6.6,3.1,2.1,7.1,1.5,11.2,1.6,0,0,.2,0,.2,0Z" data-active="1" style="display: none; fill: #feffbf; stroke: #1b3f1c; stroke-miterlimit: 10; stroke-width: .2px;" />
      <path id="zircon-crown" d="M32.1,59.3c-1.4,3.5-11.1,2.4-14.5,2.5-3.1,0-6.8.4-8.8-1.4-4.6-3.9-1.5-18.9,2.6-22.4,5-4.4,14.3-3.7,18.3,1.8,2.2,3,2.5,7.8,2.6,11.7,0,2.6.4,5.1,0,7.3,0,0-.2.5-.2.5Z" data-active="1" style="display: none; fill: #feffbf; stroke: #1b3f1c; stroke-miterlimit: 10;" />
      </g>
    <g id="metal" data-active="1">
      <path id="metal-bridge-connector" d="M14.2,53.1c6-.2,12.5.5,18.3-.5,3-.6,5.6-3.3,4.2-6-2.4-3.8-8-3-13-3.2h-10.6c-3.2,0-6.7,0-9.4,1.5-2.5,1.5-3.1,4.9-.9,6.6,3.1,2.1,7.1,1.5,11.2,1.6,0,0,.2,0,.2,0Z" data-active="1" style="display: none; fill: #0051bf; stroke: #1b3f1c; stroke-miterlimit: 10; stroke-width: .2px;" />
      <path id="metal-crown" d="M32.1,59.3c-1.4,3.5-11.1,2.4-14.5,2.5-3.1,0-6.8.4-8.8-1.4-4.6-3.9-1.5-18.9,2.6-22.4,5-4.4,14.3-3.7,18.3,1.8,2.2,3,2.5,7.8,2.6,11.7,0,2.6.4,5.1,0,7.3,0,0-.2.5-.2.5Z" data-active="1" style="display: none; fill: #0051bf; stroke: #1b3f1c; stroke-miterlimit: 10;" />
      </g>
    <g id="emax" data-active="1">
      <path id="emax-crown" d="M30.6,57.9c-1.2,3.1-9.7,2.1-12.6,2.2-2.7,0-5.9.3-7.7-1.2-4-3.4-1.3-16.5,2.3-19.5,4.4-3.8,12.5-3.2,16,1.6,1.9,2.6,2.2,6.8,2.3,10.2,0,2.3.3,4.4,0,6.4l-.2.4h0Z" data-active="1" style="display: none; fill: url(#radial-gradient-11-2); stroke: #1b3f1c; stroke-miterlimit: 10;" />
      </g>
    <g id="temporary-restorations" data-active="1">
      <path id="temporary-bridge-connector" d="M14.2,53.1c6-.2,12.5.5,18.3-.5,3-.6,5.6-3.3,4.2-6-2.4-3.8-8-3-13-3.2h-10.6c-3.2,0-6.7,0-9.4,1.5-2.5,1.5-3.1,4.9-.9,6.6,3.1,2.1,7.1,1.5,11.2,1.6,0,0,.2,0,.2,0Z" data-active="1" style="display: none; fill: #fff; stroke: #1b3f1c; stroke-miterlimit: 10; stroke-width: .2px;" />
      <path id="temporary-crown" d="M32.1,59.3c-1.4,3.5-11.1,2.4-14.5,2.5-3.1,0-6.8.4-8.8-1.4-4.6-3.9-1.5-18.9,2.6-22.4,5-4.4,14.3-3.7,18.3,1.8,2.2,3,2.5,7.8,2.6,11.7,0,2.6.4,5.1,0,7.3,0,0-.2.5-.2.5Z" data-active="1" style="display: none; fill: #fff; stroke: #1b3f1c; stroke-miterlimit: 10;" />
      </g>
    </g>
  <g id="specials" data-active="1">
    <g id="missing-closed" data-active="1" style="display: none;">
      <path d="M5.3,4.9c18.4,16.6,16.4,37.8,0,54.8" data-active="1" style="fill: none; stroke: #000; stroke-miterlimit: 10; stroke-width: 2px;" />
      <path d="M33.5,58.4c-18.5-16.4-16.7-37.6-.5-54.8" data-active="1" style="fill: none; stroke: #000; stroke-miterlimit: 10; stroke-width: 2px;" />
      </g>
    <g id="extraction-plan" data-active="1" style="display: none;">
      <path d="M5.6,57.7c1.4-4,28.3-51.6,29.1-53.7" data-active="1" style="fill: none; stroke: #b70000; stroke-miterlimit: 10; stroke-width: 3px;" />
      <path d="M6,4.5c2.7,3.5,19.9,39.4,23.4,48.1.6,1.5,1.2,3,2,4.3" data-active="1" style="fill: none; stroke: #b70000; stroke-miterlimit: 10; stroke-width: 3px;" />
      </g>
    <g id="crown-needed" data-active="1" style="display: none;">
      <path id="crown-needed-shape" d="M31.8,59c-1.3,3.6-10.7,2.5-13.9,2.6-3,0-6.5.4-8.4-1.4-4.4-4-1.4-19.5,2.5-23.1,4.8-4.5,13.7-3.8,17.6,1.9,2.1,3.1,2.4,8,2.5,12.1,0,2.7.4,5.3,0,7.5l-.2.5h-.1Z" data-active="1" style="fill: #c83014; stroke: #1b3f1c; stroke-miterlimit: 10;" />
      <path id="crown-needed-path" d="M16.9,34.4c-2.2,3-4.6,6-6.7,8.9-.9,1.3-1.6,2.5-1.9,3.8,0,.2,0,.4.2.5,1.2,0,2.1-1.4,3-2.3,2.4-2.7,4.5-6.4,7.4-8.5,1.9-1.4,4.6-2.5,4.2-.7-2,6.8-10.7,12-13.2,18.5-.6,1.4-1.2,3.5,0,4,2.4-.3,3.6-3.5,5-5.6,3-4.3,8.2-11.3,11.9-14.5,3.2-2.2,2.6,3.2.2,6.7-2.3,4-12.7,10.7-10.6,15.9,3.5.8,9.8-11,12.7-13.2,3.8-3.5,2.2,2.9,0,6.1-1.2,2.1-3.4,4.1-4.4,6.3-.8,1.5.2,1.7,1.3,1,2.3-1.2,4.5-3.6,6.3-5.6" data-active="1" style="fill: #feffbf; stroke: #1b3f1c; stroke-miterlimit: 10;" />
      </g>
    <g id="crown-replace" data-active="1" style="display: none;">
      <path id="crown-replace-shape" d="M32.6,58.3c-1.4,3.5-11.1,2.4-14.5,2.5-3.1,0-6.8.4-8.8-1.4-4.6-3.9-1.5-18.9,2.6-22.4,5-4.4,14.3-3.7,18.3,1.8,2.2,3,2.5,7.8,2.6,11.7,0,2.6.4,5.1,0,7.3,0,0-.2.5-.2.5Z" data-active="1" style="fill: none; stroke: #c83014; stroke-miterlimit: 10; stroke-width: 3px;" />
      </g>
    <g id="parapulpal-pin" data-active="1" style="display: none;">
      <g id="parapulpal-pin-shape" data-active="1">
        <path d="M25.7,39.3c.1.5,0,.6,0,.8v.8c.1.4,0,.6,0,.8.1.3,0,.6,0,.8v2.4c.1.4.4.8,1,1.1s.2.2.1.3,0,.2,0,.3,0,.2-.3.3c-1.2.2-2.5.2-3.7,0s-.3,0-.3-.2v-.6c0-.2.9-.3,1-1s0-.7,0-1.1l.2-5,.2-4.4c0-1.2.2-2.3.4-3.5s0-.2.2-.3c.1.2.1.3.2.5.3,1.2.4,2.4.5,3.6l.3,3.5v.2c.1.2,0,.5,0,.8h.2,0Z" data-active="1" style="fill: #0a0a0a;" />
        <path d="M24.2,42.9c-.1,0-.2-.2-.2-.3v-3.7l.2-3.9.2-2.2h.1v9.3c0,.3,0,.6-.3.8Z" data-active="1" style="fill: #f0edee;" />
        <path d="M25.1,42.3h0v-1.7h0v-1h0v-6.5c0,.2.1.5.1.7v.5l.3,3.4v3.2l.2,1.8v.3h-.1c-.2-.2-.3-.4-.5-.6h0Z" data-active="1" style="fill: #eaeaea;" />
        <path d="M25.1,42.3v-.2c-.1,0-.3-10.5-.3-10.5v-.3l.2.7s.1.2,0,.2h0c-.1,0,0,.7,0,.8v6.2h0v2.8h0v.3h.1Z" data-active="1" style="fill: #9c9c9c;" />
        <path d="M24.2,44c.2.3.5.6.7.9s0,.3,0,.5c-.2.4-.8.4-1.4.5.9-.7.2-1.1.9-1.9h-.2Z" data-active="1" style="fill: #c7c7c7;" />
        <path d="M25.6,44c.5.4.3.7.4,1v.2c0,.2.3.5.6.7h-.9c-.7-.2-.8-.8-.7-1s.4-.6.6-.8h0Z" data-active="1" style="fill: #b5b4b6;" />
        <path d="M25,46c.4,0,1.7,0,2,.2v.5h-1.5c-.5,0-.4,0-.4-.2v-.4h-.1Z" data-active="1" style="fill: #bababa;" />
        <path d="M23.5,46.6v-.5h1.3c0,.2,0,.4-.2.5s-.8,0-1.2,0h.1Z" data-active="1" style="fill: #cdcdcd;" />
        <path d="M23.6,46.9h2.8c0,0,0,0,0,0h-2.7c-.9,0,0,0-.1,0s0,0,0,0Z" data-active="1" style="fill: #9da1a2;" />
        <path d="M23.5,46.1v.5h-.6v-.5c.2,0,.5,0,.7-.2h-.1v.2Z" data-active="1" style="fill: #8b8d8c;" />
        <path d="M24.5,43.3c.1,0,.2,0,.3.2l-.3.2s-.2,0-.2-.2c0,0,.1,0,.2-.2Z" data-active="1" style="fill: #acaaac;" />
        <path d="M25.3,43.3h.2l-.2.2c-.1,0-.2,0-.3-.2h.3Z" data-active="1" style="fill: #b2b0b3;" />
        <path d="M24.2,43.5h.2s-.1,0-.2.2h-.2c-.1,0,0,0,.2-.2Z" data-active="1" style="fill: #e4e1e2;" />
        <path d="M25.3,43.7c-.2.2-.1.2-.3.3v-.4l.3.2h0Z" data-active="1" style="fill: #8b8989;" />
        <path d="M24.2,43.1h.2v.2h-.3s0-.2.2-.2h-.1Z" data-active="1" style="fill: #e3e3e3;" />
        <path d="M25.4,43.7h.4c.1,0,0,0-.1.2,0,0-.2,0-.2-.2h-.1Z" data-active="1" style="fill: #cacaca;" />
        <path d="M24.6,43.7c.1,0,.2,0,.3-.2v.4c-.1,0-.2,0-.3-.2Z" data-active="1" style="fill: #7a797b;" />
        <path d="M25.4,43.2h.3s0,.2-.1,0-.1,0-.2,0Z" data-active="1" style="fill: #d2d1d3;" />
        <path d="M24.6,43.2c.1,0,.2,0,.3-.2v.3h-.3Z" data-active="1" style="fill: #7f7e80;" />
        <path d="M25,43.3s0-.6,0-.2c0,0,.2,0,.1,0h-.2.1v.2Z" data-active="1" style="fill: #7c7b7f;" />
        </g>
      </g>
    <g id="calculus" data-active="1" style="display: none;">
      <path id="calculus-shape-8" d="M23.2,35.4c.4.1.8-.2.9-.4.3-.2.4-.6-.1-.7-.7-.2-1.4.8-.8,1.1h0Z" data-active="1" style="fill: #c4ff98;" />
      <path id="calculus-shape-7" d="M16,35.2c-.1.4.2.8.4.9.2.3.6.4.7-.1.2-.7-.8-1.4-1.1-.8h0Z" data-active="1" style="fill: #c4ff98;" />
      <path id="calculus-shape-6" d="M14,36.5c.5.2,1.1-.3,1.4-.6.4-.3.7-.9-.1-1.1-1-.3-2.1,1.2-1.3,1.7h0Z" data-active="1" style="fill: #9e1f63;" />
      <path id="calculus-shape-5" d="M15.8,36.8c-.5.2-.6,1-.7,1.3,0,.5,0,1.1.8.8.9-.4.8-2.3-.2-2.1h0Z" data-active="1" style="fill: #9e1f63;" />
      <path id="calculus-shape-4" d="M13.7,39.1c.5-.2.7-.9.7-1.3.1-.5,0-1.1-.8-.8-1,.4-.9,2.2,0,2.1h0Z" data-active="1" style="fill: #9e1f63;" />
      <path id="calculus-shape-3" d="M24.8,34.5c-.1.5.4,1.1.6,1.3.4.4.9.6,1.1-.2.2-1-1.3-2-1.8-1.2h0Z" data-active="1" style="fill: #9e1f63;" />
      <path id="calculus-shape-2" d="M23.4,37.9c.5,0,.9-.7,1.1-1,.3-.5.4-1-.5-1-1,0-1.6,1.8-.7,2h0Z" data-active="1" style="fill: #9e1f63;" />
      <path id="calculus-shape-1" d="M26,39c.5-.1.7-.9.8-1.2.2-.5,0-1.1-.7-.9-1,.3-1,2.2-.1,2.1h0Z" data-active="1" style="fill: #9e1f63;" />
      </g>
    </g>
  </svg>
