<?xml version='1.0' encoding='utf-8'?>
<!-- Created by Zoltan Dul in 2026 - free to use with MIT license. Part of React Odontogram Modul - https://github.com/ZoliQua/React-Odontogram-Modul - SVG Version: 2.1.4 -->
<svg xmlns="http://www.w3.org/2000/svg" id="canine_x5F_tooth" version="1.1" viewBox="0 0 39.1 64.9">
  <style>
    [data-active="0"] { display: none; }
  </style>
  <defs>
    <linearGradient id="linear-gradient-13-0" x1="-1451.1" y1="-7070.2" x2="-1447.8" y2="-7070.2" gradientTransform="translate(-409.5494 -7184.2125) rotate(-15) scale(1 -1)" gradientUnits="userSpaceOnUse" data-active="1">
      <stop offset=".2" stop-color="#ff422a" stop-opacity=".5" data-active="1" />
      <stop offset="1" stop-color="#000" data-active="1" />
      </linearGradient>
    <linearGradient id="linear-gradient-13-1" x1="-19742.1" y1="2808.4" x2="-19738.8" y2="2808.4" gradientTransform="translate(-18390.5255 -7643.689) rotate(-165.5) scale(1 -1)" gradientUnits="userSpaceOnUse" data-active="1">
      <stop offset=".2" stop-color="#ff422a" stop-opacity=".5" data-active="1" />
      <stop offset="1" stop-color="#000" data-active="1" />
      </linearGradient>
    <linearGradient id="linear-gradient-13-2" x1="-647.1" y1="-6099.7" x2="-643.8" y2="-6099.7" gradientTransform="translate(-114.2863 -6116.906) rotate(-7.3) scale(1 -1)" gradientUnits="userSpaceOnUse" data-active="1">
      <stop offset=".2" stop-color="#ff422a" stop-opacity=".5" data-active="1" />
      <stop offset="1" stop-color="#000" data-active="1" />
      </linearGradient>
    <linearGradient id="linear-gradient-13-3" x1="-19291.3" y1="4176.7" x2="-19288" y2="4176.7" gradientTransform="translate(-18696.2491 -6255.5952) rotate(-173.7) scale(1 -1)" gradientUnits="userSpaceOnUse" data-active="1">
      <stop offset=".2" stop-color="#ff422a" stop-opacity=".5" data-active="1" />
      <stop offset="1" stop-color="#000" data-active="1" />
      </linearGradient>
    <linearGradient id="linear-gradient-13-4" x1="-1837.6" y1="-7525" x2="-1834.3" y2="-7525" gradientTransform="translate(-383.1168 -7726.2465) rotate(-16.7) scale(1 -1)" gradientUnits="userSpaceOnUse" data-active="1">
      <stop offset=".2" stop-color="#ff422a" stop-opacity=".5" data-active="1" />
      <stop offset="1" stop-color="#000" data-active="1" />
      </linearGradient>
    <linearGradient id="linear-gradient-13-5" x1="-19139.4" y1="-589.3" x2="-19136.1" y2="-589.3" gradientTransform="translate(-18221.3193 -10522.9999) rotate(-148.4) scale(1.1 -1)" gradientUnits="userSpaceOnUse" data-active="1">
      <stop offset=".2" stop-color="#ff422a" stop-opacity=".5" data-active="1" />
      <stop offset="1" stop-color="#000" data-active="1" />
      </linearGradient>
    <linearGradient id="linear-gradient-13-6" x1="-19137.4" y1="-592.5" x2="-19134" y2="-592.5" gradientTransform="translate(-18221.3193 -10522.9999) rotate(-148.4) scale(1.1 -1)" gradientUnits="userSpaceOnUse" data-active="1">
      <stop offset=".2" stop-color="#ff422a" stop-opacity=".5" data-active="1" />
      <stop offset="1" stop-color="#000" data-active="1" />
      </linearGradient>
    <linearGradient id="linear-gradient-13-7" x1="-7084.9" y1="-10362.2" x2="-7081.4" y2="-10362.2" gradientTransform="translate(-2444.0132 -12726.5433) rotate(-47.9) scale(1.1 -1)" gradientUnits="userSpaceOnUse" data-active="1">
      <stop offset=".2" stop-color="#ff422a" stop-opacity=".5" data-active="1" />
      <stop offset="1" stop-color="#000" data-active="1" />
      </linearGradient>
    <linearGradient id="linear-gradient-13-8" x1="19.6" y1="3033.2" x2="19.6" y2="3080.1" gradientTransform="translate(0 -3032.6929)" gradientUnits="userSpaceOnUse" data-active="1">
      <stop offset="0" stop-color="#ff422a" data-active="1" />
      <stop offset="1" stop-color="#9f0016" data-active="1" />
      </linearGradient>
    <linearGradient id="linear-gradient-13-9" x1="-2414.9" y1="-7933.7" x2="-2411.6" y2="-7933.7" gradientTransform="translate(-1130.3829 -8191.8506) rotate(-24.9) scale(1 -1)" gradientUnits="userSpaceOnUse" data-active="1">
      <stop offset=".2" stop-color="#ff422a" stop-opacity=".5" data-active="1" />
      <stop offset="1" stop-color="#000" data-active="1" />
      </linearGradient>
    <linearGradient id="linear-gradient-13-10" x1="-19955.7" y1="1084.1" x2="-19952.4" y2="1084.1" gradientTransform="translate(-17127.4996 -10247.696) rotate(-152.2) scale(1 -1)" gradientUnits="userSpaceOnUse" data-active="1">
      <stop offset=".2" stop-color="#ff422a" stop-opacity=".5" data-active="1" />
      <stop offset="1" stop-color="#000" data-active="1" />
      </linearGradient>
    <linearGradient id="linear-gradient-13-11" x1="-647.1" y1="-6099.7" x2="-643.8" y2="-6099.7" gradientTransform="translate(-114.2863 -6116.906) rotate(-7.3) scale(1 -1)" gradientUnits="userSpaceOnUse" data-active="1">
      <stop offset=".2" stop-color="#ff422a" stop-opacity=".5" data-active="1" />
      <stop offset="1" stop-color="#000" data-active="1" />
      </linearGradient>
    <linearGradient id="linear-gradient-13-12" x1="-19291.3" y1="4176.7" x2="-19288" y2="4176.7" gradientTransform="translate(-18696.2491 -6255.5952) rotate(-173.7) scale(1 -1)" gradientUnits="userSpaceOnUse" data-active="1">
      <stop offset=".2" stop-color="#ff422a" stop-opacity=".5" data-active="1" />
      <stop offset="1" stop-color="#000" data-active="1" />
      </linearGradient>
    <linearGradient id="linear-gradient-13-13" x1="-1837.9" y1="-7525.9" x2="-1834.6" y2="-7525.9" gradientTransform="translate(-383.1168 -7726.2465) rotate(-16.7) scale(1 -1)" gradientUnits="userSpaceOnUse" data-active="1">
      <stop offset=".2" stop-color="#ff422a" stop-opacity=".5" data-active="1" />
      <stop offset="1" stop-color="#000" data-active="1" />
      </linearGradient>
    <linearGradient id="linear-gradient-13-14" x1="-19139.5" y1="-588.6" x2="-19136.2" y2="-588.6" gradientTransform="translate(-18221.3193 -10522.9999) rotate(-148.4) scale(1.1 -1)" gradientUnits="userSpaceOnUse" data-active="1">
      <stop offset=".2" stop-color="#ff422a" stop-opacity=".5" data-active="1" />
      <stop offset="1" stop-color="#000" data-active="1" />
      </linearGradient>
    <linearGradient id="linear-gradient-13-15" x1="-19137.4" y1="-592.5" x2="-19134" y2="-592.5" gradientTransform="translate(-18221.3193 -10522.9999) rotate(-148.4) scale(1.1 -1)" gradientUnits="userSpaceOnUse" data-active="1">
      <stop offset=".2" stop-color="#ff422a" stop-opacity=".5" data-active="1" />
      <stop offset="1" stop-color="#000" data-active="1" />
      </linearGradient>
    <linearGradient id="linear-gradient-13-16" x1="-7086.2" y1="-10364.4" x2="-7082.7" y2="-10364.4" gradientTransform="translate(-2444.0132 -12726.5433) rotate(-47.9) scale(1.1 -1)" gradientUnits="userSpaceOnUse" data-active="1">
      <stop offset=".2" stop-color="#ff422a" stop-opacity=".5" data-active="1" />
      <stop offset="1" stop-color="#000" data-active="1" />
      </linearGradient>
    <linearGradient id="linear-gradient-13-17" x1="19.4" y1="3068.4" x2="19.4" y2="3078.1" gradientTransform="translate(0 -3032.6929)" gradientUnits="userSpaceOnUse" data-active="1">
      <stop offset=".2" stop-color="#cf0" stop-opacity=".5" data-active="1" />
      <stop offset="1" stop-color="#b4c500" data-active="1" />
      </linearGradient>
    <linearGradient id="linear-gradient-13-18" x1="19.2" y1="3064.6" x2="19.2" y2="3072.1" gradientTransform="translate(0 -3032.6929)" gradientUnits="userSpaceOnUse" data-active="1">
      <stop offset="0" stop-color="#c8c9c9" data-active="1" />
      <stop offset="1" stop-color="#828282" data-active="1" />
      </linearGradient>
    <radialGradient id="radial-gradient-13-0" cx="20.9" cy="-3026.1" fx="20.9" fy="-3026.1" r="11.5" gradientTransform="translate(-.3 -2979.3071) scale(1 -1)" gradientUnits="userSpaceOnUse" data-active="1">
      <stop offset="0" stop-color="#fff" data-active="1" />
      <stop offset="0" stop-color="#ececec" data-active="1" />
      <stop offset=".3" stop-color="#cfcfcf" data-active="1" />
      <stop offset=".6" stop-color="#bababa" data-active="1" />
      <stop offset=".8" stop-color="#aeaeae" data-active="1" />
      <stop offset="1" stop-color="#aaa" data-active="1" />
      </radialGradient>
    <radialGradient id="radial-gradient-13-1" cx="-520" cy="-3026.8" fx="-520" fy="-3026.8" r="10.2" gradientTransform="translate(747.9104 -2979.3071) scale(1.4 -1)" gradientUnits="userSpaceOnUse" data-active="1">
      <stop offset="0" stop-color="#fff" data-active="1" />
      <stop offset="0" stop-color="#fefefe" data-active="1" />
      <stop offset=".2" stop-color="#f8d6d4" data-active="1" />
      <stop offset=".3" stop-color="#f2b5b2" data-active="1" />
      <stop offset=".5" stop-color="#ee9b98" data-active="1" />
      <stop offset=".6" stop-color="#eb8985" data-active="1" />
      <stop offset=".8" stop-color="#e97e79" data-active="1" />
      <stop offset="1" stop-color="#e97b76" data-active="1" />
      </radialGradient>
    <linearGradient id="linear-gradient-13-19" x1="19.1" y1="3085.9" x2="19.1" y2="3076.2" gradientTransform="translate(0 -3032.6929)" gradientUnits="userSpaceOnUse" data-active="1">
      <stop offset="0" stop-color="#f9ae94" data-active="1" />
      <stop offset=".5" stop-color="#cd986a" data-active="1" />
      <stop offset="1" stop-color="#f9ae94" data-active="1" />
      </linearGradient>
    <radialGradient id="radial-gradient-13-2" cx="19.8" cy="-997.8" fx="19.8" fy="-997.8" r="12.4" gradientTransform="translate(0 -951.3) scale(1 -1)" gradientUnits="userSpaceOnUse" data-active="1">
      <stop offset="0" stop-color="#fff" data-active="1" />
      <stop offset="0" stop-color="#fdf3ea" data-active="1" />
      <stop offset=".2" stop-color="#f9d8b9" data-active="1" />
      <stop offset=".3" stop-color="#f5c18f" data-active="1" />
      <stop offset=".4" stop-color="#f2ae6c" data-active="1" />
      <stop offset=".6" stop-color="#f09f52" data-active="1" />
      <stop offset=".7" stop-color="#ef953f" data-active="1" />
      <stop offset=".9" stop-color="#ee8f33" data-active="1" />
      <stop offset="1" stop-color="#ee8d30" data-active="1" />
      </radialGradient>
    </defs>
  <g id="base" data-active="1">
    <path id="bone-base" d="M36.8,16.2l-2.5,1.2c-2.3,1.4,0,8.6-1.8,10.8,0,4.4-4.1,3.5-5.3,3.4-3.5-.2-11.7,0-15.8,0s-4.5-2.9-4.6-2.8c-1.9,0-2-11.4-2-11.4l-1.3-2c-.2-.4-2.1-.9-2.1-1.4V0h35.5v16.2h-.1Z" data-active="1" style="fill: #fdecc5;" />
    <path id="gum-base" d="M37.3,17.2c-1,1-2.5,1.7-3,3-1,3.5-.2,7.6-1.5,11-1.9,5.1-5.6.4-9.2.5-3.6,0-7.6-.2-11,.5-2.1.6-4.3,2.6-6.5,1.2-5.3-3.7-1.7-12.6-3.7-17.6-.2-.9-1.9-2.3-1-2.8,1-.5,3.8,1,4.2,2.2,1.9,3.7-1.8,13.9,3.2,15.2,2.4.3,7.7-.6,12.2-.9,3.4-.6,8.7.9,10.5-2.3,1.9-3.2-.1-8.1,2.3-11.1,2.4-3,5.1-1.2,3.5.9h0v.2h0Z" data-active="1" style="fill: #f79f9a;" />
    </g>
  <g id="mods" data-active="1">
    <path id="parodontal" d="M10,27.6c-.5,1.7-1.9,4.6-1.1,5.8.5.7,1.3.9,2.1,1.1,1.8.4,3.8.7,5.5,1,4.2,1,9.6.8,12.3-3.1.9-2.1-.4-4.4-.7-6.6-1.5-6.7.9-18.5-9.3-17.4-8.2,1.1-6.4,13.3-8.7,18.9v.2h-.1,0Z" data-active="1" style="display: none; fill: #ffa46a;" />
    <g id="inflammation" data-active="1">
      <g id="cysta" data-active="1" style="display: none;">
        <path id="cysta-outside" d="M9.5,2.8c-2.7,2.4-1.6,8.8,1.6,10.6s4.9,1.8,7.1,2c4.2.4,11.6-.5,13.1-6.4C32.9,1.8,24.7,0,19,.3c-3,0-7.2.5-9.5,2.6Z" data-active="1" style="fill: #ffa46a;" />
        <path id="cysta-inside" d="M11,3.3c-2.3,2.2-1.3,7.9,1.3,9.4s4.3,1.5,6,1.8c3.6.3,9.9-.4,11.2-5.6C30.9,2.2,24,.7,19.2.9c-2.5,0-6.1.4-8.1,2.3h-.1Z" data-active="1" style="fill: #feffd5;" />
        </g>
      <g id="granuloma" data-active="1" style="display: none;">
        <path id="granuloma-outside" d="M11.9,2.2c-2.1,2-1.3,7.4,1.3,8.9s3.8,1.5,5.5,1.7c3.3.3,9-.4,10.2-5.3C30.1,1.3,23.8-.2,19.3,0c-2.3,0-5.6.4-7.4,2.2Z" data-active="1" style="fill: #ffa46a;" />
        <path id="granuloma-inside" d="M13.1,2.9c-1.8,1.7-1,6,1,7.2s3.3,1.2,4.6,1.3c2.8.3,7.5-.3,8.5-4.3,1.1-5.1-4.2-6.3-7.8-6.1-1.9,0-4.7.3-6.2,1.8h0Z" data-active="1" style="fill: #feffd5;" />
        </g>
      <g id="abscess" data-active="1" style="display: none;">
        <path id="abscess-inside" d="M11.4,3.7c-.9.7-2.5-1.6-5.8,1.2s4.4,2,4.8,4.5-2.3,2.8-1.7,3.2,6.6-1.8,7.1-1.7c1.1.4,2,.4,2.9.5,1.3.1,3,0,4.5-.4s2.6.3,3.3-.4,7.5-.6,7.3-1.4-4.3-2.9-4.2-3.4c.2-.9,3.6-3.3,3.4-3.9s-6.4,1.7-7,1.2-.3-1.7-.7-1.9c-.7-.3-1.8,0-2.6-.2s-2.3-.4-3.3-.4c-1.2,0-2.5.2-3.9.6s-1.8.9-2.4,1.5l-1.4-1-.3,1.9Z" data-active="1" style="fill: #feffd5; stroke: #ffa46a; stroke-miterlimit: 10;" />
        </g>
      </g>
    <g id="mobility" data-active="1" style="display: none;">
      <path id="tooth-mobility-2" d="M23.5,12.9l2.9-1.7c-.9,1.8-1.7,3.6-2.6,5.4,1.1-.6,2.1-1.2,3.2-1.7-1.2,2.1-2.3,4.3-3.3,6.5,1.3-.4,2.5-.9,3.8-1.3-1,1.6-2,3.2-3,4.8.8-.3,1.6-.5,2.4-.7-.6,1.3-1.3,2.5-2,3.7,1-.6,2-1,3.1-1.3-.8,1.2-1.6,2.5-2.2,3.8.7-.3,1.4-.5,2.2-.6-.8,1-1.5,2-2.3,2.9" data-active="1" style="fill: none; stroke: #f99; stroke-miterlimit: 10; stroke-width: .8px;" />
      <path id="tooth-mobility-1" d="M12.5,12c1-.3,2.1,0,3,1-1.4,1.1-2.8,2.2-4.2,3.1,1.3,0,2.6.2,3.8.7-1.3,1-2.7,2.2-3.9,3.4,1,.1,1.9.4,2.8.8-.9.8-1.9,1.6-2.8,2.4.7,0,1.5.3,2.1.9-.9,1.1-1.8,2.4-2.7,3.7.9-.1,1.8-.3,2.7-.4-1.4,1-2.6,2.4-3.7,4,.7.2,1.5.3,2.2.2" data-active="1" style="fill: none; stroke: #f99; stroke-miterlimit: 10; stroke-width: .8px;" />
      </g>
    </g>
  <g id="tooth-variants" data-active="1">
    <path id="no-tooth-after-extraction" d="M19.7,31.5c1.8-.6,8.2,1.3,7.6-.4-3-8.1-.6-32.3-9-28.8-4.3,1.8-4,18.8-4.3,28.5-.3,9.7,2.9,1.4,5.7.7Z" data-active="1" style="display: none; fill: #fff; stroke: #f99; stroke-miterlimit: 10; stroke-width: .2px;" />
    <path id="tooth-under-gum" d="M15.6.8c-.2.6-.4,1.3-.5,2,0,2.5.5,5.2.7,7.6.5,3.1-.1,5.9.3,8.9.2,1.9,1.4,3.4,2.5,4.9,1.3,2.1,3.6,5.4,6.1,3.7,2-1.6,2.3-6.4,2-8.8-.2-1.7-.8-3.6-2-4.9s-2-1.8-2.5-3.2c-1-2-2.3-5.9-3.3-7.8-.5-1.1-1.4-1.8-2.4-2.4" data-active="1" style="display: none; fill: #ebebeb; stroke: #c8c9c9; stroke-miterlimit: 10;" />
    <path id="tooth-broken-inicisal" d="M18.4,1.8c-.7,1.2-1.6,2.5-2.1,3.9-1.6,5-1.9,11-2.9,16-.7,6.7-3.6,11.9-4.6,18.3-.7,4.1.9,7.7,2.3,11.5.6,2.1,1.4,4.8,2.7,7s2.6-1.3,3.4-.5,0-3.6,1.1-3.5,2.4-3.1,3.3-3.4c.7-.3.7,6.6,1.3,6s2.1,2.4,2.8,1.4c2.6-3.9,4.3-9.4,4.8-12.8.5-3.6.5-7.8-1.2-11.2s-3-4.9-3.3-8.1c-.8-4.7-1.3-13.3-2.3-17.9-.4-2.6-1.9-4.6-3.6-6.4" data-active="1" style="display: none; fill: #ebebeb; stroke: #c8c9c9; stroke-miterlimit: 10;" />
    <path id="tooth-broken-mesial-distal-inicisal" d="M18.4,1.8c-.7,1.2-1.6,2.5-2.1,3.9-1.6,5-1.9,11-2.9,16-.6,5.7-2.8,10.3-4,15.5s2.8,2.1,2.7,3.1c-.3,1.7,2.1,2.6,2.5,4.2s-.3,3.2,0,4.3-4,2.9-3.5,4c.6,2.2,5.1-.7,6.4,1.2s-1.3,3.7,0,4.3c1.3.6,2.3,4.7,4.1,4.1,1-.4-.4-2.5.5-3.5s4.2-1.1,5-2.5c1.5-2.7-1.5-.5-1.3-1.6.3-2.6-3.1-2.2-3.4-2.8s.7-3.6.9-4.3c.3-1.1,4.9-1.2,5-2.1.2-1.7,2.8-3.4,2.7-5.2s-.5-4.1-1.5-6c-1.4-2.8-3-4.9-3.3-8.1-.8-4.7-1.3-13.3-2.3-17.9-.4-2.6-1.9-4.6-3.6-6.4" data-active="1" style="display: none; fill: #ebebeb; stroke: #c8c9c9; stroke-miterlimit: 10;" />
    <path id="tooth-broken-mesial-distal" d="M18.4,1.8c-.7,1.2-1.6,2.5-2.1,3.9-1.6,5-1.9,11-2.9,16-.6,5.7-2.8,10.3-4,15.5s2.8,2.1,2.7,3.1c-.3,1.7,2.1,2.6,2.5,4.2s-.3,3.2,0,4.3-4,2.9-3.5,4c1.4,5.1,4.2,11.9,10.3,9.7,2.1-.9,4-3.3,5.5-6s-1.5-.5-1.3-1.6c.3-2.6-3.1-2.2-3.4-2.8s.7-3.6.9-4.3c.3-1.1,4.9-1.2,5-2.1.2-1.7,2.8-3.4,2.7-5.2s-.5-4.1-1.5-6c-1.4-2.8-3-4.9-3.3-8.1-.8-4.7-1.3-13.3-2.3-17.9-.4-2.6-1.9-4.6-3.6-6.4" data-active="1" style="display: none; fill: #ebebeb; stroke: #c8c9c9; stroke-miterlimit: 10;" />
    <path id="tooth-broken-mesial-inicisal" d="M18.4,1.8c-.7,1.2-1.6,2.5-2.1,3.9-1.6,5-1.9,11-2.9,16-.7,6.7-3.6,11.9-4.6,18.3-.7,4.1.9,7.7,2.3,11.5,1.4,5.1,4.2,13.2,10.3,11,.9-.4-3.4-1.5-2.6-2.3s1.8-.3,2.6-1.9.4-2.1.8-3c.7-1.6,2.9-2.7,3.3-4.2s-2.3-1.6-2.2-2.7c.1-.9,2.9-4.6,3-5.5s4.6-1.7,4.5-2.5c-.1-2.1-.5-4.2-1.5-6.1-1.4-2.8-3-4.9-3.3-8.1-.8-4.7-1.3-13.3-2.3-17.9-.4-2.6-1.9-4.6-3.6-6.4" data-active="1" style="display: none; fill: #ebebeb; stroke: #c8c9c9; stroke-miterlimit: 10;" />
    <path id="tooth-broken-mesial" d="M18.4,1.8c-.7,1.2-1.6,2.5-2.1,3.9-1.6,5-1.9,11-2.9,16-.7,6.7-3.6,11.9-4.6,18.3-.7,4.1.9,7.7,2.3,11.5,1.4,5.1,4.2,13.2,10.3,11,2.1-.9,4-3.3,5.5-6s-1.5-.5-1.3-1.6c.3-2.6-3.1-2.2-3.4-2.8s.7-3.6.9-4.3c.3-1.1,4.9-1.2,5-2.1.2-1.7,2.8-3.4,2.7-5.2s-.5-4.1-1.5-6c-1.4-2.8-3-4.9-3.3-8.1-.8-4.7-1.3-13.3-2.3-17.9-.4-2.6-1.9-4.6-3.6-6.4" data-active="1" style="display: none; fill: #ebebeb; stroke: #c8c9c9; stroke-miterlimit: 10;" />
    <path id="tooth-broken-distal-inicisal" d="M18.4,1.8c-.7,1.2-1.6,2.5-2.1,3.9-1.6,5-1.9,11-2.9,16-.6,5.9-2.9,10.5-4.1,16s-.3,1.6-.5,2.4c0,.8-.2,1.6-.2,2.4s0,1.7.3,2.5c.2.8,5.7-.4,6,.6s.1,4.2.6,5.4c.2.7,2.6,2.2,2.8,3.1.6,1.7-.3,3,.6,4.6s1.6,0,2.7.6-2,4-.3,3.4c4.9-2.1,8.4-11.8,9.1-16.8.5-3.6.5-7.8-1.2-11.2s-3-4.9-3.3-8.1c-.8-4.7-1.3-13.3-2.3-17.9-.4-2.6-1.9-4.6-3.6-6.4" data-active="1" style="display: none; fill: #ebebeb; stroke: #c8c9c9; stroke-miterlimit: 10;" />
    <path id="tooth-broken-distal" d="M18.4,1.8c-.7,1.2-1.6,2.5-2.1,3.9-1.6,5-1.9,11-2.9,16-.6,6-3,10.8-4.2,16.3s1.7.9,1.6,1.6c0,1.9,5.4,1.1,1.1,5.5-.6.7,1.9,1.2,2.4,2,.7,1,4.6,3,1.5,4.6.1.5-.7,2-.6,2.5.3.8-3,.6-2.7,1.4,1.7,4.3,4.4,8.5,9,6.9,4.9-2.1,8.4-11.8,9.1-16.8.5-3.6.5-7.8-1.2-11.2s-3-4.9-3.3-8.1c-.8-4.7-1.3-13.3-2.3-17.9-.4-2.6-1.9-4.6-3.6-6.4" data-active="1" style="display: none; fill: #ebebeb; stroke: #c8c9c9; stroke-miterlimit: 10;" />
    <path id="tooth-crownprep" d="M18.4,1.8c-3.8,5.6-3.6,13.4-4.9,19.7-.5,4.9-1.9,8.5-3,12.5-.3,1.3-1.1,2.9-1,4.3.5.6,4.1-.9,5.3.5.9,1,0,2.4.3,3.5.8,2.9,4.4,1.8,6.8,1.7.5,0,1.6,0,2-.3,2-1.2-.3-4.8.5-5.5.4-.3,4.1-.5,5.4-1.2s-3.3-7.3-3.7-10.6c-.6-3.6-1-9.2-1.6-13.8-.4-4.1-1.3-7.8-4.3-10.5" data-active="1" style="display: none; fill: #ebebeb; stroke: #c8c9c9; stroke-miterlimit: 10;" />
    <path id="tooth-radix" d="M18.4,1.8c-3.8,5.6-3.6,13.4-4.9,19.7-.5,4.9-4.1,13.2-4,14.6.5.6,8.4,7.8,10.3,8.3,2.3-.4,8.2-8.1,9.5-8.8s-2.7-5.9-3.1-9.2c-.6-3.6-1-9.2-1.6-13.8-.4-4.1-1.3-7.8-4.3-10.5" data-active="1" style="display: none; fill: #ebebeb; stroke: #c8c9c9; stroke-miterlimit: 10;" />
    </g>
  <g id="tooth" data-active="1">
    <path id="tooth-base" d="M18.3,2.3c-.7,1.2-1.6,2.5-2.1,3.9-1.6,5-1.9,11-2.9,16-.7,6.7-3.6,11.9-4.6,18.3-.7,4.1.9,7.7,2.3,11.5,1.4,5.1,4.2,13.2,10.3,11,4.9-2.1,8.4-11.8,9.1-16.8.5-3.6.5-7.8-1.2-11.2s-3-4.9-3.3-8.1c-.8-4.7-1.3-13.3-2.3-17.9-.4-2.6-1.9-4.6-3.6-6.4" data-active="1" style="fill: #ebebeb; stroke: #c8c9c9; stroke-miterlimit: 10;" />
    <path id="tooth-base-beauty" d="M27.3,52.2c-.3,2.2-2.2,4.4-3.7,6.1-1,1.1-2,1.7-1.7.9v-.3c1.4-2.2,2.8-5.5,4.3-7.4.5-.4.9.2,1,.6h.1Z" data-active="1" style="fill: #fefefe;" />
    <g id="tooth-inflam-pulp" data-active="1" style="display: none;">
      <path id="tooth-inflam-pulp-base" d="M20.4,4.3c0,2.6-.5,5.3-.3,8,.1,3.9.1,9.1.4,13.2,0,2.6,1.1,4.8,1.6,7.6.4,2.7-.3,6.4-1.4,9.2-1.8,3.7-3.4-5.6-3.4-6.6-.2-3.2,1.3-6.7,1.6-9.6.2-4.2-.2-8.8.2-13.1.1-2.4.2-4.9-.4-7.7-.3-1.5-1.2-4,.2-4.9,1.8-.7,1.5,2.3,1.6,3.6v.2h-.1Z" data-active="1" style="fill: #ff422a;" />
      <path id="pulp-inflam-path-8" d="M22,19.7h0v-.2c-.3-.1-.6-.2-.8-.1-.6.2-1.3.3-1.8.6s-.9.7-.1.8,2.1-.2,2.7-1.1Z" data-active="1" style="fill: url(#linear-gradient-13-0);" />
      <path id="pulp-inflam-path-7" d="M16.6,17.5h0v.2c.1.2.3.4.6.5.6.2,1.3.3,1.9.4s1,0,.5-.6-2-.9-2.9-.4h-.1Z" data-active="1" style="fill: url(#linear-gradient-13-1);" />
      <path id="pulp-inflam-path-6" d="M22.3,15.1h0v-.2c-.2-.2-.5-.3-.7-.2-.6,0-1.3.1-1.9.4s-1,.5-.1.7,2.1,0,2.8-.7h0Z" data-active="1" style="fill: url(#linear-gradient-13-2);" />
      <path id="pulp-inflam-path-5" d="M16.6,12.4h0v.2c.1.2.4.4.6.4.6,0,1.3.2,1.9,0s1-.3.3-.7-2.1-.5-2.9,0h.1Z" data-active="1" style="fill: url(#linear-gradient-13-3);" />
      <path id="pulp-inflam-path-4" d="M22.3,8.5h0s0-.1-.1-.2c-.2-.1-.5-.1-.8-.1-.6,0-1.2.4-1.8.7s-.8.6,0,.7,2.1-.3,2.7-1.1Z" data-active="1" style="fill: url(#linear-gradient-13-4);" />
      <path id="pulp-inflam-path-3" d="M16.6,5.2h0v.2c0,.3.3.5.5.7.5.4,1.2.7,1.8.9s1.1.2.6-.5-1.7-1.4-2.8-1.4h-.1,0Z" data-active="1" style="fill: url(#linear-gradient-13-5);" />
      <path id="pulp-inflam-path-2" d="M16.3,1.3h0v.2c0,.3.3.5.5.7.5.4,1.2.7,1.8.9s1.1.2.6-.5-1.7-1.4-2.8-1.4h-.1,0Z" data-active="1" style="fill: url(#linear-gradient-13-6);" />
      <path id="pulp-inflam-path-1" d="M21.5,1h-.2c-.3,0-.5.2-.8.3-.5.4-.9,1-1.3,1.6s-.4,1,.3.7,1.7-1.4,1.9-2.6c0,0,.1,0,.1,0Z" data-active="1" style="fill: url(#linear-gradient-13-7);" />
      </g>
    <path id="tooth-healthy-pulp" d="M20.4,4.3c0,2.6-.5,5.3-.3,8,.1,3.9.1,9.1.4,13.2,0,2.6,1.1,4.8,1.6,7.6.4,2.7-.3,6.4-1.4,9.2-1.8,3.7-3.4-5.6-3.4-6.6-.2-3.2,1.3-6.7,1.6-9.6.2-4.2-.2-8.8.2-13.1.1-2.4.2-4.9-.4-7.7-.3-1.5-1.2-4,.2-4.9,1.8-.7,1.5,2.3,1.6,3.6v.2h-.1Z" data-active="1" style="fill: #fcc5bc;" />
    <path id="tooth-bruxism-wear" d="M16.4,55.1c.3.8.5,2.7,1.2,1,.2-.3.4-.8.7-.8.7.3.4,1.5.9,1.9.6.2,1.5-3,2.2-1.9.2.3.3.9.4,1.2.4,1.1,1-1.9,1.3-2.1.3-.5.5,0,.7.7.6,3.3.7,0,1.3-1h.3c2.3,2.4.7,6.5-2,7.9-2.3,1.4-5.5,2-7,.7-.9-.9-1.5-1.5-2.3-2.7-.8-1.5-3.2-5.7.1-5.8,1,0,1.7.2,2.1.8h.1Z" data-active="1" style="display: none; fill: #fff; stroke: #aaa; stroke-miterlimit: 10; stroke-width: .5px;" />
    <path id="tooth-bruxism-neck-wear" d="M23.4,47.5c-.3-.5-.5-1.5-1.2-.6-.2.2-.4.4-.7.4-.7-.2-.4-.9-.9-1.1-.6,0-1.5,1.7-2.2,1s-.3-.5-.4-.7c-.4-.6-1,1-1.3,1.1-.3.3-.5,0-.7-.4-.6-1.9-.7,0-1.3.5h-.3c-2.3-1.4-.6-3.7,2.1-4.4,2.3-.7,5.5-1,7-.2.9.5,1.5.9,2.3,1.6.8.9,3.1,3.3-.2,3.3s-1.7,0-2.1-.5h0Z" data-active="1" style="display: none; fill: #fff; stroke: #aaa; stroke-miterlimit: 10; stroke-width: .5px;" />
    </g>
  <g id="milktooth" data-active="1" style="display: none;">
    <path id="milktooth-base" d="M18.3,2.3c-.7,1.2-1.6,2.5-2.1,3.9-1.6,5-1.9,11-2.9,16-.7,6.7-3.6,11.9-4.6,18.3-.7,4.1.9,7.7,2.3,11.5,1.4,5.1,4.2,13.2,10.3,11,4.9-2.1,8.4-11.8,9.1-16.8.5-3.6.5-7.8-1.2-11.2s-3-4.9-3.3-8.1c-.8-4.7-1.3-13.3-2.3-17.9-.4-2.6-1.9-4.6-3.6-6.4" data-active="1" style="fill: #fff; stroke: #c8c9c9; stroke-miterlimit: 10;" />
    <path id="milktooth-beauty" d="M27.3,52.2c-.3,2.2-2.2,4.4-3.7,6.1-1,1.1-2,1.7-1.7.9v-.3c1.4-2.2,2.8-5.5,4.3-7.4.5-.4.9.2,1,.6h.1Z" data-active="1" style="fill: #eaeaea;" />
    <g id="milktooth-inflam-pulp" data-active="1" style="display: none;">
      <path id="tooth-inflam-pulp-base1" d="M20.5,4.7c0,2.9-.6,5.8-.4,8.8.1,4.3.1,10,.5,14.5,0,2.9,1.4,5.3,2,8.3.5,3-.4,7-1.8,10.1-2.3,4.1-4.3-6.1-4.3-7.2-.3-3.5,1.7-7.3,2-10.5.3-4.6-.3-9.6.3-14.3.1-2.6.3-5.4-.5-8.4-.4-1.6-1.5-4.4.3-5.4,2.3-.8,1.9,2.5,2,3.9v.2s-.1,0,0,0h0Z" data-active="1" style="fill: url(#linear-gradient-13-8);" />
      <path id="pulp-inflam-path-81" d="M22.2,19.9h0v-.2h-.8c-.6.3-1.2.5-1.7.9s-.8.8,0,.8,2-.6,2.5-1.5Z" data-active="1" style="fill: url(#linear-gradient-13-9);" />
      <path id="pulp-inflam-path-71" d="M16.8,17.1h0v.2c0,.2.2.5.4.6.5.3,1.2.6,1.8.8s1,.2.6-.5-1.7-1.3-2.7-1.1c0,0-.1,0,0,0h0Z" data-active="1" style="fill: url(#linear-gradient-13-10);" />
      <path id="pulp-inflam-path-61" d="M22.3,15.1h0v-.2c-.2-.2-.5-.3-.7-.2-.6,0-1.3.1-1.9.4s-1,.5-.1.7,2.1,0,2.8-.7h0Z" data-active="1" style="fill: url(#linear-gradient-13-11);" />
      <path id="pulp-inflam-path-51" d="M16.6,12.4h0v.2c.1.2.4.4.6.4.6,0,1.3.2,1.9,0s1-.3.3-.7-2.1-.5-2.9,0h.1Z" data-active="1" style="fill: url(#linear-gradient-13-12);" />
      <path id="pulp-inflam-path-41" d="M22.3,9.5h0s0-.1-.1-.2c-.2-.1-.5-.1-.8-.1-.6,0-1.2.4-1.8.7s-.8.6,0,.7,2.1-.3,2.7-1.1Z" data-active="1" style="fill: url(#linear-gradient-13-13);" />
      <path id="pulp-inflam-path-31" d="M16.3,5.9h0v.2c0,.3.3.5.5.7.5.4,1.2.7,1.8.9s1.1.2.6-.5-1.7-1.4-2.8-1.4h-.1,0Z" data-active="1" style="fill: url(#linear-gradient-13-14);" />
      <path id="pulp-inflam-path-21" d="M16.3,1.3h0v.2c0,.3.3.5.5.7.5.4,1.2.7,1.8.9s1.1.2.6-.5-1.7-1.4-2.8-1.4h-.1,0Z" data-active="1" style="fill: url(#linear-gradient-13-15);" />
      <path id="pulp-inflam-path-11" d="M22.2,3.5h-.2c-.3,0-.5.2-.8.3-.5.4-.9,1-1.3,1.6s-.4,1,.3.7,1.7-1.4,1.9-2.6h.1Z" data-active="1" style="fill: url(#linear-gradient-13-16);" />
      </g>
    <path id="milktooth-healthy-pulp" d="M20.2,13.5c.1,4.3.1,10,.5,14.5,0,2.9,1.4,5.3,2.1,8.3.5,3-.4,7-1.8,10.1-2.4,4.1-4.5-6.1-4.5-7.2-.3-3.5,1.7-7.3,2.1-10.5.3-4.6-.3-9.6.3-14.3.1-2.6.3-5.4-.5-8.4-.4-1.6-1.6-4.4.3-5.4,2.4-.8,2,2.5,2.1,3.9v.2s-.8,5.8-.5,8.8c0,0-.1,0-.1,0Z" data-active="1" style="fill: #fcc5bc;" />
    </g>
  <g id="endos" data-active="1">
    <path id="endo-medical-filling" d="M19.4,1.8c.9,2.9,1.2,9.1,1.6,12.8.5,5.1,2,19,2.5,24.2.3,5.7-6.4,6.6-6.2-1.9.4-7.5.6-20.5.7-27.6,0-1.2.3-11.1,1.4-7.7h0s0,.2,0,.2Z" data-active="1" style="display: none; fill: #fff; stroke: #f9ae94; stroke-miterlimit: 10; stroke-width: .2px;" />
    <path id="endo-filling-incomplete" d="M19.4,15.7c.9,1.9,1.2,5.9,1.6,8.4.5,3.3,2,12.4,2.5,15.8.3,3.8-7,5.1-6.8-.4.4-4.9,1.2-14.2,1.3-18.8,0-.8.3-7.3,1.4-5.1h0Z" data-active="1" style="display: none; fill: #388aca;" />
    <path id="endo-filling" d="M19.4,1.8c.9,2.8,1.2,8.9,1.6,12.6.5,5,2,18.7,2.5,23.8.3,5.7-7,7.7-6.8-.6.4-7.4,1.2-21.4,1.3-28.4,0-1.2.3-11,1.4-7.6h0s0,.2,0,.2Z" data-active="1" style="display: none; fill: #388aca;" />
    <path id="endo-glass-pin" d="M19.6,8.5c.8,1.9,1.1,5.8,1.4,8.2.4,3.2,1.8,12.2,2.2,15.5.2,3.7,6,11.1,2.2,14.6-3.5,3.3-12.8,2.7-12.1-3.9.7-5.2,3.6-9.4,3.8-14.8.4-4.8.9-10.2,1.1-14.8,0-.8.3-7.1,1.4-5h0s0,.2,0,.2Z" data-active="1" style="display: none; fill: #c8c9c9;" />
    <path id="endo-metal-pin" d="M19.6,8.5c.8,1.9,1.1,5.8,1.4,8.2.4,3.2,1.8,12.2,2.2,15.5.2,3.7,6,11.1,2.2,14.6-3.5,3.3-12.8,2.7-12.1-3.9.7-5.2,3.6-9.4,3.8-14.8.4-4.8.9-10.2,1.1-14.8,0-.8.3-7.1,1.4-5h0s0,.2,0,.2Z" data-active="1" style="display: none; fill: #3951a3;" />
    <path id="endo-resorption" d="M13.2,7.2s2.9-7.2,3.3-7.2l5.3.2c1.4,0,3.3,8.1,3.2,8.2l-.5,1.9c-.2.7-.5,1.3-.9,1.9l-1.7,2.3c-1,1.4-2.8,1.5-3.9.2l-2.4-2.7c-.2-.2-.4-.5-.5-.7l-2.2-4.2h.2Z" data-active="1" style="display: none; fill: #fdecc5;" />
    <path id="endo-resection" d="M12.2,10.4S15.2.4,15.7.4h6c1.5,0,4,10.9,4,11.2l.2,9-13.5.3-.2-10.4h0Z" data-active="1" style="display: none; fill: #fdecc5;" />
    </g>
  <g id="surfaces" data-active="1">
    <g id="subcaries" data-active="1">
      <path id="subcaries-buccal" d="M16.7,48.4c.6.8,1.4,1.2,2.1,1.2,1.2,0,2.1-1,2.7-2.6s.4-1.1.4-1.8c-.5-3.4-5.6-2.2-6.2-.8-.4,1.1.6,3,1.1,3.8h0Z" data-active="1" style="fill: #0a1018; stroke: #000; stroke-miterlimit: 10;" />
      <path id="subcaries-mesial" d="M27.5,31.2c-4-.9-5.7,12.2-4.3,14.4,1.1,3.8,5.7,4.3,7.2.3,1.3-3.1,0-12.9-2.7-14.7h-.1Z" data-active="1" style="display: none; fill: #0a1018; stroke: #000; stroke-miterlimit: 10;" />
      <path id="subcaries-distal" d="M11.7,49.3c2.3-.5,3.1-6,3.4-8.7.6-4,.2-8.6-3.2-8-4.3,1.1-4.4,15.9-.3,16.8h.1Z" data-active="1" style="display: none; fill: #0a1018; stroke: #000; stroke-miterlimit: 10;" />
      <path id="subcaries-occlusal" d="M13,58.3c1.1,3.6,4.9,5.8,7.1,5.6,2.1,0,6-2.9,6.9-5.8,1.3-5.6-5.5-7.6-8.8-7.1-2.4.3-5.4,2.8-5.5,6.2v.8l.3.5h0Z" data-active="1" style="display: none; fill: #0a1018; stroke: #000; stroke-miterlimit: 10;" />
      </g>
    <g id="caries" data-active="1">
      <path id="caries-subcrown" d="M10,33.5c-1,2.9,3.8-1.4,5.7-2,2.9-.6,6.4-3.4,6.1-5.4-1-4-8.9-3.1-9.7-.3l-2.1,7.8h0Z" data-active="1" style="display: none; fill: #0a1018; stroke: #000; stroke-miterlimit: 10;" />
      <path id="caries-buccal" d="M16.7,48.4c.6.8,1.4,1.2,2.1,1.2,1.2,0,2.1-1,2.7-2.6s.4-1.1.4-1.8c-.5-3.4-5.6-2.2-6.2-.8-.4,1.1.6,3,1.1,3.8h0Z" data-active="1" style="display: none; fill: #0a1018; stroke: #000; stroke-miterlimit: 10;" />
      <g id="caries-mesial" data-active="1" style="display: none;">
        <path id="mesial-shape" d="M27.8,32.9c-3.5-.8-5,10.7-3.8,12.6,1,3.3,5,3.8,6.3.3,1.1-2.7,0-11.3-2.4-12.9h-.1Z" data-active="1" style="fill: #0a1018; stroke: #000; stroke-miterlimit: 10;" />
        <path id="mesial-patch2" d="M27.9,40.3c3.2,0-1-4.3-1.8-1.6-.3.9.8,1.7,1.5,1.6h.3Z" data-active="1" style="fill: #fff;" />
        <path id="mesial-patch1" d="M26.1,45.8c1.4,1.3,4.6-.7,2.1-1.6-1.6-.5-2.5.6-2.1,1.5h0Z" data-active="1" style="fill: #fff;" />
        </g>
      <g id="caries-distal" data-active="1" style="display: none;">
        <path id="distal-shape" d="M11.7,49.3c2.3-.4,3.1-5.3,3.4-7.7.6-3.5.2-7.6-3.2-7.1-4.3,1-4.4,14-.3,14.8h.1Z" data-active="1" style="fill: #0a1018; stroke: #000; stroke-miterlimit: 10;" />
        <path id="distal-patch2" d="M13,40.4c.9-.6.5-2.7-.6-2.5s-.7,3,.4,2.6h.2Z" data-active="1" style="fill: #fff;" />
        <path id="distal-patch1" d="M10.8,45.9c.2.3.7.5,1,.6.3,0,.8.2.7,0-.3-.5-1.1-1.6-1.5-1.9-.8-.3-.4,1-.3,1.3,0,0,.1,0,.1,0Z" data-active="1" style="fill: #fff;" />
        </g>
      <g id="caries-occlusal" data-active="1" style="display: none;">
        <path id="occlusal-shape" d="M13.8,58.6c1,3.1,4.3,5.1,6.2,4.9,1.8,0,5.2-2.5,6-5.1,1.1-4.9-4.8-6.6-7.7-6.2-2.1.3-4.7,2.4-4.8,5.4v.7l.3.4h0Z" data-active="1" style="fill: #0a1018; stroke: #000; stroke-miterlimit: 10;" />
        <path id="occlusal-patch2" d="M20.1,58.5c-.7,3,3.3,1.5,3.6,0,.5-.8.2-2-.5-2.3-1.2-.5-2.4,1-3.2,2.1h0v.2h.1Z" data-active="1" style="fill: #fff; stroke: #000; stroke-miterlimit: 10; stroke-width: .2px;" />
        <path id="occlusal-patch1" d="M15.5,58.6c-.1,1.5,1,2.6,1.6,1.2.4-.9.4-3.1-.4-3.1s-1.1.7-1.1,1.8v.2h-.1Z" data-active="1" style="fill: #fff; stroke: #000; stroke-miterlimit: 10; stroke-width: .2px;" />
        </g>
      </g>
    <g id="fillings" data-active="1">
      <g id="amalgam" data-active="1">
        <path id="filling-amalgam-occlusal" d="M13.6,58.7c.1.5.9,1.3,1.1,1.8,1.5,2.5,4.7,3.8,7.3,2.3,2.2-1.2,4.8-3.9,4.3-6.6-1.6-6.1-14.6-5.5-13,1.4,0,0,.3,1.1.3,1.1Z" data-active="1" style="display: none; fill: #aaa; stroke: #aaa; stroke-miterlimit: 10;" />
        <path id="filling-amalgam-buccal" d="M18.8,49c1.8,0,2.3-2.5,2.6-3.9.4-2.1-3.3-1.5-4.3-.7-1.7,1.2-.5,4.4,1.6,4.5h.2-.1Z" data-active="1" style="display: none; fill: #aaa; stroke: #aaa; stroke-miterlimit: 10;" />
        <path id="filling-amalgam-mesial" d="M27.3,32.2c-3.6-.7-4.7,11-3.3,12.9,1.2,3.3,5.3,3.6,6.5,0,1-2.8-.6-11.5-3-13h-.2Z" data-active="1" style="display: none; fill: #aaa; stroke: #aaa; stroke-miterlimit: 10;" />
        <path id="filling-amalgam-distal" d="M11.3,47.9c2.3-.4,3.1-5.4,3.3-7.8.6-3.5,0-7.6-3.4-7-4.3,1.1-4.2,14.1,0,14.8h.1Z" data-active="1" style="display: none; fill: #aaa; stroke: #aaa; stroke-miterlimit: 10;" />
        </g>
      <g id="composite" data-active="1">
        <path id="filling-composite-occlusal" d="M13.5,58.7c.1.5.9,1.3,1.1,1.8,1.5,2.5,4.7,3.8,7.3,2.3,2.2-1.2,4.8-3.9,4.3-6.6-1.6-6.1-14.6-5.5-13,1.4l.3,1.1Z" data-active="1" style="display: none; fill: #feffbf; stroke: #feffbf; stroke-miterlimit: 10;" />
        <path id="filling-composite-buccal" d="M18.8,49c1.8,0,2.3-2.5,2.6-3.9.4-2.1-3.3-1.5-4.3-.7-1.7,1.2-.5,4.4,1.6,4.5h.2-.1Z" data-active="1" style="display: none; fill: #feffbf; stroke: #feffbf; stroke-miterlimit: 10;" />
        <path id="filling-composite-mesial" d="M27.7,32.4c-3.6-.8-5.1,10.9-3.7,12.8,1.1,3.3,5.2,3.8,6.5.3,1.1-2.8-.2-11.5-2.6-13.1,0,0-.2,0-.2,0Z" data-active="1" style="display: none; fill: #feffbf; stroke: #feffbf; stroke-miterlimit: 10;" />
        <path id="filling-composite-distal" d="M11.3,47.9c2.3-.4,3.1-5.4,3.3-7.8.6-3.5,0-7.6-3.4-7-4.3,1.1-4.2,14.1,0,14.8h.1Z" data-active="1" style="display: none; fill: #feffbf; stroke: #feffbf; stroke-miterlimit: 10;" />
        </g>
      <g id="gic" data-active="1">
        <path id="filling-gic-occlusal" d="M13.6,58.7c.1.5.9,1.3,1.1,1.8,1.5,2.5,4.7,3.8,7.3,2.3,2.2-1.2,4.8-3.9,4.3-6.6-1.6-6.1-14.6-5.5-13,1.4,0,0,.3,1.1.3,1.1Z" data-active="1" style="display: none; fill: #f9ae94; stroke: #f99; stroke-miterlimit: 10;" />
        <path id="filling-gic-buccal" d="M18.8,49c1.8,0,2.3-2.5,2.6-3.9.4-2.1-3.3-1.5-4.3-.7-1.7,1.2-.5,4.4,1.6,4.5h.2-.1Z" data-active="1" style="display: none; fill: #f9ae94; stroke: #f99; stroke-miterlimit: 10;" />
        <path id="filling-gic-mesial" d="M27.3,32.2c-3.6-.7-4.7,11-3.3,12.9,1.2,3.3,5.3,3.6,6.5,0,1-2.8-.6-11.5-3-13h-.2Z" data-active="1" style="display: none; fill: #f9ae94; stroke: #f99; stroke-miterlimit: 10;" />
        <path id="filling-gic-distal" d="M11.3,47.9c2.3-.4,3.1-5.4,3.3-7.8.6-3.5,0-7.6-3.4-7-4.3,1.1-4.2,14.1,0,14.8h.1Z" data-active="1" style="display: none; fill: #f9ae94; stroke: #f99; stroke-miterlimit: 10;" />
        </g>
      <g id="temporary" data-active="1">
        <path id="filling-temporary-occlusal" d="M13.6,58.7c.1.5.9,1.3,1.1,1.8,1.5,2.5,4.7,3.8,7.3,2.3,2.2-1.2,4.8-3.9,4.3-6.6-1.6-6.1-14.6-5.5-13,1.4,0,0,.3,1.1.3,1.1Z" data-active="1" style="display: none; fill: #fff; stroke: #eee; stroke-miterlimit: 10;" />
        <path id="filling-temporary-buccal" d="M18.8,49c1.8,0,2.3-2.5,2.6-3.9.4-2.1-3.3-1.5-4.3-.7-1.7,1.2-.5,4.4,1.6,4.5h.2-.1Z" data-active="1" style="display: none; fill: #fff; stroke: #eee; stroke-miterlimit: 10;" />
        <path id="filling-temporary-mesial" d="M27.3,32.2c-3.6-.7-4.7,11-3.3,12.9,1.2,3.3,5.3,3.6,6.5,0,1-2.8-.6-11.5-3-13h-.2Z" data-active="1" style="display: none; fill: #fff; stroke: #eee; stroke-miterlimit: 10;" />
        <path id="filling-temporary-distal" d="M11.3,47.9c2.3-.4,3.1-5.4,3.3-7.8.6-3.5,0-7.6-3.4-7-4.3,1.1-4.2,14.1,0,14.8h.1Z" data-active="1" style="display: none; fill: #fff; stroke: #eee; stroke-miterlimit: 10;" />
        </g>
      </g>
    <g id="contact-point" data-active="1">
      <g id="mesial-no-contact-point" data-active="1" style="display: none;">
        <path d="M29,37.4c1.1,2.4,2.5,5.1,4,7.7" data-active="1" style="fill: none; stroke: #aaa; stroke-miterlimit: 10; stroke-width: .5px;" />
        <path d="M29.5,45.6c.7-1.6.8-2.6,1.3-3.8.6-1.4,1.1-3,1.5-4.5" data-active="1" style="fill: none; stroke: #aaa; stroke-miterlimit: 10; stroke-width: .5px;" />
        </g>
      <g id="distal-no-contact-point" data-active="1" style="display: none;">
        <path d="M6.3,38.7c1.3,2.4,2.9,5.1,4.5,7.6" data-active="1" style="fill: none; stroke: #aaa; stroke-miterlimit: 10; stroke-width: .5px;" />
        <path d="M7.2,46.9c.6-1.6.6-2.6,1.1-3.8.6-1.4,1-3,1.3-4.5" data-active="1" style="fill: none; stroke: #aaa; stroke-miterlimit: 10; stroke-width: .5px;" />
        </g>
      </g>
    </g>
  <g id="restorations" data-active="1">
    <g id="implant" data-active="1" style="display: none;">
      <path id="implant-locator-screw" d="M15.8,44.3c.9,1.5,3.8.9,5.4,1,3.2-.5,1.7-4.6,2-7,0-.7.2-1.6-.3-2.1-.2-.3-.7-.4-1-.4-1.5,0-3.4-.2-4.9.2-1.3.3-1.4,1.3-1.4,2.5,0,2-.2,3.9.1,5.7v.2h0Z" data-active="1" style="fill: url(#linear-gradient-13-17); stroke: #c8c9c9; stroke-miterlimit: 10; stroke-width: .2px;" />
      <path id="implant-connector" d="M12.9,37.6h0c.1,1.4,1.1,2.1,1.9,1.7,1.4-.7,1.6-2,3.4-2.1h3.3c.8,0,1.8,1.9,2.9,2.2s1.4-.6,1.3-1.6c0-1.9,0-5.6-.5-5.7s-3.1,0-3.7,0h-4.5c-1,0-2.7-.4-3.5.7-.8,1.1-1,2.9-.8,4l.2.7h0Z" data-active="1" style="fill: url(#linear-gradient-13-18);" />
      <path id="implant-bar" d="M6.8,50.4c5.8.3,21,0,27.4,0s2.8-2.2,3-4.1.2-3.2-1-3.4-4.8,0-6.3,0c-3.6,0-6.7,0-10.1.2-3.8,0-12.1.2-12.7,0-1.1,0-2.1.7-2.2,1.7-.2,1.9-.2,5.5,1.8,5.3h0v.3h0Z" data-active="1" style="fill: url(#radial-gradient-13-0);" />
      <g id="implant-healing-abutment" data-active="1" style="display: none;">
        <path id="implant-healing-abutment-connector" d="M15.9,36.8c1.7.3,3.7-.2,5.4-.2,3.3,0,4.2-1.2,3.4-5.6-.8-3.9-1.7-9-2.7-13.4-.3-1.1-.6-2.2-1.1-3.1-2.3-4.5-4.3,1.7-4.7,5-.5,3.4-.6,5.9-1.3,9-.6,2.7-2.4,7.7.7,8.3h.3Z" data-active="1" style="fill: #a0a0a0; stroke: #8c8c8c; stroke-miterlimit: 10; stroke-width: .5px;" />
        <path d="M26.5,33.3h-9.2c-1.4,0-5,.2-5,.2,0,0-.4.9-.7,1.7s-.3,1.2-.3,1.8v2.7c0,.3.2.5.2.7h1.1c2.4-.3,4.9-.4,7.3-.4v-.2c.3,0-.7-.2-.9-.2.4.5-1.8,0-2.1,0-.5,0-.7-.5-.7-1v-2.4c0-.6.6-.5.4-.6l-4.1.3c-.4,0-.7.2-1.1,0l2.5-.5c3.2-.6,6.4-.3,9.5,0,.6,0,1.2,0,1.9.2h.5c.2,0,.4,0,.5.2-.2-.2,0-2.5,0-2.5h.2Z" data-active="1" style="fill: #475563;" />
        <path d="M20.1,39.8v-.2h.2v-.2c.5,0,2,.3,2.6.2.1.3.5.2.7.2.6,0,2.3.2,2.5-.9s.2-1.8,0-2.7-.3-.4-.1-.6h.4s.2,0,.2.4v3.6c0,.2-.1.4-.2.6-.9,0-1.8-.2-2.8-.3h-3.6,0Z" data-active="1" style="fill: #8c8c8c;" />
        <path d="M19.8,35.6c-.1-.2-.3-.2-.5-.2l-.9.2c-.1-.2-.4-.2-.6,0-.1-.2-.9,0-1,0l-4.1.3c-.4,0-.7.2-1.1,0l2.5-.5c3.2-.6,6.4-.3,9.5,0,.1.3,0,.2.3.6.2.3.3.2.4.5.1.7,0,1.5,0,2.1s-.3.8-.7.9c-.7,0-2,.2-2.7,0s-1.4-.2-1.4-.6v-.9c-.1-.4,0-1.5,0-2s.5-.7.3-.5h0Z" data-active="1" style="fill: #e8eef0;" />
        <path d="M22.9,39.6h.7c.4-.2.7-.6.7-1v-1.9c0-.6-.9-1.1-1.5-1.1-.3-.4.9,0,.8-.2.6,0,1.2,0,1.9.2s.3,0,.5,0c-.2.2,0,.4.1.6.1.9.1,1.8,0,2.7s-1.9,1-2.5.9-.6,0-.7-.2h0Z" data-active="1" style="fill: #a0a0a0;" />
        <path d="M16.8,35.5c.1,0,.9-.2,1,0,.2-.2.5-.2.6,0,0,0-.2.2-.2.3,0,1-.2,1.9,0,2.9s.6.6,1,.7c.4.5-1.8,0-2.1,0-.5,0-.7-.5-.7-1v-2.4c0-.8.6-.5.4-.6h0Z" data-active="1" style="fill: #6f7c86;" />
        <path d="M20.1,39.6c.3,0-1.1-.3-.9-.2-.4,0-.9,0-1-.7-.2-.9,0-1.9,0-2.9s.2-.2.2-.3l.9-.2c.2,0,.4,0,.5.2-.2.2-.3.4-.3.7v2.5c0,.9.5.6.7.7v.2h-.2s.1,0,0,0h0Z" data-active="1" style="fill: #a0a0a0;" />
        </g>
      <g id="implant-base" data-active="1">
        <path d="M16.1,33.3c-.1-1.3-.2-2.7.2-4h5.6c.4,1,.2,2.9.2,4h-6Z" data-active="1" style="fill: #bbc3c6;" />
        <path d="M17.3,6.9c-.2,0,0-2.2,0-2.4.2-1.3.9-2.4,1.9-3,1-.6.2,0,.2-.3,1.7,0,3.3,1.1,3.8,3.1s0,1.2.1,1.8h-1.3c0-.8,0-2.1-.8-2.3s-.7,0-.7.3c0,.8,0,1.5.2,2.1l-3.5.6h0Z" data-active="1" style="fill: #bac3c7;" />
        <path d="M16.3,29.3c-.4,1.3-.3,2.7-.2,4l-3.8.2c0-.7-.3-4.2.7-4,1.1-.2,2.2-.2,3.3-.2Z" data-active="1" style="fill: #a0a4a5;" />
        <path d="M16.9,28.8v-2.5c1.5-.3,3-.7,4.6-.7l.2,3.3h-4.8Z" data-active="1" style="fill: #bac3c6;" />
        <path d="M19.5,1.1s-.1.2-.2.3c-1,.6-1.6,1.7-1.9,3-.3,1.3-.2,2.4,0,2.4l-2.4.6c.1-1.1,0-2.2.3-3.3s1.1-2.2,2.1-2.7c1-.5,1.5-.4,2.2-.4h-.1Z" data-active="1" style="fill: #9ca3a6;" />
        <path d="M22.1,33.3c0-1.1.2-3-.2-4h2.7c.2,1,.3,3,0,4h-2.5Z" data-active="1" style="fill: #e8eef0;" />
        <path d="M16.8,26.2v2.5c.1,0-3.4.2-3.4.2,0-.7,0-1.4.1-2,1.1-.4,2.2-.5,3.2-.8h.1,0Z" data-active="1" style="fill: #9ea3a4;" />
        <path d="M24.6,33.4c.2-1,.2-3,0-4h1.4c.8.2.7,3.3.5,4h-1.9Z" data-active="1" style="fill: #bcc4c7;" />
        <path d="M21.7,28.8l-.2-3.3c.6-.2,1.3-.2,1.9-.2l.2,3.6h-1.9Z" data-active="1" style="fill: #e3eaeb;" />
        <path d="M23.6,28.9l-.2-3.6c.5-.1,1.1-.1,1.7-.1l.3,3.8h-1.8Z" data-active="1" style="fill: #b8c2c4;" />
        <path d="M16.9,24.4v-1.1c1.5-.3,3-.6,4.5-.7v1.1s-4.5.7-4.5.7Z" data-active="1" style="fill: #b7c0c3;" />
        <path d="M17,21.5c-.1-.4,0-.8,0-1.2,1.5-.3,2.9-.5,4.3-.7v1.2l-4.4.7h0Z" data-active="1" style="fill: #b9c0c4;" />
        <path d="M17.1,18.6c-.3-.4,0-.5-.2-1.1,1.4-.4,2.8-.6,4.3-.8v1.2c-1.3.2-2.7.4-4.1.7Z" data-active="1" style="fill: #b8c0c3;" />
        <path d="M17,15.6v-1.1c1.3-.3,2.7-.6,4.1-.7v1.1s-4.1.7-4.1.7Z" data-active="1" style="fill: #b7bfc3;" />
        <path d="M17.1,12.7v-1.1c1.3-.3,2.6-.5,3.9-.7v1.2l-4,.6s.1,0,0,0h.1Z" data-active="1" style="fill: #b9c1c5;" />
        <path d="M17.1,8.7c1.2-.3,2.4-.6,3.7-.7v1.2c-1.2.1-2.4.4-3.7.6,0,0,0-1.1,0-1.1Z" data-active="1" style="fill: #bac3c5;" />
        <path d="M16.9,25.7c0-.2,0-.5-.1-.7-.2.2-.5.3-.6,0,1.7-.4,3.5-.7,5.3-.9.1.2,0,.5,0,.8l-4.6.7h0Z" data-active="1" style="fill: #b7c0c3;" />
        <path d="M17,22.8c-.2-.2,0-.5,0-.8,1.5-.3,3-.6,4.5-.7v.8l-4.4.7s-.1,0,0,0c0,0-.1,0,0,0h0Z" data-active="1" style="fill: #b9c0c3;" />
        <path d="M16.9,23.3v1.1l-3.2.8v-1.1c1-.4,2.1-.5,3.1-.7h.1,0Z" data-active="1" style="fill: #9a9fa1;" />
        <path d="M17.1,19.8c-.1-.3-.2-.4-.2-.7,1.5-.3,2.9-.6,4.3-.7v.8l-4.2.7h.1,0Z" data-active="1" style="fill: #bac0c3;" />
        <path d="M17,20.3c0,.4-.1.8,0,1.2l-3.1.7v-1.2c1-.4,2-.5,3-.7,0,0,.1,0,0,0,0,0,.1,0,0,0h0Z" data-active="1" style="fill: #999fa1;" />
        <path d="M17,16.9v-.8c1.4-.3,2.8-.5,4.2-.7v.8s-4.2.7-4.2.7Z" data-active="1" style="fill: #bac1c4;" />
        <path d="M17,14v-.7c1.3-.3,2.7-.5,4-.7v.8l-4.1.6s.1,0,.1,0Z" data-active="1" style="fill: #b9c0c3;" />
        <path d="M17.1,11.1v-.8c1.2-.4,2.5-.5,3.8-.7,0,.2.1.5,0,.8l-3.9.7s.1,0,0,0h.1Z" data-active="1" style="fill: #bbc2c4;" />
        <path d="M16.9,17.5c.1.6,0,.7.2,1.1l-2.9.7v-1.1c.9-.5,1.8-.4,2.7-.6h0Z" data-active="1" style="fill: #9ba0a2;" />
        <path d="M16.1,25.1c.1.2.4.2.6,0,.1.2.1.5.1.7-1.2.3-2.4.5-3.6.9s-.4-.2-.5-.4c0-.6,2.7-1,3.2-1.1h.2Z" data-active="1" style="fill: #a8aeb1;" />
        <path d="M16.9,22v.8l-3.5.9c-.2,0-.4-.3-.4-.4,0-.6,3.3-1.1,3.8-1.2h0Z" data-active="1" style="fill: #a6abad;" />
        <path d="M17,14.5v1.1l-2.7.7v-1.2c.9-.4,1.8-.5,2.6-.6,0,0,.1,0,0,0,0,0,.1,0,0,0h0Z" data-active="1" style="fill: #9ba0a3;" />
        <path d="M20.8,6.3c-.1-.7-.2-1.4-.2-2.1s.5-.4.7-.3c.8.2.7,1.5.8,2.3l-1.3.2h0Z" data-active="1" style="fill: #e4e9ea;" />
        <path d="M17.2,8.2v-.8c1.2-.3,2.4-.5,3.7-.6v.8l-3.7.6Z" data-active="1" style="fill: #bcc2c4;" />
        <path d="M16.9,19.1c0,.3,0,.5.2.7-1.2.2-2.2.5-3.4.8s-.4-.2-.4-.3c-.1-.7,3.1-1.1,3.6-1.2Z" data-active="1" style="fill: #a6abad;" />
        <path d="M17.1,11.6v1.1l-2.5.7c0-.3,0-.9.1-1.1.8-.4,1.6-.4,2.4-.6h0Z" data-active="1" style="fill: #9da2a4;" />
        <path d="M17,16.2v.8l-3.2.8c-.2,0-.3-.3-.3-.4s0-.3.2-.4c1.1-.4,2.2-.6,3.2-.8h.1Z" data-active="1" style="fill: #a5aaac;" />
        <path d="M17.1,8.7v1.1l-2.4.6v-1.1c.8-.3,1.6-.4,2.3-.6,0,0,.1,0,0,0h0Z" data-active="1" style="fill: #9ca1a3;" />
        <path d="M17,13.3v.7l-2.9.8c-.2,0-.4-.2-.4-.3-.2-.7,3-1.1,3.3-1.1h0Z" data-active="1" style="fill: #a5aaac;" />
        <path d="M17,10.3v.8l-2.8.7c-.2,0-.3-.2-.4-.3s0-.4.3-.4c1-.3,1.9-.6,2.9-.7h0Z" data-active="1" style="fill: #a2a7a9;" />
        <path d="M17.2,7.4v.8c-.9.2-1.7.4-2.6.7s-.4-.1-.4-.3,0-.3.2-.4c.9-.4,1.8-.5,2.8-.8Z" data-active="1" style="fill: #a7abae;" />
        <path d="M21.5,23.7v-1.1c.5-.2,1.1-.2,1.7-.2.1.4,0,.8,0,1.2l-1.8.2h0Z" data-active="1" style="fill: #e2e9eb;" />
        <path d="M21.4,20.8v-1.2l1.8-.2v1.1c-.5.2-1.1.2-1.7.3h0Z" data-active="1" style="fill: #e1e8e9;" />
        <path d="M21.2,16.7c.6,0,1.2-.2,1.8-.2v1.2l-1.7.2v-1.2h0Z" data-active="1" style="fill: #e3e9ea;" />
        <path d="M21.1,15v-1.1c.5,0,1.1-.2,1.6-.2.2.4,0,.8.2,1.1-.6,0-1.2,0-1.8.2Z" data-active="1" style="fill: #e3e9ea;" />
        <path d="M23.3,23.5v-1.2c.5,0,1.1-.1,1.7-.1,0,.4.1.8.1,1.2-.6.2-1.2,0-1.7.1h-.1Z" data-active="1" style="fill: #b7bfc3;" />
        <path d="M21,12.1c-.1-.4,0-.8,0-1.2l1.6-.2v1.1c-.4.1-1,.2-1.5.2h-.1Z" data-active="1" style="fill: #e4eaeb;" />
        <path d="M23.4,24.8v-.8c.5,0,2.5-.5,2.4.3s-1.8.5-2.4.5Z" data-active="1" style="fill: #b4bdc0;" />
        <path d="M23.3,21.9v-.8c.4,0,2.4-.5,2.3.2s-.2.4-.4.4h-1.9s0,.2,0,.2Z" data-active="1" style="fill: #b8c0c4;" />
        <path d="M20.8,8c.5,0,1-.2,1.5-.2.1.4,0,.8.2,1.1-.5.1-1,.2-1.6.2v-1.2h-.1Z" data-active="1" style="fill: #e3e8e9;" />
        <path d="M23.2,20.5v-1.1c.4,0,.9-.1,1.4-.1,0,.4.1.8,0,1.1-.5.2-1.1,0-1.5.1h.1Z" data-active="1" style="fill: #b8c0c3;" />
        <path d="M23,19v-.8c.4,0,2.2-.5,2.2.2s-1.7.5-2.2.6Z" data-active="1" style="fill: #b5bdc1;" />
        <path d="M23,17.7v-1.2c.5,0,.9-.2,1.4-.1v1.1c-.5.1-1,0-1.5.1h.1Z" data-active="1" style="fill: #b8c1c5;" />
        <path d="M22.9,16c-.1-.2,0-.5,0-.8.5,0,2.1-.4,2.2.2s-1.5.6-2.1.6h-.1Z" data-active="1" style="fill: #bac0c3;" />
        <path d="M22.7,13.1c-.1-.2,0-.5-.1-.8.5,0,2.1-.5,2.1.2s-1.5.5-2,.6Z" data-active="1" style="fill: #b6bec2;" />
        <path d="M22.8,14.8c-.1-.4,0-.8-.2-1.1.5,0,.9-.2,1.4-.1,0,.4.1.8,0,1.1h-1.3.1Z" data-active="1" style="fill: #b9c2c6;" />
        <path d="M21.5,25v-.8c.7,0,1.3-.2,2-.2v.8l-1.9.2h-.1Z" data-active="1" style="fill: #e5e9eb;" />
        <path d="M22.5,10.2v-.8c.3,0,2.2-.5,2,.3s-1.4.4-1.9.5h-.1Z" data-active="1" style="fill: #bbc2c5;" />
        <path d="M22.6,11.8v-1.1c.3,0,.7-.1,1.2,0,0,.3.1.7,0,1.1-.4.3-.9,0-1.3.1h0Z" data-active="1" style="fill: #b6bfc2;" />
        <path d="M21.4,22v-.8c.6,0,1.2-.2,1.8-.2v.8l-1.9.2h.1Z" data-active="1" style="fill: #e6ebec;" />
        <path d="M22.5,9c-.2-.3,0-.8-.2-1.1.4,0,.8-.2,1.3,0,0,.3.1.7,0,1.1-.4.2-.8,0-1.2.1h.1Z" data-active="1" style="fill: #bdc3c6;" />
        <path d="M21.3,19.1v-.8c.6,0,1.2-.3,1.8-.2v.8l-1.8.2Z" data-active="1" style="fill: #e6eaeb;" />
        <path d="M22.3,7.4v-.8c.4,0,2.1-.5,1.9.3s-1.4.4-1.9.4h0Z" data-active="1" style="fill: #bfc4c7;" />
        <path d="M21.2,16.2v-.8l1.7-.2v.8l-1.8.2h0Z" data-active="1" style="fill: #e5eaeb;" />
        <path d="M21,13.3v-.8l1.7-.2c0,.3,0,.5.1.8l-1.7.2h-.1Z" data-active="1" style="fill: #e6ebeb;" />
        <path d="M20.9,10.4v-.8c.5,0,1-.2,1.6-.2v.8l-1.6.2Z" data-active="1" style="fill: #e6eaeb;" />
        <path d="M20.8,6.8c.5,0,1-.2,1.5-.2v.8l-1.5.2v-.8Z" data-active="1" style="fill: #e1e5e6;" />
        </g>
      </g>
    <g id="prosthesis-implant" data-active="1">
      <g id="prosthesis-implant-gum" data-active="1" style="display: none; opacity: .5;">
        <path d="M36.5,53.3v-11.7c0-.8-.9-1.5-2-1.5H4.7c-9.3,0-2,.6-2,1.4-.1,2.7-.3,8.7-.4,11.7s.9,1.5,2.1,1.5h30.1c6.1,0,2-.7,2-1.5h0Z" data-active="1" style="fill: url(#radial-gradient-13-1);" />
        <path d="M36.4,53.3c0-3.9-.4-7.9-.5-11.7,0-.7-1.1-.9-1.7-.8-8,0-18.5-.5-26.6-.6h-3c-.5,0-1,.4-1,.9v.6h0v.2c0,3.8-.2,7.7-.4,11.5,0,0,0,.2.4.4.5.3,3.4.2,4,.2l5.9.2c3.9,0,13.9.4,17.7.5h3c.9,0,2.1-.4,2.1-1.4,0,0,0,0,.1,0ZM36.6,53.3c0,1.1-1.3,1.6-2.3,1.6h-3c-3.7,0-13.8.4-17.7.5-1.9,0-7,.2-8.9.2-1.3.2-3.8-.5-3.6-2.9v-.7c0-3.4,0-6.9.3-10.4,0-2,1.8-1.8,3.2-1.6,9.2,0,20.3-.6,29.5-.6s2.7.5,2.9,1.9c0,4-.3,7.9-.5,11.9h0Z" data-active="1" style="fill: #ffa46a;" />
        </g>
      <path id="prosthesis-implant-crown" d="M23.9,57.3c-2,7.2-7.2,7.7-9-.2-.6-2.5-.9-5.8.5-7.7,1.5-2.1,4.6-2.5,6.6-1.2,2.7,1.8,2.7,6.1,1.9,9h0Z" data-active="1" style="display: none; fill: #f9ae94; stroke: #1b3f1c; stroke-miterlimit: 10;" />
      </g>
    <g id="prosthesis" data-active="1">
      <path id="prosthesis-connector" d="M34.6,51.8c2.9-1.2,3.4-4.8,1-6.6-2.2-1.8-6.5-1.6-10.3-1.7-6.5,0-13.2-.4-19.6.4-3.9.6-6,4.9-3.5,7.6,1.6,1.6,5.6,1.7,8.5,1.7s7.5,0,11.4-.2c4.2,0,9.5,0,12.3-1.2h.2Z" data-active="1" style="display: none; fill: url(#linear-gradient-13-19); stroke: #1b3f1c; stroke-miterlimit: 10; stroke-width: .2px;" />
      <path id="prosthesis-crown" d="M29.7,51c-4.4,16.1-16.1,17.2-20.2-.5-1.4-5.6-2.1-12.9,1.2-17.3,3.4-4.7,10.3-5.5,14.9-2.6,6,4,6,13.6,4.2,20.1v.2h0Z" data-active="1" style="display: none; fill: #f9ae94; stroke: #1b3f1c; stroke-miterlimit: 10;" />
      </g>
    <g id="telescope" data-active="1">
      <path id="telescope-bridge-connector" d="M34.6,51.8c2.9-1.2,3.4-4.8,1-6.6-2.2-1.8-6.5-1.6-10.3-1.7-6.5,0-13.2-.4-19.6.4-3.9.6-6,4.9-3.5,7.6,1.6,1.6,5.6,1.7,8.5,1.7s7.5,0,11.4-.2c4.2,0,9.5,0,12.3-1.2h.2Z" data-active="1" style="display: none; fill: #0051bf; stroke: #1b3f1c; stroke-miterlimit: 10; stroke-width: .2px;" />
      <g id="telescope-crown" data-active="1" style="display: none;">
        <path id="telescope-crown-outside" d="M29.7,51c-4.4,16.1-16.1,17.2-20.2-.5-1.4-5.6-2.1-12.9,1.2-17.3,3.4-4.7,10.3-5.5,14.9-2.6,6,4,6,13.6,4.2,20.1v.2h0Z" data-active="1" style="fill: #0051bf; stroke: #1b3f1c; stroke-miterlimit: 10;" />
        <path id="telescope-crown-inside" d="M27.9,49.6c-3.6,13.2-13.1,14.1-16.5-.4-1.1-4.6-1.7-10.5,1-14.1,2.7-3.8,8.5-4.5,12.2-2.1,4.9,3.2,4.9,11.2,3.4,16.5v.2h-.1Z" data-active="1" style="fill: #aaa; stroke: #1b3f1c; stroke-miterlimit: 10;" />
        </g>
      </g>
    <g id="zircon" data-active="1">
      <path id="zircon-bridge-connector" d="M34.6,51.8c2.9-1.2,3.4-4.8,1-6.6-2.2-1.8-6.5-1.6-10.3-1.7-6.5,0-13.2-.4-19.6.4-3.9.6-6,4.9-3.5,7.6,1.6,1.6,5.6,1.7,8.5,1.7s7.5,0,11.4-.2c4.2,0,9.5,0,12.3-1.2h.2Z" data-active="1" style="display: none; fill: #feffbf; stroke: #1b3f1c; stroke-miterlimit: 10; stroke-width: .2px;" />
      <path id="zircon-crown" d="M29.7,51c-4.4,16.1-16.1,17.2-20.2-.5-1.4-5.6-2.1-12.9,1.2-17.3,3.4-4.7,10.3-5.5,14.9-2.6,6,4,6,13.6,4.2,20.1v.2h0Z" data-active="1" style="display: none; fill: #feffbf; stroke: #1b3f1c; stroke-miterlimit: 10;" />
      </g>
    <g id="metal" data-active="1">
      <path id="metal-bridge-connector" d="M34.6,51.8c2.9-1.2,3.4-4.8,1-6.6-2.2-1.8-6.5-1.6-10.3-1.7-6.5,0-13.2-.4-19.6.4-3.9.6-6,4.9-3.5,7.6,1.6,1.6,5.6,1.7,8.5,1.7s7.5,0,11.4-.2c4.2,0,9.5,0,12.3-1.2h.2Z" data-active="1" style="display: none; fill: #0051bf; stroke: #1b3f1c; stroke-miterlimit: 10; stroke-width: .2px;" />
      <path id="metal-crown" d="M29.7,51c-4.4,16.1-16.1,17.2-20.2-.5-1.4-5.6-2.1-12.9,1.2-17.3,3.4-4.7,10.3-5.5,14.9-2.6,6,4,6,13.6,4.2,20.1v.2h0Z" data-active="1" style="display: none; fill: #0051bf; stroke: #1b3f1c; stroke-miterlimit: 10;" />
      </g>
    <g id="emax" data-active="1">
      <path id="emax-crown" d="M28.4,50.6c-3.8,13.7-13.7,14.7-17.2-.4-1.2-4.8-1.8-11,1-14.8,2.9-4,8.8-4.7,12.7-2.2,5.1,3.4,5.1,11.6,3.6,17.2v.2h-.1Z" data-active="1" style="display: none; fill: url(#radial-gradient-13-2); stroke: #1b3f1c; stroke-miterlimit: 10;" />
      </g>
    <g id="temporary-restorations" data-active="1">
      <path id="temporary-bridge-connector" d="M34.6,51.8c2.9-1.2,3.4-4.8,1-6.6-2.2-1.8-6.5-1.6-10.3-1.7-6.5,0-13.2-.4-19.6.4-3.9.6-6,4.9-3.5,7.6,1.6,1.6,5.6,1.7,8.5,1.7s7.5,0,11.4-.2c4.2,0,9.5,0,12.3-1.2h.2Z" data-active="1" style="display: none; fill: #fff; stroke: #1b3f1c; stroke-miterlimit: 10; stroke-width: .2px;" />
      <path id="temporary-crown" d="M29.7,51c-4.4,16.1-16.1,17.2-20.2-.5-1.4-5.6-2.1-12.9,1.2-17.3,3.4-4.7,10.3-5.5,14.9-2.6,6,4,6,13.6,4.2,20.1v.2h0Z" data-active="1" style="display: none; fill: #fff; stroke: #1b3f1c; stroke-miterlimit: 10;" />
      </g>
    </g>
  <g id="specials" data-active="1">
    <g id="missing-closed" data-active="1" style="display: none;">
      <path d="M3.9,6c18.4,16.6,16.4,37.8,0,54.8" data-active="1" style="fill: none; stroke: #000; stroke-miterlimit: 10; stroke-width: 2px;" />
      <path d="M32.1,59.4c-18.5-16.4-16.7-37.6-.5-54.8" data-active="1" style="fill: none; stroke: #000; stroke-miterlimit: 10; stroke-width: 2px;" />
      </g>
    <g id="extraction-plan" data-active="1" style="display: none;">
      <path d="M5.8,57.3c1.4-4,28.3-51.6,29.1-53.7" data-active="1" style="fill: none; stroke: #b70000; stroke-miterlimit: 10; stroke-width: 3px;" />
      <path d="M6.2,4.1c2.7,3.5,19.9,39.4,23.4,48.1.6,1.5,1.2,3,2,4.3" data-active="1" style="fill: none; stroke: #b70000; stroke-miterlimit: 10; stroke-width: 3px;" />
      </g>
    <g id="crown-needed" data-active="1" style="display: none;">
      <path id="crown-needed-shape" d="M29.7,51c-4.4,16.1-16.1,17.2-20.2-.5-1.4-5.6-2.1-12.9,1.2-17.3,3.4-4.7,10.3-5.5,14.9-2.6,6,4,6,13.6,4.2,20.1v.2h0Z" data-active="1" style="fill: #c83014; stroke: #000; stroke-miterlimit: 10;" />
      <path id="crown-needed-path" d="M17.2,29.4c-1.6,3.3-3.3,6.5-4.8,9.7-.6,1.4-1.2,2.7-1.4,4.1,0,.3,0,.5.1.5.8,0,1.5-1.5,2.1-2.4,1.7-2.9,3.2-7.1,5.3-9.3,1.4-1.5,3.3-2.7,3-.8-1.5,7.4-7.7,13.1-9.5,20.2-.4,1.6-.9,3.9,0,4.4,1.7-.4,2.6-3.9,3.6-6.1,2.1-4.7,5.9-12.4,8.5-15.9,2.3-2.4,1.8,3.5.1,7.3-1.7,4.4-9.1,11.7-7.6,17.4,2.5.9,7-12.1,9.1-14.5,2.8-3.9,1.6,3.1,0,6.7-.9,2.3-2.4,4.5-3.2,6.9-.5,1.7.2,1.8.9,1.1,1.6-1.4,3.2-3.9,4.6-6.1" data-active="1" style="fill: #feffbf; stroke: #1b3f1c; stroke-miterlimit: 10;" />
      </g>
    <g id="crown-replace" data-active="1" style="display: none;">
      <path id="crown-replace-shape" d="M29.7,51c-4.4,16.1-16.1,17.2-20.2-.5-1.4-5.6-2.1-12.9,1.2-17.3,3.4-4.7,10.3-5.5,14.9-2.6,6,4,6,13.6,4.2,20.1v.2h0Z" data-active="1" style="fill: none; stroke: #c83014; stroke-miterlimit: 10; stroke-width: 3px;" />
      </g>
    <g id="parapulpal-pin" data-active="1" style="display: none;">
      <g id="parapulpal-pin-shape" data-active="1">
        <path d="M25.8,40.3c.1.5,0,.6,0,.8v.8c.1.4,0,.6,0,.8.1.3,0,.6,0,.8v2.4c.1.4.4.8,1,1.1s.2.2.1.3,0,.2,0,.3,0,.2-.3.3c-1.2.2-2.5.2-3.7,0s-.3,0-.3-.2v-.6c0-.2.9-.3,1-1s0-.7,0-1.1l.2-5,.2-4.4c0-1.2.2-2.3.4-3.5s0-.2.2-.3c.1.2.1.3.2.5.3,1.2.4,2.4.5,3.6l.3,3.5v.2c.1.2,0,.5,0,.8h.2Z" data-active="1" style="fill: #0a0a0a;" />
        <path d="M24.3,43.9c-.1,0-.2-.2-.2-.3v-3.7l.2-3.9.2-2.2h.1v9.3c0,.3,0,.6-.3.8Z" data-active="1" style="fill: #f0edee;" />
        <path d="M25.2,43.3h0v-1.7h0v-1h0v-6.5c0,.2.1.5.1.7v.5l.3,3.4v3.2l.2,1.8v.3h-.1c-.2-.2-.3-.4-.5-.6h0Z" data-active="1" style="fill: #eaeaea;" />
        <path d="M25.2,43.3s0,0-.1-.2l-.2-10.5v-.3l.2.7s.1.2,0,.2h0c-.1,0,0,.7,0,.8v6.2h0v2.8h0v.3Z" data-active="1" style="fill: #9c9c9c;" />
        <path d="M24.3,45c.2.3.5.6.7.9s0,.3,0,.5c-.2.4-.8.4-1.4.5.9-.7.2-1.1.9-1.9h-.2Z" data-active="1" style="fill: #c7c7c7;" />
        <path d="M25.7,45c.5.4.3.7.4,1v.2c0,.2.3.5.6.7h-.9c-.7-.2-.8-.8-.7-1s.4-.6.6-.8h0Z" data-active="1" style="fill: #b5b4b6;" />
        <path d="M25.2,47c.4,0,1.7,0,2,.2v.5c-.5,0-1,0-1.5,0s-.4,0-.4-.2v-.4h-.1Z" data-active="1" style="fill: #bababa;" />
        <path d="M23.6,47.6v-.5h1.3c0,.2,0,.4-.2.5s-.8,0-1.2,0h.1Z" data-active="1" style="fill: #cdcdcd;" />
        <path d="M23.7,47.9c.4,0,2.7,0,2.8,0s0,0,0,0c-.9,0-1.8,0-2.7,0s0,0-.1,0,0,0,0,0Z" data-active="1" style="fill: #9da1a2;" />
        <path d="M23.7,47.1v.5c-.2,0-.4,0-.6,0v-.5c.2,0,.5,0,.7-.2h-.1Z" data-active="1" style="fill: #8b8d8c;" />
        <path d="M24.6,44.3c.1,0,.2,0,.3.2l-.3.2s-.2,0-.2-.2c0,0,.1,0,.2-.2Z" data-active="1" style="fill: #acaaac;" />
        <path d="M25.4,44.3s.2,0,.2,0,0,0-.2.2c-.1,0-.2,0-.3-.2h.3Z" data-active="1" style="fill: #b2b0b3;" />
        <path d="M24.3,44.5s.2,0,.2,0c0,0-.1,0-.2.2,0,0-.1,0-.2,0s0,0,.2-.2Z" data-active="1" style="fill: #e4e1e2;" />
        <path d="M25.4,44.7c-.2.2-.1.2-.3.3v-.4l.3.2h0Z" data-active="1" style="fill: #8b8989;" />
        <path d="M24.3,44.1c.1,0,.2,0,.2,0s0,0-.1.2c0,0-.2,0-.2,0s0-.2.2-.2h-.1Z" data-active="1" style="fill: #e3e3e3;" />
        <path d="M25.6,44.6s.1,0,.2,0c0,0,.1,0,.2,0s0,0-.1.2c0,0-.2,0-.2-.2h-.1Z" data-active="1" style="fill: #cacaca;" />
        <path d="M24.7,44.7c.1,0,.2,0,.3-.2v.4c-.1,0-.2,0-.3-.2Z" data-active="1" style="fill: #7a797b;" />
        <path d="M25.5,44.2s.1,0,.2,0c0,0,.1,0,.1,0s0,.2-.1,0-.1,0-.2,0Z" data-active="1" style="fill: #d2d1d3;" />
        <path d="M24.7,44.2c.1,0,.2,0,.3-.2v.3c-.1,0-.2,0-.3,0Z" data-active="1" style="fill: #7f7e80;" />
        <path d="M25.1,44.3s0-.6,0-.2c0,0,.2,0,.1,0s-.1,0-.2,0h.1Z" data-active="1" style="fill: #7c7b7f;" />
        </g>
      </g>
    <g id="calculus" data-active="1" style="display: none;">
      <path id="calculus-shape-8" d="M23.5,34.5c.4.1.8-.2.9-.4.3-.2.4-.6-.1-.7-.7-.2-1.4.8-.8,1.1h0Z" data-active="1" style="fill: #c4ff98;" />
      <path id="calculus-shape-7" d="M15.3,33.9c-.1.4.2.8.4.9.2.3.6.4.7-.1.2-.7-.8-1.4-1.1-.8h0Z" data-active="1" style="fill: #c4ff98;" />
      <path id="calculus-shape-6" d="M12.3,34.9c.5.2,1.1-.3,1.4-.6.4-.3.7-.9-.1-1.1-1-.3-2.1,1.2-1.3,1.7h0Z" data-active="1" style="fill: #9e1f63;" />
      <path id="calculus-shape-5" d="M15.3,36.3c-.5.2-.6,1-.7,1.3,0,.5,0,1.1.8.8.9-.4.8-2.3-.2-2.1h0Z" data-active="1" style="fill: #9e1f63;" />
      <path id="calculus-shape-4" d="M12.4,38.1c.5-.2.7-.9.7-1.3.1-.5,0-1.1-.8-.8-1,.4-.9,2.2,0,2.1h0Z" data-active="1" style="fill: #9e1f63;" />
      <path id="calculus-shape-3" d="M25.4,33c-.1.5.4,1.1.6,1.3.4.4.9.6,1.1-.2.2-1-1.3-2-1.8-1.2h0Z" data-active="1" style="fill: #9e1f63;" />
      <path id="calculus-shape-2" d="M23.6,37.8c.5,0,.9-.7,1.1-1,.3-.5.4-1-.5-1-1,0-1.6,1.8-.7,2h0Z" data-active="1" style="fill: #9e1f63;" />
      <path id="calculus-shape-1" d="M27,38.1c.5-.1.7-.9.8-1.2.2-.5,0-1.1-.7-.9-1,.3-1,2.2-.1,2.1h0Z" data-active="1" style="fill: #9e1f63;" />
      </g>
    </g>
  </svg>
