<?xml version='1.0' encoding='utf-8'?>
<!-- Created by Zoltan Dul in 2026 - free to use with MIT license. Part of React Odontogram Modul - https://github.com/ZoliQua/React-Odontogram-Modul - SVG Version: 2.1.4 -->
<svg xmlns="http://www.w3.org/2000/svg" id="premolar_x5F_tooth" version="1.1" viewBox="0 0 34 64.1">
  <style>
    [data-active="0"] { display: none; }
  </style>
  <defs>
    <linearGradient id="linear-gradient-14-0" x1="-2102.7" y1="-10009.6" x2="-2099.4" y2="-10009.6" gradientTransform="translate(-538.1313 -10190.9345) rotate(-15) scale(1 -1)" gradientUnits="userSpaceOnUse" data-active="1">
      <stop offset=".2" stop-color="#ff422a" stop-opacity=".5" data-active="1" />
      <stop offset="1" stop-color="#000" data-active="1" />
      </linearGradient>
    <linearGradient id="linear-gradient-14-1" x1="-27686.1" y1="3829.7" x2="-27682.8" y2="3829.7" gradientTransform="translate(-25834.1551 -10618.8903) rotate(-165.5) scale(1 -1)" gradientUnits="userSpaceOnUse" data-active="1">
      <stop offset=".2" stop-color="#ff422a" stop-opacity=".5" data-active="1" />
      <stop offset="1" stop-color="#000" data-active="1" />
      </linearGradient>
    <linearGradient id="linear-gradient-14-2" x1="-931.7" y1="-8590.7" x2="-928.4" y2="-8590.7" gradientTransform="translate(-145.1058 -8625.7114) rotate(-7.3) scale(1 -1)" gradientUnits="userSpaceOnUse" data-active="1">
      <stop offset=".2" stop-color="#ff422a" stop-opacity=".5" data-active="1" />
      <stop offset="1" stop-color="#000" data-active="1" />
      </linearGradient>
    <linearGradient id="linear-gradient-14-3" x1="-27046.6" y1="5778.6" x2="-27043.3" y2="5778.6" gradientTransform="translate(-26237.64 -8698.4595) rotate(-173.7) scale(1 -1)" gradientUnits="userSpaceOnUse" data-active="1">
      <stop offset=".2" stop-color="#ff422a" stop-opacity=".5" data-active="1" />
      <stop offset="1" stop-color="#000" data-active="1" />
      </linearGradient>
    <linearGradient id="linear-gradient-14-4" x1="-2590.8" y1="-10557.6" x2="-2587.5" y2="-10557.6" gradientTransform="translate(-542.5181 -10840.9375) rotate(-16.7) scale(1 -1)" gradientUnits="userSpaceOnUse" data-active="1">
      <stop offset=".2" stop-color="#ff422a" stop-opacity=".5" data-active="1" />
      <stop offset="1" stop-color="#000" data-active="1" />
      </linearGradient>
    <linearGradient id="linear-gradient-14-5" x1="-26821.8" y1="-843.3" x2="-26818.5" y2="-843.3" gradientTransform="translate(-25546.7742 -14731.0851) rotate(-148.4) scale(1.1 -1)" gradientUnits="userSpaceOnUse" data-active="1">
      <stop offset=".2" stop-color="#ff422a" stop-opacity=".5" data-active="1" />
      <stop offset="1" stop-color="#000" data-active="1" />
      </linearGradient>
    <linearGradient id="linear-gradient-14-6" x1="-26824.4" y1="-837" x2="-26821" y2="-837" gradientTransform="translate(-25546.7742 -14731.0851) rotate(-148.4) scale(1.1 -1)" gradientUnits="userSpaceOnUse" data-active="1">
      <stop offset=".2" stop-color="#ff422a" stop-opacity=".5" data-active="1" />
      <stop offset="1" stop-color="#000" data-active="1" />
      </linearGradient>
    <linearGradient id="linear-gradient-14-7" x1="-9939.8" y1="-14525.6" x2="-9936.3" y2="-14525.6" gradientTransform="translate(-3436.844 -17841.3033) rotate(-47.9) scale(1.1 -1)" gradientUnits="userSpaceOnUse" data-active="1">
      <stop offset=".2" stop-color="#ff422a" stop-opacity=".5" data-active="1" />
      <stop offset="1" stop-color="#000" data-active="1" />
      </linearGradient>
    <linearGradient id="linear-gradient-14-8" x1="17.2" y1="-4037.5" x2="17.2" y2="-3999" gradientTransform="translate(0 -3993.3071) scale(1 -1)" gradientUnits="userSpaceOnUse" data-active="1">
      <stop offset="0" stop-color="#b70000" data-active="1" />
      <stop offset="1" stop-color="#eba13d" data-active="1" />
      </linearGradient>
    <linearGradient id="linear-gradient-14-9" x1="-2101.1" y1="-10009.9" x2="-2097.8" y2="-10009.9" gradientTransform="translate(-538.1313 -10190.9345) rotate(-15) scale(1 -1)" gradientUnits="userSpaceOnUse" data-active="1">
      <stop offset=".2" stop-color="#ff422a" stop-opacity=".5" data-active="1" />
      <stop offset="1" stop-color="#000" data-active="1" />
      </linearGradient>
    <linearGradient id="linear-gradient-14-10" x1="-27684.9" y1="3829.7" x2="-27681.6" y2="3829.7" gradientTransform="translate(-25834.1551 -10618.8903) rotate(-165.5) scale(1 -1)" gradientUnits="userSpaceOnUse" data-active="1">
      <stop offset=".2" stop-color="#ff422a" stop-opacity=".5" data-active="1" />
      <stop offset="1" stop-color="#000" data-active="1" />
      </linearGradient>
    <linearGradient id="linear-gradient-14-11" x1="-929.9" y1="-8589.9" x2="-926.6" y2="-8589.9" gradientTransform="translate(-145.1058 -8625.7114) rotate(-7.3) scale(1 -1)" gradientUnits="userSpaceOnUse" data-active="1">
      <stop offset=".2" stop-color="#ff422a" stop-opacity=".5" data-active="1" />
      <stop offset="1" stop-color="#000" data-active="1" />
      </linearGradient>
    <linearGradient id="linear-gradient-14-12" x1="-11681.3" y1="6888.3" x2="-11678" y2="6888.3" gradientTransform="translate(261.5367 13568.9997) rotate(58.4) scale(1 -1)" gradientUnits="userSpaceOnUse" data-active="1">
      <stop offset="0" stop-color="#ff422a" data-active="1" />
      <stop offset="1" stop-color="#bf0030" data-active="1" />
      </linearGradient>
    <linearGradient id="linear-gradient-14-13" x1="-2591" y1="-10558.3" x2="-2587.7" y2="-10558.3" gradientTransform="translate(-542.5181 -10840.9375) rotate(-16.7) scale(1 -1)" gradientUnits="userSpaceOnUse" data-active="1">
      <stop offset=".2" stop-color="#ff422a" stop-opacity=".5" data-active="1" />
      <stop offset="1" stop-color="#000" data-active="1" />
      </linearGradient>
    <linearGradient id="linear-gradient-14-14" x1="-26822.5" y1="-844.6" x2="-26819.2" y2="-844.6" gradientTransform="translate(-25546.7742 -14731.0851) rotate(-148.4) scale(1.1 -1)" gradientUnits="userSpaceOnUse" data-active="1">
      <stop offset=".2" stop-color="#ff422a" stop-opacity=".5" data-active="1" />
      <stop offset="1" stop-color="#000" data-active="1" />
      </linearGradient>
    <linearGradient id="linear-gradient-14-15" x1="-26825.7" y1="-836.9" x2="-26822.3" y2="-836.9" gradientTransform="translate(-25546.7742 -14731.0851) rotate(-148.4) scale(1.1 -1)" gradientUnits="userSpaceOnUse" data-active="1">
      <stop offset=".2" stop-color="#ff422a" stop-opacity=".5" data-active="1" />
      <stop offset="1" stop-color="#000" data-active="1" />
      </linearGradient>
    <linearGradient id="linear-gradient-14-16" x1="-9939.3" y1="-14525.3" x2="-9935.8" y2="-14525.3" gradientTransform="translate(-3436.844 -17841.3033) rotate(-47.9) scale(1.1 -1)" gradientUnits="userSpaceOnUse" data-active="1">
      <stop offset=".2" stop-color="#ff422a" stop-opacity=".5" data-active="1" />
      <stop offset="1" stop-color="#000" data-active="1" />
      </linearGradient>
    <linearGradient id="linear-gradient-14-17" x1="17.1" y1="-4028.5" x2="17.1" y2="-4038.2" gradientTransform="translate(0 -3993.3071) scale(1 -1)" gradientUnits="userSpaceOnUse" data-active="1">
      <stop offset=".2" stop-color="#cf0" stop-opacity=".5" data-active="1" />
      <stop offset="1" stop-color="#b4c500" data-active="1" />
      </linearGradient>
    <linearGradient id="linear-gradient-14-18" x1="16.9" y1="-4024.7" x2="16.9" y2="-4032.2" gradientTransform="translate(0 -3993.3071) scale(1 -1)" gradientUnits="userSpaceOnUse" data-active="1">
      <stop offset="0" stop-color="#c8c9c9" data-active="1" />
      <stop offset="1" stop-color="#828282" data-active="1" />
      </linearGradient>
    <radialGradient id="radial-gradient-14-0" cx="16.9" cy="-3025.6" fx="16.9" fy="-3025.6" r="11.5" gradientTransform="translate(-.4 -2979.3071) scale(1 -1)" gradientUnits="userSpaceOnUse" data-active="1">
      <stop offset="0" stop-color="#fff" data-active="1" />
      <stop offset="0" stop-color="#ececec" data-active="1" />
      <stop offset=".3" stop-color="#cfcfcf" data-active="1" />
      <stop offset=".6" stop-color="#bababa" data-active="1" />
      <stop offset=".8" stop-color="#aeaeae" data-active="1" />
      <stop offset="1" stop-color="#aaa" data-active="1" />
      </radialGradient>
    <radialGradient id="radial-gradient-14-1" cx="-299.8" cy="-3027.4" fx="-299.8" fy="-3027.4" r="10.2" gradientTransform="translate(376.6357 -2979.3071) scale(1.2 -1)" gradientUnits="userSpaceOnUse" data-active="1">
      <stop offset="0" stop-color="#fff" data-active="1" />
      <stop offset="0" stop-color="#fefefe" data-active="1" />
      <stop offset=".2" stop-color="#f8d6d4" data-active="1" />
      <stop offset=".3" stop-color="#f2b5b2" data-active="1" />
      <stop offset=".5" stop-color="#ee9b98" data-active="1" />
      <stop offset=".6" stop-color="#eb8985" data-active="1" />
      <stop offset=".8" stop-color="#e97e79" data-active="1" />
      <stop offset="1" stop-color="#e97b76" data-active="1" />
      </radialGradient>
    <linearGradient id="linear-gradient-14-19" x1="16.9" y1="3085.7" x2="16.9" y2="3076.1" gradientTransform="translate(0 -3032.6929)" gradientUnits="userSpaceOnUse" data-active="1">
      <stop offset="0" stop-color="#f9ae94" data-active="1" />
      <stop offset=".5" stop-color="#cd986a" data-active="1" />
      <stop offset="1" stop-color="#f9ae94" data-active="1" />
      </linearGradient>
    <radialGradient id="radial-gradient-14-2" cx="16.6" cy="-997.1" fx="16.6" fy="-997.1" r="12.7" gradientTransform="translate(0 -951.3) scale(1 -1)" gradientUnits="userSpaceOnUse" data-active="1">
      <stop offset="0" stop-color="#fff" data-active="1" />
      <stop offset="0" stop-color="#fdf3ea" data-active="1" />
      <stop offset=".2" stop-color="#f9d8b9" data-active="1" />
      <stop offset=".3" stop-color="#f5c18f" data-active="1" />
      <stop offset=".4" stop-color="#f2ae6c" data-active="1" />
      <stop offset=".6" stop-color="#f09f52" data-active="1" />
      <stop offset=".7" stop-color="#ef953f" data-active="1" />
      <stop offset=".9" stop-color="#ee8f33" data-active="1" />
      <stop offset="1" stop-color="#ee8d30" data-active="1" />
      </radialGradient>
    </defs>
  <g id="base" data-active="1">
    <path id="bone-base" d="M33,16.5l-2.3,1.2c-2.1,1.4,0,8.6-1.6,10.8,0,4.4-3.7,3.5-4.8,3.4-3.2-.2-10.7,0-14.4,0s-4.1-2.9-4.2-2.8c-1.7,0-1.8-11.4-1.8-11.4l-1.2-2c-.2-.4-1.9-.9-1.9-1.4V.3h32.3v16.2h0Z" data-active="1" style="fill: #fdecc5;" />
    <path id="gum-base" d="M33.2,17.2c-.9,1-2.3,1.7-2.7,3-.9,3.5-.2,7.6-1.4,11-1.7,5.1-5.1.4-8.4.5-3.3,0-6.9-.2-10,.5-1.9.6-3.9,2.6-5.9,1.2C0,29.7,3.3,20.8,1.5,15.8c-.2-.9-1.7-2.3-.9-2.8.9-.5,3.5,1,3.8,2.2,1.7,3.7-1.6,13.9,2.9,15.2,2.2.3,7-.6,11.1-.9,3.1-.6,7.9.9,9.6-2.3,1.7-3.2-.1-8.1,2.1-11.1s4.6-1.2,3.2.9h0v.2h0Z" data-active="1" style="fill: #f79f9a;" />
    </g>
  <g id="mods" data-active="1">
    <path id="parodontal" d="M7.4,33.4c1.1.5,2.5.2,3.8.3,3.6.5,6.5.8,9.8,0,1.3-.3,3-.2,4.2-.3.8,0,1.3-.4,1.4-1.2.1-2.6.5-5.2.6-7.9,0-1.8.9-5-.5-6.4-1.4-1.1-4-1.7-6-1.3-2,.6-1,4.2-2.1,5.5s-1.8.5-2.2,0-.7-2.3-1-3c-1.4-3.5-6.5-1.2-8.9-.1-.8.4-.5,2-.6,2.9-.2,1.5,0,3.4,0,5,.3,2.3-.8,4.7,1.1,6.3h0l.2.2s.2,0,.2,0Z" data-active="1" style="display: none; fill: #ffa46a;" />
    <g id="inflammation" data-active="1">
      <g id="cysta" data-active="1" style="display: none;">
        <path id="cysta-outside" d="M6.5,2.8c-2.6,2.5-1.6,9.3,1.6,11.2s4.8,1.9,7,2.1c4.1.4,11.4-.5,12.9-6.7C29.5,1.6,21.5-.3,15.9,0,13,0,8.8.6,6.5,2.8Z" data-active="1" style="fill: #ffa46a;" />
        <path id="cysta-inside" d="M7.4,3.3c-2.4,2.3-1.4,8.3,1.4,9.9s4.5,1.6,6.4,1.8c3.8.3,10.4-.5,11.8-5.9C28.4,2.1,21.2.5,16.1.7c-2.7,0-6.5.5-8.6,2.4h-.1Z" data-active="1" style="fill: #feffd5;" />
        </g>
      <g id="granuloma" data-active="1" style="display: none;">
        <path id="granuloma-outside" d="M6.9,3.3c-2.9,1.8-1.7,6.7,1.7,8s5.3,1.4,7.5,1.5c4.5.3,12.3-.4,13.9-4.8,1.7-5.6-7-6.9-13-6.7-3.2,0-7.7.4-10.2,2Z" data-active="1" style="fill: #ffa46a;" />
        <path id="granuloma-inside" d="M7.8,4c-2.6,1.5-1.5,5.4,1.5,6.5s4.8,1.1,6.8,1.2c4.1.2,11-.3,12.5-3.8,1.6-4.6-6.1-5.6-11.5-5.5-2.8,0-6.9.3-9.1,1.6h-.1Z" data-active="1" style="fill: #feffd5;" />
        </g>
      <g id="abscess" data-active="1" style="display: none;">
        <path id="abscess-inside" d="M8.4,4.3c-.9.7-2.5-1.6-5.8,1.2s4.4,2,4.8,4.5-2.3,2.8-1.7,3.2,6.6-1.8,7.1-1.7c1.1.4,2,.4,2.9.5,1.3.1,3,0,4.5-.4s2.6.3,3.3-.4,7.5-.6,7.3-1.4-4.3-2.9-4.2-3.4c.2-.9,3.6-3.3,3.4-3.9s-6.4,1.7-7,1.2-.3-1.7-.7-1.9c-.7-.3-1.8,0-2.6-.2s-2.3-.4-3.3-.4c-1.2,0-2.5.2-3.9.6s-1.8.9-2.4,1.5l-1.4-1-.3,1.9Z" data-active="1" style="fill: #feffd5; stroke: #ffa46a; stroke-miterlimit: 10;" />
        </g>
      </g>
    <g id="mobility" data-active="1" style="display: none;">
      <path id="tooth-mobility-2" d="M25.7,9.2l2.6-1.4c-.9,1.7-1.8,3.4-2.8,5.1,1-.5,1.9-1,2.9-1.4-1.2,2-2.4,4-3.5,6.1,1.1-.3,2.2-.6,3.3-.9-1,1.5-2,3-3.1,4.5.7-.2,1.4-.4,2.1-.5-.7,1.2-1.4,2.3-2.1,3.5.9-.5,1.8-.8,2.7-1-.8,1.1-1.6,2.3-2.3,3.6.6-.3,1.2-.4,1.9-.4-.7.9-1.5,1.8-2.2,2.7" data-active="1" style="fill: none; stroke: #f99; stroke-miterlimit: 10; stroke-width: .8px;" />
      <path id="tooth-mobility-1" d="M6.8,9.4c1.1-.4,2.4-.2,3.4.7-1.4,1.3-2.8,2.5-4.3,3.5,1.4-.2,2.9-.1,4.4.3-1.4,1.2-2.7,2.5-4,3.8,1.1,0,2.2.2,3.2.5-.9.9-1.9,1.8-2.8,2.7.8,0,1.7.2,2.5.6-.9,1.2-1.8,2.6-2.5,4,1-.2,2-.5,3-.7-1.4,1.1-2.6,2.7-3.7,4.4.8.1,1.7,0,2.5-.1" data-active="1" style="fill: none; stroke: #f99; stroke-miterlimit: 10; stroke-width: .8px;" />
      </g>
    </g>
  <g id="tooth-variants" data-active="1">
    <path id="no-tooth-after-extraction" d="M15.8,31.9c-3,0-8.2,2.4-7.2-1.6,2.2-9.1-1.5-21.4.5-24.5,1.8-2.2,3.5,0,4,2.3,1.2,4.3.9,9.8,1.8,14.4.4,1.9,2.5,2.3,3.9,1.5,1-.5,1.2-2,1.3-3.7.4-4.1.5-8.6,1.4-12.2.4-1.6.8-2.8,2.4-2.9,4.3,0-.5,15.5,1.1,23.4.6,2.1-1.6,3.6-3.2,3.5,0,0-1.2.3-6,0,0,0,0-.2,0-.2Z" data-active="1" style="display: none; fill: #fff; stroke: #f99; stroke-miterlimit: 10; stroke-width: .2px;" />
    <path id="tooth-under-gum" d="M12.9,8.3c.3.9.8,1.9,1.7,2.3.8.3,1.4-.4,1.5-1.1.5-2.4-.7-5.1-.2-7.5.3-.9,1.2-.9,1.7-.2.7.8.9,1.9,1.2,2.9.5,1.8.2,3.5.1,5.3-.2,2,0,4,1,5.8,1.5,3.6,5.5,9.3,1,11.7-.7.2-1.5,0-2.3,0-1.6-.2-2.5.9-3.9,1.4-4.3,1.4-4.5-6.2-4-8.7.3-1.2.6-2.4.4-3.6-.3-2.5-1.4-5-1.7-7.4-.3-1.6-.3-3.2-.2-4.9,0-.8.6-3,1.7-1.8,1,1.7,1.2,4.1,1.8,5.8,0,0,.2,0,.2,0Z" data-active="1" style="display: none; fill: #ebebeb; stroke: #c8c9c9; stroke-miterlimit: 10;" />
    <path id="tooth-broken-inicisal" d="M14,19c.3,1.9.9,4.3,2.6,5.3,1.5.9,2.9-.4,3.4-1.8,1.7-4.8.3-10.7,2.2-15.5.8-1.7,2.6-1.5,3.4.2,1,1.9,1.1,4.3,1.4,6.5.3,3.8-.7,7.3-1.6,11-1,4-1.2,8.3,0,12.4,1.7,7.5,6.8,19.4-.3,23.6s-.4-.9-1-.7c-.8,0-1.1-2.3-2-2.5s-2.2-2.9-2.9-3.1c-.8-.3-2.3,1.2-3.8,1.2s-2.8-1.3-3.5-1c-1.1.4.3,7.3-1,7.5-8.9,1.4-6.7-14.5-4.9-19.4.9-2.3,1.9-4.7,2.1-7.3.3-5.2-1.1-10.8-.8-15.9,0-3.3.5-6.8,1.2-10.1.2-1.7,2.2-5.9,3.9-3.2,1.4,3.9.9,8.8,1.6,12.6,0,0,0,.2,0,.2Z" data-active="1" style="display: none; fill: #ebebeb; stroke: #c8c9c9; stroke-miterlimit: 10;" />
    <path id="tooth-broken-mesial-distal-inicisal" d="M14,19c.3,1.9.9,4.3,2.6,5.3,1.5.9,2.9-.4,3.4-1.8,1.7-4.8.3-10.7,2.2-15.5.8-1.7,2.6-1.5,3.4.2,1,1.9,1.1,4.3,1.4,6.5.3,3.8-.7,7.3-1.6,11-1,4-1.2,8.3,0,12.4.7,3,1.6,6.7,2.3,10.3s-2.9,1.9-2.9,3.4-3.2,1.2-3.7,2.6-.6,2.1,0,3.1c1.2,2.3,4,4.4,2.2,5.1-1.4.2-4.7-4.3-6.3-4.7-1.5-.5-1.7,0-3,.4s-1.9-2.1-3.4-1.8c-2.3.4-3.4,6.3-4.1,4.8s-.6-2.3-.7-3.7,1.9-1.8,1.8-2.6c0-2.2,2.7-1.7,3-3.8s-2.3-3.8-1.9-4.8-2.1-4.5-1.7-5.6.8-2.7.9-4.1c.3-5.2-1.1-10.8-.8-15.9,0-3.3.5-6.8,1.2-10.1.2-1.7,2.2-5.9,3.9-3.2,1.4,3.9.9,8.8,1.6,12.6v.2h.1v-.3s.1,0,.1,0Z" data-active="1" style="display: none; fill: #ebebeb; stroke: #c8c9c9; stroke-miterlimit: 10;" />
    <path id="tooth-broken-mesial-distal" d="M14,19c.3,1.9.9,4.3,2.6,5.3,1.5.9,2.9-.4,3.4-1.8,1.7-4.8.3-10.7,2.2-15.5.8-1.7,2.6-1.5,3.4.2,1,1.9,1.1,4.3,1.4,6.5.3,3.8-.7,7.3-1.6,11-1,4-1.2,8.3,0,12.4.7,3,1.6,6.7,2.3,10.3s-2.9,1.9-2.9,3.4-3.2,1.2-3.7,2.6-.6,2.1,0,3.1c1.2,2.3,4,4.4,2.2,5.1-1.4.2-2.9-.5-4.5-.9-3-1-5.1,1-8,1.5-3.9.6-4.7-2.1-5-5.7s1.9-1.8,1.8-2.6c0-2.2,2.7-1.7,3-3.8s-2.3-3.8-1.9-4.8-2.1-4.5-1.7-5.6.8-2.7.9-4.1c.3-5.2-1.1-10.8-.8-15.9,0-3.3.5-6.8,1.2-10.1.2-1.7,2.2-5.9,3.9-3.2,1.4,3.9.9,8.8,1.6,12.6v.2h.1v-.2h.1Z" data-active="1" style="display: none; fill: #ebebeb; stroke: #c8c9c9; stroke-miterlimit: 10;" />
    <path id="tooth-broken-mesial-inicisal" d="M14,19c.3,1.9.9,4.3,2.6,5.3,1.5.9,2.9-.4,3.4-1.8,1.7-4.8.3-10.7,2.2-15.5.8-1.7,2.6-1.5,3.4.2,1,1.9,1.1,4.3,1.4,6.5.3,3.8-.7,7.3-1.6,11-1,4-1.2,8.3,0,12.4.6,2.8,1.8,6.3,2.5,9.7s-2.4,1.8-2.2,2.9c.3,2.1-1.1,2.3-1.5,4s-2.6-2.3-3.6-1.3-.1,3.2-1.4,3.6c-1.4.2-1.9-1.3-3.5-1.7-1.1-.4,1.1,5.9.2,6.1-1.6.4-3.1,1.3-5,1.6-8.9,1.4-6.7-14.5-4.9-19.4.9-2.3,1.9-4.7,2.1-7.3.3-5.2-1.1-10.8-.8-15.9,0-3.3.5-6.8,1.2-10.1.2-1.7,2.2-5.9,3.9-3.2,1.4,3.9.9,8.8,1.6,12.6v.2h0Z" data-active="1" style="display: none; fill: #ebebeb; stroke: #c8c9c9; stroke-miterlimit: 10;" />
    <path id="tooth-broken-mesial" d="M14,19c.3,1.9.9,4.3,2.6,5.3,1.5.9,2.9-.4,3.4-1.8,1.7-4.8.3-10.7,2.2-15.5.8-1.7,2.6-1.5,3.4.2,1,1.9,1.1,4.3,1.4,6.5.3,3.8-.7,7.3-1.6,11-1,4-1.2,8.3,0,12.4.7,3,1.6,6.7,2.3,10.3s-2.9,1.9-2.9,3.4-3.2,1.2-3.7,2.6-.6,2.1,0,3.1c1.2,2.3,4,4.4,2.2,5.1-1.4.2-2.9-.5-4.5-.9-3-1-5.1,1-8,1.5-8.9,1.4-6.7-14.5-4.9-19.4.9-2.3,1.9-4.7,2.1-7.3.3-5.2-1.1-10.8-.8-15.9,0-3.3.5-6.8,1.2-10.1.2-1.7,2.2-5.9,3.9-3.2,1.4,3.9.9,8.8,1.6,12.6v.2h.1Z" data-active="1" style="display: none; fill: #ebebeb; stroke: #c8c9c9; stroke-miterlimit: 10;" />
    <path id="tooth-broken-distal-inicisal" d="M14,19c.3,1.9.9,4.3,2.6,5.3,1.5.9,2.9-.4,3.4-1.8,1.7-4.8.3-10.7,2.2-15.5.8-1.7,2.6-1.5,3.4.2,1,1.9,1.1,4.3,1.4,6.5.3,3.8-.7,7.3-1.6,11-1,4-1.2,8.3,0,12.4,1.8,8,7.5,21.1-2,24.4-1.4.2-2.9-.5-4.5-.9-1.1-.4-.9-3.5-1.9-3.2s-2-3.5-2.6-3.6c-1,0-.2-9.1-2.5-2.9-2.5.4-1.9,5.1-2.9,3.4s-1.6.9-1.7-.9,0-2,0-3.2-2.6-1.6-2.4-2.9.7-3.4,1.1-4.5c.9-2.3,1.9-4.7,2.1-7.3.3-5.2-1.1-10.8-.8-15.9,0-3.3.5-6.8,1.2-10.1.2-1.7,2.2-5.9,3.9-3.2,1.4,3.9.9,8.8,1.6,12.6v.2h0Z" data-active="1" style="display: none; fill: #ebebeb; stroke: #c8c9c9; stroke-miterlimit: 10;" />
    <path id="tooth-broken-distal" d="M14,19c.3,1.9.9,4.3,2.6,5.3,1.5.9,2.9-.4,3.4-1.8,1.7-4.8.3-10.7,2.2-15.5.8-1.7,2.6-1.5,3.4.2,1,1.9,1.1,4.3,1.4,6.5.3,3.8-.7,7.3-1.6,11-1,4-1.2,8.3,0,12.4,1.8,8,7.5,21.1-2,24.4-1.4.2-2.9-.5-4.5-.9-3-1-5.1,1-8,1.5-1.1.2-2.1,0-2.9-.3-2-.8,4.3-5.3,3.9-8s-3.9-.2-3.9-1.4,1.8-3.1,1.9-4c.2-1.6-4.9-2-4.6-3.3s.5-1.8.7-2.5c.9-2.3,1.9-4.7,2.1-7.3.3-5.2-1.1-10.8-.8-15.9,0-3.3.5-6.8,1.2-10.1.2-1.7,2.2-5.9,3.9-3.2,1.4,3.9.9,8.8,1.6,12.6v.2h0Z" data-active="1" style="display: none; fill: #ebebeb; stroke: #c8c9c9; stroke-miterlimit: 10;" />
    <path id="tooth-crownprep" d="M14,19.1c.3,3.5,3.7,7.8,6,3,1.6-4.3.6-9.3,1.8-13.7.3-1.1,1.1-2.6,2.4-2.4,3.9,1.5,3.1,12.1,2.1,15.5-.7,3.2-.9,6.2-.9,9.4s1.5,4.3,1.8,6.5-1.8-.3-1.8.5-.5,3.9-.8,4.8c-.7,1.6-2.7,1.1-3.6.9-2-.4-3.4-.3-5,0-2.1.5-1.7.9-4.9.7-2.2-1.3-2.2-3.9-1.7-6.1s-2.2,0-2.2-.6c.5-7.9-.9-16.2.4-24.2.5-2.6.5-6.1,2.8-7.8.9-.5,1.6.2,2,1,1.5,3.8.9,8.6,1.6,12.2v.2h0v.2h0Z" data-active="1" style="display: none; fill: #ebebeb; stroke: #c8c9c9; stroke-miterlimit: 10;" />
    <path id="tooth-radix" d="M14,19.1c.3,3.5,3.7,7.8,6,3,1.6-4.3.6-9.3,1.8-13.7.3-1.1,1.1-2.6,2.4-2.4,3.9,1.5,3.1,12.1,2.1,15.5-.7,3.2-.9,6.2-.9,9.4s1.5,4.3,1.8,6.5-4.6,3.8-9.5,3.7-9.9-2.7-9.9-3c.5-7.9-1.5-16.7-.2-24.7.5-2.6.5-6.1,2.8-7.8.9-.5,1.6.2,2,1,1.5,3.8.9,8.6,1.6,12.2v.2h0v.2h0Z" data-active="1" style="display: none; fill: #ebebeb; stroke: #c8c9c9; stroke-miterlimit: 10;" />
    </g>
  <g id="tooth" data-active="1">
    <path id="tooth-base" d="M14,18.8c.3,1.9.9,4.3,2.6,5.3,1.5.9,2.9-.4,3.4-1.8,1.7-4.8.3-10.7,2.2-15.5.8-1.7,2.6-1.5,3.4.2,1,1.9,1.1,4.3,1.4,6.5.3,3.8-.7,7.3-1.6,11-1,4-1.2,8.3,0,12.4,1.8,8,7.5,21.1-2,24.4-1.4.2-2.9-.5-4.5-.9-3-1-5.1,1-8,1.5-8.9,1.4-6.7-14.5-4.9-19.4.9-2.3,1.9-4.7,2.1-7.3.3-5.2-1.1-10.8-.8-15.9,0-3.3.5-6.8,1.2-10.1.2-1.7,2.2-5.9,3.9-3.2,1.4,3.9.9,8.8,1.6,12.6,0,0,0,.2,0,.2Z" data-active="1" style="fill: #ebebeb; stroke: #c8c9c9; stroke-miterlimit: 10;" />
    <g id="tooth-base-beauty" data-active="1">
      <path id="tooth-base-beauty-1" d="M26.9,49.1s0-.2.1-.2v.2c0,1.4,0,2.8-.2,4.2s-1.2,3.2-2.3,4.1-.5.3-.8.2c.1-.4.3-.5.5-.8,1.3-2.2,2.2-4.7,2.6-7.6h0Z" data-active="1" style="fill: #fefdfd;" />
      <path id="tooth-base-beauty-2" d="M13.1,56.3c1.7-.8,4.5-1.2,6.1.6-1.5-.4-2.9-.4-4.4,0l-2.2.8c-.8.3-1.6.4-2.3,0l2.9-1.4s-.1,0,0,0h0Z" data-active="1" style="fill: #fefefe;" />
      </g>
    <g id="tooth-inflam-pulp" data-active="1" style="display: none;">
      <path id="tooth-inflam-pulp-base-2" d="M11.5,7.8c.9.6,0,3.7.3,6.1,0,3.3.6,7,2.2,9.8.8,1.2,1.5,2,2.8,2.1,1,.2,2.1,0,2.8-.5,2.2-1.6,3.7-8.5,4-12.2.2-1.1.3-6.9,1.4-3,.9,3.6-.7,6.1-1.2,10-.9,3.1-2.2,6.6-1.7,10.9.3,2.6,1.4,5.8,1.9,8.3s-.8,2.4-3,1.3c-1.6-.6-2.8-2.2-4.7-1.8-2.9.6-5,3.5-5.9,3-.4-.2-.6-1.7-.4-2.1.5-2.5,1.4-5,1.6-7.5.2-2.6-.2-5.4-.5-8.1-.3-2.6-2-15.7.4-16.6h0v.3h0Z" data-active="1" style="fill: #ff422a;" />
      <path id="tooth-inflam-pulp-base-1" d="M13.7,29.4c.3-.7,0-1.5,0-2.3.4,1.7.7,4.4.5,6.3,0,.5-.3,1.5-.4,1.8,0,.2,0,0,.2-.5.2-.4.4-.8.7-1,.2,0,.4-.2.5-.2,0-.2,0-.3-.2-.6-.6-1.1-.7-2.5-.7-3.9s0-1.5,1-.4c1.9,1.7,2.9,0,4.4-.8.4,0,0,2.3,0,3.3s-.5,1.8-1,2.5h0c.6-.2,1,.2,1.3.8.2.5.3.8.3.7-.6-2.9-.6-6.2.6-9,0,.8-.3,2.6-.2,3.7-.2,2.3,1.9,6.4,0,7.5-1,.3-2.5-.9-4-.8-1.2,0-2.5,1.1-3.6.4-1.7-1.5-.2-5.5.4-7.3h.2s0-.2,0-.2Z" data-active="1" style="fill: #ffa46a;" />
      <path id="pulp-inflam-path-8" d="M24.8,20.9h0v-.2c-.3-.1-.6-.2-.8-.1-.6.2-1.3.3-1.8.6s-.9.7-.1.8,2.1-.2,2.7-1.1Z" data-active="1" style="fill: url(#linear-gradient-14-0);" />
      <path id="pulp-inflam-path-7" d="M8.3,20.1h0v.2c0,.2.3.4.6.5.6.2,1.3.3,1.9.4s1,0,.5-.6-2-.9-2.9-.4h0Z" data-active="1" style="fill: url(#linear-gradient-14-1);" />
      <path id="pulp-inflam-path-6" d="M26,13.3h0v-.2c-.2-.2-.5-.3-.7-.2-.6,0-1.3.1-1.9.4s-1,.5-.1.7,2.1,0,2.8-.7h0Z" data-active="1" style="fill: url(#linear-gradient-14-2);" />
      <path id="pulp-inflam-path-5" d="M8.1,12.8h0v.2c0,.2.4.4.6.4.6,0,1.3.2,1.9,0s1-.3.3-.7-2.1-.5-2.9,0h0Z" data-active="1" style="fill: url(#linear-gradient-14-3);" />
      <path id="pulp-inflam-path-4" d="M12.9,15h0s0-.1-.1-.2c-.2-.1-.5-.1-.8-.1-.6,0-1.2.4-1.8.7s-.8.6,0,.7,2.1-.3,2.7-1.1Z" data-active="1" style="fill: url(#linear-gradient-14-4);" />
      <path id="pulp-inflam-path-3" d="M21.7,8.7h0v.2c0,.3.3.5.5.7.5.4,1.2.7,1.8.9s1.1.2.6-.5-1.7-1.4-2.8-1.4h-.1Z" data-active="1" style="fill: url(#linear-gradient-14-5);" />
      <path id="pulp-inflam-path-2" d="M20.8,15.5h0v.2c0,.3.3.5.5.7.5.4,1.2.7,1.8.9s1.1.2.6-.5-1.7-1.4-2.8-1.4h-.1Z" data-active="1" style="fill: url(#linear-gradient-14-6);" />
      <path id="pulp-inflam-path-1" d="M12.2,7.9h-.2c-.3,0-.5.2-.8.3-.5.4-.9,1-1.3,1.6s-.4,1,.3.7,1.7-1.4,1.9-2.6h.1Z" data-active="1" style="fill: url(#linear-gradient-14-7);" />
      </g>
    <g id="tooth-healthy-pulp" data-active="1">
      <path id="tooth-healthy-pulp-2" d="M11.6,7.2c.7,1.6,0,4,.2,5.8.2,4,.7,9.8,3.7,12.7,1.3,1,3,.7,4.2-.4,3-3.2,3.9-12.1,4.5-16.6.3-1.1.8.4.9.8.9,3.7-.9,7.7-1.6,11.2-.9,3-1.9,6.8-1.2,10.6.7,4.3,4,10.9-3.7,7.2-1.3-.6-2.9,0-4.2.5-1.1.4-2.2,1.6-3.1,1-.5-.4-1.3-1.3-1.3-2s.2-1.3.3-1.9c.9-3.8,1.1-7.8.8-11.7,0-1.3-2.3-16.9.3-17.3h.2Z" data-active="1" style="fill: #fcc5bc;" />
      <path id="tooth-healthy-pulp-1" d="M13.7,28.5c.3-.7,0-1.7,0-2.5.4,1.9.7,4.9.5,7,0,.5-.3,1.6-.4,2,0,.2,0,0,.2-.5s.4-.9.7-1.1c.2,0,.4-.2.5-.3,0-.2,0-.4-.2-.6-.6-1.3-.7-2.8-.7-4.4s0-1.7,1-.5c1.9,1.9,2.9,0,4.4-.9.4,0,0,2.5,0,3.6s-.5,2-1,2.8h0c.6-.2,1,.2,1.3.9.2.5.3.9.3.7-.6-3.3-.6-6.9.6-10.1,0,.9-.3,2.9-.2,4.1-.2,2.5,1.9,7.2,0,8.4-1,.4-2.5-1-4-.9-1.2,0-2.5,1.2-3.6.5-1.7-1.7-.2-6.2.4-8.1h.2Z" data-active="1" style="fill: #f6a09b;" />
      </g>
    <path id="tooth-bruxism-wear" d="M10.7,53.8c.5.5,1,1,1.7.8.5,0,1.2-.5,1.8-.4.5,0,.9.4,1.3.6.9.4,1.7-.3,2.5-.7,1.3-.8,2.2.8,3.4,0,.9-.7,1.5-1.4,2.3-.5.4.3.8.9,1.3.5.4-.3.8-.9,1.4-.9,1.1.2,1.6,1.6,1.8,2.5.2,1.2-.6,2.4-1.7,3.5-3.2,4.1-5.5.7-9.5.9-1.5,0-3,.9-4.4,1.5s-3,0-4.6-.3c-1.6-.4-2.8-1.8-3.3-3.3-.2-1.1-.5-3-.2-4,1-1.7,4.8-1.7,5.9-.5h.1s.2.3.2.3Z" data-active="1" style="display: none; fill: #fff; stroke: #aaa; stroke-miterlimit: 10; stroke-width: .5px;" />
    <path id="tooth-bruxism-neck-wear" d="M20.5,44.8c-.4-.3-.7-.6-1.3-.5-.4,0-.9.3-1.4.2-.4,0-.7-.2-1-.3-.7-.2-1.3,0-1.9.3-1,.4-1.6-.5-2.6,0-.7.4-1.1.7-1.7.2-.3-.2-.6-.5-1-.3-.3.2-.6.5-1.1.5-.8,0-1.2-.9-1.3-1.4,0-.7.5-1.3,1.3-1.9,2.4-2.2,4.1-.3,7.1-.4,1.1,0,2.3-.5,3.3-.8s2.3,0,3.4.2c1.2.2,2.1,1,2.4,1.9.1.6.3,1.7.1,2.2-.8.9-3.6.9-4.4.2h0v-.2c-.1,0,0,0,0,0h0Z" data-active="1" style="display: none; fill: #fff; stroke: #aaa; stroke-miterlimit: 10; stroke-width: .5px;" />
    </g>
  <g id="milktooth" data-active="1" style="display: none;">
    <path id="milktooth-base" d="M13.9,18.3c.4,3.5,3.9,7.9,6.5,3.3,2.1-4.7.3-10.6,2.6-15.3.4-.8,1.3-1.4,2.2-1.1,2.5,1,2.6,4.6,3,7,.8,5.4-1.8,10.5-2.4,15.8-.4,3.1.2,6.3.9,9.3.7,5.1,4.1,11.4,4.4,16.8.5,6.1-5.3,8.4-10.2,6-1-.6-1.7-1.8-2.9-2-1.9-.2-4.5,2.5-7,3.2-1,.3-2.2.3-3.2,0-6.5-1.9-4.6-13.7-3-18.6,1-2.6,2.3-5.2,2.5-8,.4-5.6-1.2-11.3-.8-16.8,0-2.5.4-5.1.9-7.6.4-1.8.8-3.9,2.2-5.1,1.2-1.1,2.4,0,2.8,1.3,1.2,3.8.8,8,1.5,11.7v.2h0Z" data-active="1" style="fill: #fff; stroke: #c8c9c9; stroke-miterlimit: 10;" />
    <g id="milktooth-beauty" data-active="1">
      <path id="milktooth-beauty-1" d="M28.4,49.3v-.2.2c.2,1.4.5,2.8.5,4.2s-.7,3.3-1.6,4.4-.4.4-.8.3c0-.4.2-.5.4-.9.9-2.4,1.5-5,1.4-7.9h.1Z" data-active="1" style="fill: #eaeaea;" />
      <path id="milktooth-beauty-2" d="M12.4,56.5c1.5-1.1,4.2-2.1,6.1-.6-1.5,0-2.9.2-4.3.9l-2,1.2c-.7.5-1.5.7-2.3.5l2.6-1.9h-.1Z" data-active="1" style="fill: #eaeaea;" />
      </g>
    <g id="milktooth-inflam-pulp" data-active="1" style="display: none;">
      <path id="tooth-inflam-pulp-base" d="M10.6,5.8c.5,1.2.3,3.2.3,4.6,0,4.6.3,8.6,2.2,12.5,1.1,2.6,4.5,4.2,6.8,2.3,2.9-2.9,3.7-8.9,4.4-13.3.6-8.5,2.6-2.4,2.2,1.8-.3,6-3.3,11.2-3,17.4-.5,3.3,5,13-1.2,12.3-2.2-.5-4.4-2.3-6.8-1.6-1.7.4-3.5,1.7-4.6,2.2-.6.3-1.4.2-1.9-.2-2.7-2.2,0-5.8.5-8.5,1.1-3.9,0-8.1-.4-12.1-.3-3.5-.6-8.6-.2-13,.1-1.1.6-4.9,1.6-4.5h0Z" data-active="1" style="fill: url(#linear-gradient-14-8);" />
      <path id="pulp-inflam-path-81" d="M26.4,20.8h0v-.2c-.3-.1-.6-.2-.8-.1-.6.2-1.3.3-1.8.6s-.9.7-.1.8,2.1-.2,2.7-1.1Z" data-active="1" style="fill: url(#linear-gradient-14-9);" />
      <path id="pulp-inflam-path-71" d="M7.1,19.8h0v.2c0,.2.3.4.6.5.6.2,1.3.3,1.9.4s1,0,.5-.6-2-.9-2.9-.4h0Z" data-active="1" style="fill: url(#linear-gradient-14-10);" />
      <path id="pulp-inflam-path-61" d="M27.8,12.2h0v-.2c-.2-.2-.5-.3-.7-.2-.6,0-1.3.1-1.9.4s-1,.5-.1.7,2.1,0,2.8-.7h0Z" data-active="1" style="fill: url(#linear-gradient-14-11);" />
      <path id="pulp-inflam-path-51" d="M9.4,13.3h.2c.2-.2.4-.4.2-.6-.4-.5-.9-1.4-1.5-1.8s-.9-.6-.7.2.9,2,1.8,2.3h0Z" data-active="1" style="fill: url(#linear-gradient-14-12);" />
      <path id="pulp-inflam-path-41" d="M12.9,15.7h0s0-.1-.1-.2c-.2-.1-.5-.1-.8-.1-.6,0-1.2.4-1.8.7s-.8.6,0,.7,2.1-.3,2.7-1.1Z" data-active="1" style="fill: url(#linear-gradient-14-13);" />
      <path id="pulp-inflam-path-31" d="M23,8h0v.2c0,.3.3.5.5.7.5.4,1.2.7,1.8.9s1.1.2.6-.5-1.7-1.4-2.8-1.4h-.1Z" data-active="1" style="fill: url(#linear-gradient-14-14);" />
      <path id="pulp-inflam-path-21" d="M21.9,16.4h0v.2c0,.3.3.5.5.7.5.4,1.2.7,1.8.9s1.1.2.6-.5-1.7-1.4-2.8-1.4h-.1Z" data-active="1" style="fill: url(#linear-gradient-14-15);" />
      <path id="pulp-inflam-path-11" d="M12.3,7.2h-.2c-.3,0-.5.2-.8.3-.5.4-.9,1-1.3,1.6s-.4,1,.3.7,1.7-1.4,1.9-2.6c0,0,.1,0,.1,0Z" data-active="1" style="fill: url(#linear-gradient-14-16);" />
      </g>
    <path id="milktooth-healthy-pulp" d="M10.6,5.8c.5,1.2.3,3.2.3,4.6,0,4.6.3,8.6,2.2,12.5,1.1,2.6,4.5,4.2,6.8,2.3,2.9-2.9,3.7-8.9,4.4-13.3.6-8.5,2.6-2.4,2.2,1.8-.3,6-3.3,11.2-3,17.4-.5,3.3,5,13-1.2,12.3-2.2-.5-4.4-2.3-6.8-1.6-1.7.4-3.5,1.7-4.6,2.2-.6.3-1.4.2-1.9-.2-2.7-2.2,0-5.8.5-8.5,1.1-3.9,0-8.1-.4-12.1-.3-3.5-.6-8.6-.2-13,.1-1.1.6-4.9,1.6-4.5h0Z" data-active="1" style="fill: #fcc5bc;" />
    </g>
  <g id="endos" data-active="1">
    <path id="endo-medical-filling" d="M-2.7,36.2c3.6,1.3,9.1.9,11.7-2.2.7-1.4.4-3.4.1-5-.7-3.5.8-10.7,1-14.3,0-2.9.4-6.7,0-9.2-.6-1.4-.9,6-1.1,6.4-.5,3.8-1.4,7-1.8,10.9-.2,1.4-.5,3-2.1,3.5-1.7.4-4.3,1.9-5.6.1-.9-2.1-1-4.9-1.5-7.3-.4-2.6-.6-4.7-.8-7.4,0-.7-.4-8.8-1.4-5.2-.9,6.4,0,13.2-.5,19.9,0,2-.3,3.5-.6,5.4-.4,1.8.6,3.7,2.3,4.3h.3,0Z" data-active="1" style="display: none; fill: #fff; stroke: #f9ae94; stroke-miterlimit: 10; stroke-width: .2px;" />
    <path id="endo-filling-incomplete" d="M-2.3,35.1c3.5.9,8.8.5,10.9-1.7,1.1-1.4.5-3.1.4-4.6-.2-5,1.7-10.7,1.1-15.8-.3-1.8-.8,1.3-.9,1.8-.4,3.1-1.2,5.8-1.8,8.8-.2,1.1-1,2.2-2.8,2.4-3.8.6-6-1.6-6.5-3.9-.6-.4-1-12.5-2.3-8.8-.8,4.3,0,8.7-.4,13.1.4,2.8-2.6,7,2.1,8.6h.1c0,0,0,0,0,0Z" data-active="1" style="display: none; fill: #388aca;" />
    <path id="endo-filling" d="M-2.3,39.7c3.5,1.3,8.8.8,10.9-2.6,1.1-2.1.5-4.6.4-6.9-.2-7.4,1.7-15.9,1.1-23.5-.3-2.7-.8,1.9-.9,2.7-.4,4.6-1.2,8.6-1.8,13.1-.2,1.7-1,3.3-2.8,3.6-3.8.9-6-2.4-6.5-5.8-.6-.6-1-18.7-2.3-13.1-.8,6.4,0,12.9-.4,19.5.4,4.1-2.6,10.4,2.1,12.8h.1v.2h0Z" data-active="1" style="display: none; fill: #388aca;" />
    <path id="endo-glass-pin" d="M10.1,17.6c-1.5,5.6-.4,13.5-2,18.8-.3.7-.9,1.1-1.7,1.2-1.8,0-3.7-.5-5.3-.3-3.1,1-6.1-1.8-6-5.2.7-3.7.5-14.3,1.3-19.2.5-1.5,1.1,2.6,1.2,2.9.7,3.5.2,8.3,2.9,10.6,1.7.6,4,.2,5.5-.8,2.1-1.8,2-5.7,2.8-8.3.3-1.4.9-4.7,1.4-4.9.3.4.2,1.5.2,2.2s0,2-.2,2.7v.2h0Z" data-active="1" style="display: none; fill: #c8c9c9;" />
    <path id="endo-metal-pin" d="M10.2,17.6c-.5,3.6-1.6,8-1.2,11.8-.2,3.1.7,9.2-2.8,9.4-.9,0-1.9-.4-2.8-.5-2.7-.3-6.9,2.3-7.9-1.7-.4-4.2.4-8.6.4-12.8.3-3.8-.7-7.9.5-11.4.2-.4.5-.2.7.6.6,2.8.4,5.6,1.2,8.4,0,.3.3.9.4,1.1.5,1.2,1.9,1.8,3.2,2.1,1.5.3,4,.5,4.8-1.1.9-2.9,1.8-5.5,2.4-8.3.3-1,.1-2.4.8-3.1.3,0,.4,1.2.4,2.2s0,2.1-.1,3.1h0s0,.2,0,.2Z" data-active="1" style="display: none; fill: #3951a3;" />
    <g id="endo-resorption" style="display: none;" data-active="1">
      <path id="endo-resorption-distal" d="M5.4,6.9S7.7.7,8,.7l4.2.2c1.1,0,2.6,6.9,2.6,7l-.4,1.6c-.1.6-.4,1.2-.7,1.6l-1.3,2c-.8,1.2-2.2,1.3-3.1.2l-1.9-2.3c-.2-.2-.3-.4-.4-.6l-1.7-3.6h.1Z" data-active="1" style="fill: #fdecc5;" />
      <path id="endo-resorption-mesial" d="M19,6.7s2.3-6.2,2.6-6.2l4.2.2c1.1,0,2.6,6.9,2.6,7l-.4,1.6c-.1.6-.4,1.2-.7,1.6l-1.3,2c-.8,1.2-2.2,1.3-3.1.2l-1.9-2.3c-.2-.2-.3-.4-.4-.6l-1.7-3.6h.1Z" data-active="1" style="fill: #fdecc5;" />
      </g>
    <path id="endo-resection" d="M-9.7,10.2S-4.3,1.7-3.5,1.8c2.3,0,7.8-.2,10.5-.2s6.9,9.1,6.9,9.3l.2,7.5-23.6.5-.2-8.7h0Z" data-active="1" style="display: none; fill: #fdecc5;" />
    </g>
  <g id="surfaces" data-active="1">
    <g id="subcaries" data-active="1">
      <path id="subcaries-buccal" d="M14.2,49.9c.5.8,1.4,1.2,2.1,1.2,1.2,0,2.1-.9,2.6-2.5s.4-1,.4-1.7c-.5-3.3-5.6-2.1-6.2-.8-.4,1,.6,2.9,1.1,3.7h0Z" data-active="1" style="display: none; fill: #0a1018; stroke: #000; stroke-miterlimit: 10;" />
      <path id="subcaries-mesial" d="M23.3,42.8c-.2.4-.6,1-1,1.1-3.2.8-.6,8.1,1,9.5,1.8,2.9,5.3,2.5,6-1.2.4-2-.3-8-2.3-10.8s-.4-1.1-.8-1.2-.5.1-.7.2c-.6,0-1.1.5-1.4,1l-.8,1.5Z" data-active="1" style="display: none; fill: #0a1018; stroke: #000; stroke-miterlimit: 10;" />
      <path id="subcaries-distal" d="M7.3,54.6c1.4-.2,2.5-.7,3.1-2.9s.4-4.3.6-5.2c.7-3.8.6-8.3-2.7-7.9-3,.6-4.8,9.5-3.7,14s1.7,1.7,2.7,2h.1Z" data-active="1" style="display: none; fill: #0a1018; stroke: #000; stroke-miterlimit: 10;" />
      <path id="subcaries-occlusal" d="M9.1,61.1c1.6,1.7,3.8.9,5.9.2,1.5-.5,2.8-.5,4.4-.1,4.2.9,6.6-.5,5.1-4.6-1.6-3.7-5.6-3.7-8.9-3.5-4.8,0-10.1,4.1-7,8.7s.3-1,.4-.8h.1s0,0,0,0Z" data-active="1" style="display: none; fill: #0a1018; stroke: #000; stroke-miterlimit: 10;" />
      </g>
    <g id="caries" data-active="1">
      <path id="caries-subcrown" d="M7.5,39c.3,1.8,4.6-2.7,5.7-2.9,1.9-1.3,5.1-3.3,4.6-6.7-1.1-3.9-5.8-3.5-7.6-1.2-.8,1.1-.9,2.2-1.3,3.8-.3,1.9-1.2,5.5-1.3,7h0Z" data-active="1" style="display: none; fill: #0a1018; stroke: #000; stroke-miterlimit: 10;" />
      <path id="caries-buccal" d="M13.1,49.8c.6.6,1.5.9,2.3.9,1.3,0,2.3-.7,2.9-1.9s.4-.8.4-1.3c-.5-2.5-6.1-1.6-6.8-.6-.4.8.7,2.2,1.2,2.8h0Z" data-active="1" style="display: none; fill: #0a1018; stroke: #000; stroke-miterlimit: 10;" />
      <g id="caries-mesial" data-active="1" style="display: none;">
        <path id="mesial-shape" d="M24.2,42.6c-3.6-.2-3.5,7.8-2.1,9,1.4,2.1,5.4,2,6.3-.5.7-1.9-1.5-7.7-4.1-8.4,0,0-.1,0-.1,0Z" data-active="1" style="fill: #0a1018; stroke: #000; stroke-miterlimit: 10;" />
        <path id="mesial-patch2" d="M24.7,46.4c3.2,0-1-3.3-1.8-1.2-.3.7.8,1.3,1.5,1.2h.3Z" data-active="1" style="fill: #fff;" />
        <path id="mesial-patch1" d="M23.5,49.8c1.4,1,4.6-.5,2.1-1.2-1.6-.4-2.5.5-2.1,1.2h0Z" data-active="1" style="fill: #fff;" />
        </g>
      <g id="caries-distal" data-active="1" style="display: none;">
        <path id="distal-shape" d="M7,53.9c1.9-.3,2.7-4.6,3.1-6.7.6-3.1.5-6.8-2.3-6.5-3.5.7-4.2,12.3-.9,13.2h.1Z" data-active="1" style="fill: #0a1018; stroke: #000; stroke-miterlimit: 10;" />
        <path id="distal-patch2" d="M8.5,44.3c.7-.5.5-2.4-.4-2.3s-.7,2.7.2,2.3h.2Z" data-active="1" style="fill: #fff;" />
        <path id="distal-patch1" d="M6.5,50.8c0,.3.5.5.8.6.2,0,.6.2.6,0-.2-.5-.8-1.5-1.1-1.8-.6-.3-.4.9-.3,1.2h0Z" data-active="1" style="fill: #fff;" />
        </g>
      <g id="caries-occlusal" data-active="1" style="display: none;">
        <path id="occlusal-shape" d="M9.8,60c1.4,1.7,3.5,1,5.5.4,1.4-.4,2.6-.4,4.1,0,3.9,1,6.1-.3,4.9-4.4-1.4-3.7-5.1-3.8-8.2-3.7-4.6-.2-9.7,2.7-6.4,7.6h.1Z" data-active="1" style="fill: #0a1018; stroke: #000; stroke-miterlimit: 10;" />
        <path id="occlusal-patch2" d="M18.6,57.2c-.7,3,3.3,1.5,3.6,0,.5-.8.2-2-.5-2.3-1.2-.5-2.4,1-3.2,2.1h0v.2h.1Z" data-active="1" style="fill: #fff; stroke: #000; stroke-miterlimit: 10; stroke-width: .2px;" />
        <path id="occlusal-patch1" d="M10.9,57.3c-.1,1.5,1,2.6,1.6,1.2.4-.9.4-3.1-.4-3.1s-1.1.7-1.1,1.8v.2h-.1Z" data-active="1" style="fill: #fff; stroke: #000; stroke-miterlimit: 10; stroke-width: .2px;" />
        </g>
      </g>
    <g id="fillings" data-active="1">
      <g id="amalgam" data-active="1">
        <path id="filling-amalgam-occlusal" d="M8.5,58.4c-1,2.3.3,4,2.7,3.6,2.2-.2,4.2-1.4,6.3-1.6,2.3-.5,7.7,2.5,7-1.9-.5-3.7-3.4-5.4-7.4-5.3-3.7,0-7.1,1.7-8.5,5v.2h-.1Z" data-active="1" style="display: none; fill: #aaa; stroke: #aaa; stroke-miterlimit: 10;" />
        <path id="filling-amalgam-buccal" d="M16.3,50.4c1.6-.3,2.7-2.7,2.3-4.2-.5-1.5-3.2-1.3-4.3-.2-1.6,1.5-.1,4.4,1.9,4.4h.2,0Z" data-active="1" style="display: none; fill: #aaa; stroke: #aaa; stroke-miterlimit: 10;" />
        <path id="filling-amalgam-mesial" d="M22.4,45.1c-3.1,1.6,0,5,.8,7.3.4.8.7,1.9,1.6,2.2,2.2.9,4.2-.5,4.3-2.8-.2-2.1-.9-4.3-1.2-6.5-.3-.8-1-6.2-2.3-4.3-.8,1.4-1.6,3.2-3,4h-.2,0Z" data-active="1" style="display: none; fill: #aaa; stroke: #aaa; stroke-miterlimit: 10;" />
        <path id="filling-amalgam-distal" d="M8.5,53.6c2.9-1.3,1.1-5.3,1.8-7.7.4-2.9.8-6.4-1.1-6.9-1.3-.4-2.2,1-2.5,2.1-1.1,3.1-5.2,14.5,1.6,12.6h.2Z" data-active="1" style="display: none; fill: #aaa; stroke: #aaa; stroke-miterlimit: 10;" />
        </g>
      <g id="composite" data-active="1">
        <path id="filling-composite-occlusal" d="M8.5,58.4c-1,2.3.3,4,2.7,3.6,2.2-.2,4.2-1.4,6.3-1.6,2.3-.5,7.7,2.5,7-1.9-.5-3.7-3.4-5.4-7.4-5.3-3.7,0-7.1,1.7-8.5,5v.2h-.1Z" data-active="1" style="display: none; fill: #feffbf; stroke: #feffbf; stroke-miterlimit: 10;" />
        <path id="filling-composite-buccal" d="M16.3,50.4c1.6-.3,2.7-2.7,2.3-4.2-.5-1.5-3.2-1.3-4.3-.2-1.6,1.5-.1,4.4,1.9,4.4h.2,0Z" data-active="1" style="display: none; fill: #feffbf; stroke: #feffbf; stroke-miterlimit: 10;" />
        <path id="filling-composite-mesial" d="M22.4,45.1c-3.1,1.6,0,5,.8,7.3.4.8.7,1.9,1.6,2.2,2.2.9,4.2-.5,4.3-2.8-.2-2.1-.9-4.3-1.2-6.5-.3-.8-1-6.2-2.3-4.3-.8,1.4-1.6,3.2-3,4h-.2Z" data-active="1" style="display: none; fill: #feffbf; stroke: #feffbf; stroke-miterlimit: 10;" />
        <path id="filling-composite-distal" d="M8.5,53.6c2.9-1.3,1.1-5.3,1.8-7.7.4-2.9.8-6.4-1.1-6.9-1.3-.4-2.2,1-2.5,2.1-1.1,3.1-5.2,14.5,1.6,12.6h.2Z" data-active="1" style="display: none; fill: #feffbf; stroke: #feffbf; stroke-miterlimit: 10;" />
        </g>
      <g id="gic" data-active="1">
        <path id="filling-gic-occlusal" d="M8.5,58.4c-1,2.3.3,4,2.7,3.6,2.2-.2,4.2-1.4,6.3-1.6,2.3-.5,7.7,2.5,7-1.9-.5-3.7-3.4-5.4-7.4-5.3-3.7,0-7.1,1.7-8.5,5v.2h-.1Z" data-active="1" style="display: none; fill: #f9ae94; stroke: #f99; stroke-miterlimit: 10;" />
        <path id="filling-gic-buccal" d="M16.3,50.4c1.6-.3,2.7-2.7,2.3-4.2-.5-1.5-3.2-1.3-4.3-.2-1.6,1.5-.1,4.4,1.9,4.4h.2,0Z" data-active="1" style="display: none; fill: #f9ae94; stroke: #f99; stroke-miterlimit: 10;" />
        <path id="filling-gic-mesial" d="M22.4,45.1c-3.1,1.6,0,5,.8,7.3.4.8.7,1.9,1.6,2.2,2.2.9,4.2-.5,4.3-2.8-.2-2.1-.9-4.3-1.2-6.5-.3-.8-1-6.2-2.3-4.3-.8,1.4-1.6,3.2-3,4h-.2,0Z" data-active="1" style="display: none; fill: #f9ae94; stroke: #f99; stroke-miterlimit: 10;" />
        <path id="filling-gic-distal" d="M8.5,53.6c2.9-1.3,1.1-5.3,1.8-7.7.4-2.9.8-6.4-1.1-6.9-1.3-.4-2.2,1-2.5,2.1-1.1,3.1-5.2,14.5,1.6,12.6h.2Z" data-active="1" style="display: none; fill: #f9ae94; stroke: #f99; stroke-miterlimit: 10;" />
        </g>
      <g id="temporary" data-active="1">
        <path id="filling-temporary-occlusal" d="M8.5,58.4c-1,2.3.3,4,2.7,3.6,2.2-.2,4.2-1.4,6.3-1.6,2.3-.5,7.7,2.5,7-1.9-.5-3.7-3.4-5.4-7.4-5.3-3.7,0-7.1,1.7-8.5,5v.2h-.1Z" data-active="1" style="display: none; fill: #fff; stroke: #eee; stroke-miterlimit: 10;" />
        <path id="filling-temporary-buccal" d="M16.3,50.4c1.6-.3,2.7-2.7,2.3-4.2-.5-1.5-3.2-1.3-4.3-.2-1.6,1.5-.1,4.4,1.9,4.4h.2,0Z" data-active="1" style="display: none; fill: #fff; stroke: #eee; stroke-miterlimit: 10;" />
        <path id="filling-temporary-mesial" d="M22.4,45.1c-3.1,1.6,0,5,.8,7.3.4.8.7,1.9,1.6,2.2,2.2.9,4.2-.5,4.3-2.8-.2-2.1-.9-4.3-1.2-6.5-.3-.8-1-6.2-2.3-4.3-.8,1.4-1.6,3.2-3,4h-.2Z" data-active="1" style="display: none; fill: #fff; stroke: #eee; stroke-miterlimit: 10;" />
        <path id="filling-temporary-distal" d="M8.5,53.6c2.9-1.3,1.1-5.3,1.8-7.7.4-2.9.8-6.4-1.1-6.9-1.3-.4-2.2,1-2.5,2.1-1.1,3.1-5.2,14.5,1.6,12.6h.2Z" data-active="1" style="display: none; fill: #fff; stroke: #eee; stroke-miterlimit: 10;" />
        </g>
      </g>
    <g id="contact-point" data-active="1">
      <g id="mesial-no-contact-point" data-active="1" style="display: none;">
        <path d="M27.2,47.2c1,2.4,2.3,5.1,3.6,7.6" data-active="1" style="fill: none; stroke: #aaa; stroke-miterlimit: 10; stroke-width: .5px;" />
        <path d="M27.6,55.3c.7-1.6.7-2.5,1.2-3.8.6-1.4,1.1-2.9,1.3-4.4" data-active="1" style="fill: none; stroke: #aaa; stroke-miterlimit: 10; stroke-width: .5px;" />
        </g>
      <g id="distal-no-contact-point" data-active="1" style="display: none;">
        <path d="M2.5,47.2c1,2.6,2.3,5.4,3.6,8.1" data-active="1" style="fill: none; stroke: #aaa; stroke-miterlimit: 10; stroke-width: .5px;" />
        <path d="M2.6,55.4c.8-1.5.9-2.5,1.6-3.7.7-1.4,1.3-2.8,1.7-4.3" data-active="1" style="fill: none; stroke: #aaa; stroke-miterlimit: 10; stroke-width: .5px;" />
        </g>
      </g>
    <g id="fissure-sealing" data-active="1" style="display: none;">
      <path id="fissure-sealing-occlusal" d="M9.8,62c1.4.2,3.5-.6,5.5-.6s4.8,0,6.3.2c3.9,0,5.6-.7,4.4-1.2-1.4-.5-6.7,0-9.8,0-4.6,0-11.9.7-8.6,1.4l1.2.3h1.1,0Z" data-active="1" style="fill: #3fb6ff; stroke: #3fb6ff; stroke-miterlimit: 10;" />
      </g>
    </g>
  <g id="restorations" data-active="1">
    <g id="implant" data-active="1" style="display: none;">
      <path id="implant-locator-screw" d="M13.5,43.8c.9,1.5,3.8.9,5.4,1,3.2-.5,1.7-4.6,2-7,0-.7.2-1.6-.3-2.1-.2-.3-.7-.4-1-.4-1.5,0-3.4-.2-4.9.2-1.3.3-1.4,1.3-1.4,2.5,0,2-.2,3.9.1,5.7v.2h0Z" data-active="1" style="fill: url(#linear-gradient-14-17); stroke: #c8c9c9; stroke-miterlimit: 10; stroke-width: .2px;" />
      <path id="implant-connector" d="M10.6,37.1h0c.1,1.4,1.1,2.1,1.9,1.7,1.4-.7,1.6-2,3.4-2.1h3.3c.8,0,1.8,1.9,2.9,2.2s1.4-.6,1.3-1.6c0-1.9,0-5.6-.5-5.7s-3.1,0-3.7,0h-4.5c-1,0-2.7-.4-3.5.7-.8,1.1-1,2.9-.8,4l.2.7h0Z" data-active="1" style="fill: url(#linear-gradient-14-18);" />
      <path id="implant-bar" d="M2.7,49.9c5.8.3,21,0,27.4,0s2.8-2.2,3-4.1.2-3.2-1-3.4-4.8,0-6.3,0c-3.6,0-6.7,0-10.1.2-3.8,0-12.1.2-12.7,0-1.1.2-2.2.9-2.2,1.9-.2,1.9-.2,5.5,1.8,5.3h.1Z" data-active="1" style="fill: url(#radial-gradient-14-0);" />
      <g id="implant-healing-abutment" data-active="1" style="display: none;">
        <path id="implant-healing-abutment-connector" d="M13.6,36.3c1.7.3,3.7-.2,5.4-.2,3.3,0,4.2-1.2,3.4-5.6-.8-3.9-1.7-9-2.7-13.4-.3-1.1-.6-2.2-1.1-3.1-2.3-4.5-4.3,1.7-4.7,5-.5,3.4-.6,5.9-1.3,9-.6,2.7-2.4,7.7.7,8.3h.3Z" data-active="1" style="fill: #a0a0a0; stroke: #8c8c8c; stroke-miterlimit: 10; stroke-width: .5px;" />
        <path d="M24.2,32.8h-9.2c-1.4,0-5,.2-5,.2,0,0-.4.9-.7,1.7s-.3,1.2-.3,1.8v2.7c.1.3.2.5.2.7h1.1c2.4-.3,4.9-.4,7.3-.4v-.2c.3,0-.7-.2-.9-.2.4.5-1.8,0-2.1,0-.5,0-.7-.5-.7-1v-2.4c0-.6.6-.5.4-.6l-4.1.3c-.4,0-.7.2-1.1,0l2.5-.5c3.2-.6,6.4-.3,9.5,0,.6,0,1.2,0,1.9.2h.5c.2,0,.4,0,.5.2-.2-.2,0-2.5,0-2.5h.2Z" data-active="1" style="fill: #475563;" />
        <path d="M17.8,39.3v-.2h.2c.1,0,0,0,0-.2.5,0,2,.3,2.6.2.1.3.5.2.7.2.6,0,2.3.2,2.5-.9s.2-1.8,0-2.7-.3-.4-.1-.6h.4s.2,0,.2.4v3.6c0,.2-.1.4-.2.6-.9,0-1.8-.2-2.8-.3h-3.6,0Z" data-active="1" style="fill: #8c8c8c;" />
        <path d="M17.5,35.1c-.1-.2-.3-.2-.5-.2l-.9.2c-.1-.2-.4-.2-.6,0-.1-.2-.9,0-1,0l-4.1.3c-.4,0-.7.2-1.1,0l2.5-.5c3.2-.6,6.4-.3,9.5,0,.1.3,0,.2.3.6.2.3.3.2.4.5.1.7,0,1.5,0,2.1s-.3.8-.7.9c-.7,0-2,.2-2.7,0s-1.4-.2-1.4-.6v-.9c-.1-.4,0-1.5,0-2s.5-.7.3-.5h0Z" data-active="1" style="fill: #e8eef0;" />
        <path d="M20.6,39.1h.7c.4-.2.7-.6.7-1v-1.9c0-.6-.9-1.1-1.5-1.1-.3-.4.9,0,.8-.2.6,0,1.2,0,1.9.2s.3,0,.5,0c-.2.2,0,.4.1.6.1.9.1,1.8,0,2.7s-1.9,1-2.5.9-.6,0-.7-.2h0Z" data-active="1" style="fill: #a0a0a0;" />
        <path d="M14.5,35c.1,0,.9-.2,1,0,.2-.2.5-.2.6,0,0,0-.2.2-.2.3,0,1-.2,1.9,0,2.9s.6.6,1,.7c.4.5-1.8,0-2.1,0-.5,0-.7-.5-.7-1v-2.4c0-.8.6-.5.4-.6h0Z" data-active="1" style="fill: #6f7c86;" />
        <path d="M17.8,39.1c.3,0-1.1-.3-.9-.2-.4,0-.9,0-1-.7-.2-.9,0-1.9,0-2.9s.2-.2.2-.3l.9-.2c.2,0,.4,0,.5.2-.2.2-.3.4-.3.7v2.5c0,.9.5.6.7.7v.2h-.2,0Z" data-active="1" style="fill: #a0a0a0;" />
        </g>
      <g id="implant-base" data-active="1">
        <path d="M13.8,32.8c-.1-1.3-.2-2.7.2-4h5.6c.4,1,.2,2.9.2,4h-6Z" data-active="1" style="fill: #bbc3c6;" />
        <path d="M15,6.4c-.2,0,0-2.2,0-2.4.2-1.3.9-2.4,1.9-3,1-.6.2,0,.2-.3,1.7,0,3.3,1.1,3.8,3.1.5,2,0,1.2.1,1.8h-1.3c0-.8,0-2.1-.8-2.3s-.7,0-.7.3c0,.8,0,1.5.2,2.1l-3.5.6h0Z" data-active="1" style="fill: #bac3c7;" />
        <path d="M14,28.8c-.4,1.3-.3,2.7-.2,4l-3.8.2c0-.7-.3-4.2.7-4,1.1-.2,2.2-.2,3.3-.2Z" data-active="1" style="fill: #a0a4a5;" />
        <path d="M14.6,28.3v-2.5c1.5-.3,3-.7,4.6-.7l.2,3.3h-4.8Z" data-active="1" style="fill: #bac3c6;" />
        <path d="M17.2.6s-.1.2-.2.3c-1,.6-1.6,1.7-1.9,3-.3,1.3-.2,2.4,0,2.4l-2.4.6c.1-1.1,0-2.2.3-3.3s1.1-2.2,2.1-2.7,1.5-.4,2.2-.4h-.1Z" data-active="1" style="fill: #9ca3a6;" />
        <path d="M19.8,32.8c0-1.1.2-3-.2-4h2.7c.2,1,.3,3,0,4h-2.5Z" data-active="1" style="fill: #e8eef0;" />
        <path d="M14.5,25.7v2.5c.1,0-3.4.2-3.4.2,0-.7,0-1.4.1-2,1.1-.4,2.2-.5,3.2-.8h.1Z" data-active="1" style="fill: #9ea3a4;" />
        <path d="M22.3,32.9c.2-1,.2-3,0-4h1.4c.8.2.7,3.3.5,4h-1.9Z" data-active="1" style="fill: #bcc4c7;" />
        <path d="M19.4,28.3l-.2-3.3c.6-.2,1.3-.2,1.9-.2l.2,3.6h-1.9Z" data-active="1" style="fill: #e3eaeb;" />
        <path d="M21.3,28.4l-.2-3.6c.5-.1,1.1-.1,1.7-.1l.3,3.8h-1.8Z" data-active="1" style="fill: #b8c2c4;" />
        <path d="M14.6,23.9v-1.1c1.5-.3,3-.6,4.5-.7v1.1s-4.5.7-4.5.7Z" data-active="1" style="fill: #b7c0c3;" />
        <path d="M14.7,21c-.1-.4,0-.8,0-1.2,1.5-.3,2.9-.5,4.3-.7v1.2l-4.4.7h0Z" data-active="1" style="fill: #b9c0c4;" />
        <path d="M14.8,18.1c-.3-.4,0-.5-.2-1.1,1.4-.4,2.8-.6,4.3-.8v1.2c-1.3.2-2.7.4-4.1.7Z" data-active="1" style="fill: #b8c0c3;" />
        <path d="M14.7,15.1v-1.1c1.3-.3,2.7-.6,4.1-.7v1.1l-4.1.7Z" data-active="1" style="fill: #b7bfc3;" />
        <path d="M14.8,12.2v-1.1c1.3-.3,2.6-.5,3.9-.7v1.2l-4,.6h.1Z" data-active="1" style="fill: #b9c1c5;" />
        <path d="M14.8,8.2c1.2-.3,2.4-.6,3.7-.7v1.2c-1.2.1-2.4.4-3.7.6,0,0,0-1.1,0-1.1Z" data-active="1" style="fill: #bac3c5;" />
        <path d="M14.6,25.2c0-.2,0-.5-.1-.7-.2.2-.5.3-.6,0,1.7-.4,3.5-.7,5.3-.9.1.2,0,.5,0,.8l-4.6.7h0Z" data-active="1" style="fill: #b7c0c3;" />
        <path d="M14.7,22.3c-.2-.2,0-.5,0-.8,1.5-.3,3-.6,4.5-.7v.8l-4.4.7s-.1,0,0,0h-.1Z" data-active="1" style="fill: #b9c0c3;" />
        <path d="M14.6,22.8v1.1l-3.2.8v-1.1c1-.4,2.1-.5,3.1-.7h0Z" data-active="1" style="fill: #9a9fa1;" />
        <path d="M14.8,19.3c-.1-.3-.2-.4-.2-.7,1.5-.3,2.9-.6,4.3-.7v.8l-4.2.7h0Z" data-active="1" style="fill: #bac0c3;" />
        <path d="M14.7,19.8c0,.4-.1.8,0,1.2l-3.1.7v-1.2c1-.4,2-.5,3-.7,0,0,.1,0,0,0h.1Z" data-active="1" style="fill: #999fa1;" />
        <path d="M14.7,16.4v-.8c1.4-.3,2.8-.5,4.2-.7v.8s-4.2.7-4.2.7Z" data-active="1" style="fill: #bac1c4;" />
        <path d="M14.7,13.5v-.7c1.3-.3,2.7-.5,4-.7v.8l-4.1.6s.1,0,.1,0Z" data-active="1" style="fill: #b9c0c3;" />
        <path d="M14.8,10.6v-.8c1.2-.4,2.5-.5,3.8-.7,0,.2.1.5,0,.8l-3.9.7h.1Z" data-active="1" style="fill: #bbc2c4;" />
        <path d="M14.6,17c.1.6,0,.7.2,1.1l-2.9.7v-1.1c.9-.5,1.8-.4,2.7-.6h0Z" data-active="1" style="fill: #9ba0a2;" />
        <path d="M13.8,24.6c.1.2.4.2.6,0,.1.2.1.5.1.7-1.2.3-2.4.5-3.6.9s-.4-.2-.5-.4c0-.6,2.7-1,3.2-1.1h.2Z" data-active="1" style="fill: #a8aeb1;" />
        <path d="M14.6,21.5v.8l-3.5.9c-.2,0-.4-.3-.4-.4,0-.6,3.3-1.1,3.8-1.2h0Z" data-active="1" style="fill: #a6abad;" />
        <path d="M14.7,14v1.1l-2.7.7v-1.2c.9-.4,1.8-.5,2.6-.6,0,0,.1,0,0,0h.1Z" data-active="1" style="fill: #9ba0a3;" />
        <path d="M18.5,5.8c-.1-.7-.2-1.4-.2-2.1s.5-.4.7-.3c.8.2.7,1.5.8,2.3l-1.3.2h0Z" data-active="1" style="fill: #e4e9ea;" />
        <path d="M14.9,7.7v-.8c1.2-.3,2.4-.5,3.7-.6v.8s-3.7.6-3.7.6Z" data-active="1" style="fill: #bcc2c4;" />
        <path d="M14.6,18.6c0,.3,0,.5.2.7-1.2.2-2.2.5-3.4.8s-.4-.2-.4-.3c-.1-.7,3.1-1.1,3.6-1.2Z" data-active="1" style="fill: #a6abad;" />
        <path d="M14.8,11.1v1.1l-2.5.7c0-.3,0-.9.1-1.1.8-.4,1.6-.4,2.4-.6h0Z" data-active="1" style="fill: #9da2a4;" />
        <path d="M14.7,15.7v.8l-3.2.8c-.2,0-.3-.3-.3-.4s0-.3.2-.4c1.1-.4,2.2-.6,3.2-.8h.1Z" data-active="1" style="fill: #a5aaac;" />
        <path d="M14.8,8.2v1.1l-2.4.6v-1.1c.8-.3,1.6-.4,2.3-.6h0Z" data-active="1" style="fill: #9ca1a3;" />
        <path d="M14.7,12.8v.7l-2.9.8c-.2,0-.4-.2-.4-.3-.2-.7,3-1.1,3.3-1.1h0Z" data-active="1" style="fill: #a5aaac;" />
        <path d="M14.7,9.8v.8l-2.8.7c-.2,0-.3-.2-.4-.3s0-.4.3-.4c1-.3,1.9-.6,2.9-.7h0Z" data-active="1" style="fill: #a2a7a9;" />
        <path d="M14.9,6.9v.8c-.9.2-1.7.4-2.6.7s-.4-.1-.4-.3,0-.3.2-.4c.9-.4,1.8-.5,2.8-.8Z" data-active="1" style="fill: #a7abae;" />
        <path d="M19.2,23.2v-1.1c.5-.2,1.1-.2,1.7-.2.1.4,0,.8,0,1.2l-1.8.2h0Z" data-active="1" style="fill: #e2e9eb;" />
        <path d="M19.1,20.3v-1.2l1.8-.2v1.1c-.5.2-1.1.2-1.7.3h0Z" data-active="1" style="fill: #e1e8e9;" />
        <path d="M18.9,16.2c.6,0,1.2-.2,1.8-.2v1.2l-1.7.2v-1.2h0Z" data-active="1" style="fill: #e3e9ea;" />
        <path d="M18.8,14.5v-1.1c.5,0,1.1-.2,1.6-.2.2.4,0,.8.2,1.1-.6,0-1.2,0-1.8.2Z" data-active="1" style="fill: #e3e9ea;" />
        <path d="M21,23v-1.2c.5,0,1.1-.1,1.7-.1,0,.4.1.8.1,1.2-.6.2-1.2,0-1.7.1h-.1Z" data-active="1" style="fill: #b7bfc3;" />
        <path d="M18.7,11.6c-.1-.4,0-.8,0-1.2l1.6-.2v1.1c-.4.1-1,.2-1.5.2h-.1Z" data-active="1" style="fill: #e4eaeb;" />
        <path d="M21.1,24.3v-.8c.5,0,2.5-.5,2.4.3s-1.8.5-2.4.5Z" data-active="1" style="fill: #b4bdc0;" />
        <path d="M21,21.4v-.8c.4,0,2.4-.5,2.3.2s-.2.4-.4.4h-1.9s0,.2,0,.2Z" data-active="1" style="fill: #b8c0c4;" />
        <path d="M18.5,7.5c.5,0,1-.2,1.5-.2.1.4,0,.8.2,1.1-.5.1-1,.2-1.6.2v-1.2h-.1Z" data-active="1" style="fill: #e3e8e9;" />
        <path d="M20.9,20v-1.1c.4,0,.9-.1,1.4-.1,0,.4.1.8,0,1.1-.5.2-1.1,0-1.5.1h.1Z" data-active="1" style="fill: #b8c0c3;" />
        <path d="M20.7,18.5v-.8c.4,0,2.2-.5,2.2.2s-1.7.5-2.2.6Z" data-active="1" style="fill: #b5bdc1;" />
        <path d="M20.7,17.2v-1.2c.5,0,.9-.2,1.4-.1v1.1c-.5.1-1,0-1.5.1h.1Z" data-active="1" style="fill: #b8c1c5;" />
        <path d="M20.6,15.5c-.1-.2,0-.5,0-.8.5,0,2.1-.4,2.2.2s-1.5.6-2.1.6h-.1Z" data-active="1" style="fill: #bac0c3;" />
        <path d="M20.4,12.6c-.1-.2,0-.5-.1-.8.5,0,2.1-.5,2.1.2s-1.5.5-2,.6Z" data-active="1" style="fill: #b6bec2;" />
        <path d="M20.5,14.3c-.1-.4,0-.8-.2-1.1.5,0,.9-.2,1.4-.1,0,.4.1.8,0,1.1h-1.3.1Z" data-active="1" style="fill: #b9c2c6;" />
        <path d="M19.2,24.5v-.8c.7,0,1.3-.2,2-.2v.8l-1.9.2h-.1Z" data-active="1" style="fill: #e5e9eb;" />
        <path d="M20.2,9.7v-.8c.3,0,2.2-.5,2,.3s-1.4.4-1.9.5h-.1Z" data-active="1" style="fill: #bbc2c5;" />
        <path d="M20.3,11.3v-1.1c.3,0,.7-.1,1.2,0,0,.3.1.7,0,1.1-.4.3-.9,0-1.3.1h0Z" data-active="1" style="fill: #b6bfc2;" />
        <path d="M19.1,21.5v-.8c.6,0,1.2-.2,1.8-.2v.8l-1.9.2h.1Z" data-active="1" style="fill: #e6ebec;" />
        <path d="M20.2,8.5c-.2-.3,0-.8-.2-1.1.4,0,.8-.2,1.3,0,0,.3.1.7,0,1.1-.4.2-.8,0-1.2.1h.1Z" data-active="1" style="fill: #bdc3c6;" />
        <path d="M19,18.6v-.8c.6,0,1.2-.3,1.8-.2v.8l-1.8.2Z" data-active="1" style="fill: #e6eaeb;" />
        <path d="M20,6.9v-.8c.4,0,2.1-.5,1.9.3s-1.4.4-1.9.4h0Z" data-active="1" style="fill: #bfc4c7;" />
        <path d="M18.9,15.7v-.8l1.7-.2v.8l-1.8.2h0Z" data-active="1" style="fill: #e5eaeb;" />
        <path d="M18.7,12.8v-.8l1.7-.2c0,.3,0,.5.1.8l-1.7.2h-.1Z" data-active="1" style="fill: #e6ebeb;" />
        <path d="M18.6,9.9v-.8c.5,0,1-.2,1.6-.2v.8l-1.6.2Z" data-active="1" style="fill: #e6eaeb;" />
        <path d="M18.5,6.3c.5,0,1-.2,1.5-.2v.8l-1.5.2v-.8Z" data-active="1" style="fill: #e1e5e6;" />
        </g>
      </g>
    <g id="prosthesis-implant" data-active="1">
      <g id="prosthesis-implant-gum" data-active="1" style="display: none; opacity: .5;">
        <path d="M32.5,54v-11.7c0-.8-.8-1.5-1.8-1.5H4.2c-8.3,0-1.8.6-1.8,1.4,0,2.7-.3,8.7-.3,11.7s.8,1.5,1.8,1.5h26.8c5.4,0,1.8-.7,1.8-1.5h0Z" data-active="1" style="fill: url(#radial-gradient-14-1);" />
        <path d="M32.4,54c-.2-3.9-.4-7.7-.5-11.6,0-1-1.1-1.1-1.9-1-4.4,0-13.2-.3-17.7-.5H4.1c-.7,0-1.1,1-.7,1.5.2,3.9-.2,7.8-.4,11.6,0,.4.6.6,1,.5,1.4,0,6,.2,7.5.2,3.6,0,12.8.4,16.3.5h2.7c.8,0,1.8-.5,1.8-1.4h0v.3h.1ZM32.6,54c0,1-1.1,1.6-2,1.6h-2.7l-5.4.2c-4.7,0-13.7.4-18.4.6-1.7,0-3.3-1.2-3-3.1,0-3.7,0-7.4.2-11.1.2-1.7,1.8-1.6,2.9-1.4h2.7c6.9,0,16.3-.6,23.1-.6s1.1,0,1.5,0c.8.2,1.6,1.2,1.5,2.1,0,3.9-.3,7.7-.5,11.6h0Z" data-active="1" style="fill: #ffa46a;" />
        </g>
      <path id="prosthesis-implant-crown" d="M20.4,50.1c-2.1-2.6-5.5-2.1-6.8.9-.3,1.4-.8,2.8-1.3,4.1-.5,2.2-1.3,6.8,1.1,8,1.6.6,3.2-1,4.8-.5.7,0,1.3.4,1.9.3,4.2-1.1,2.1-6.8,1.2-10.3-.2-.8-.6-1.7-.9-2.4h0Z" data-active="1" style="display: none; fill: #f9ae94; stroke: #0a1018; stroke-miterlimit: 10;" />
      </g>
    <g id="prosthesis" data-active="1">
      <path id="prosthesis-connector" d="M30.8,51.6c3.5-1.7,2.7-6.9-1-7.8-1.2-.4-2.5-.5-3.8-.5H6.9c-1.9,0-4.2.7-5.2,2.2-1.2,1.7-1.3,4.3.1,5.9,1.7,1.6,5,1.5,7.6,1.5s6.7,0,10.2-.2c3.7-.2,8.5.2,11-1.1,0,0,.2,0,.2,0Z" data-active="1" style="display: none; fill: url(#linear-gradient-14-19); stroke: #1b3f1c; stroke-miterlimit: 10; stroke-width: .2px;" />
      <path id="prosthesis-crown" d="M24,33.4c-4.6-5.7-12.3-4.6-15.2,1.9-.7,3.1-1.7,6.2-2.8,9.2-1.2,5-2.8,15.3,2.5,17.8,3.5,1.4,7.2-2.2,10.8-1.1,1.5.3,2.8.9,4.2.7,9.4-2.4,4.7-15.1,2.7-23.1-.5-1.8-1.3-3.7-2.1-5.3h-.1Z" data-active="1" style="display: none; fill: #f9ae94; stroke: #0a1018; stroke-miterlimit: 10;" />
      </g>
    <g id="telescope" data-active="1">
      <path id="telescope-bridge-connector" d="M30.8,51.6c3.5-1.7,2.7-6.9-1-7.8-1.2-.4-2.5-.5-3.8-.5H6.9c-1.9,0-4.2.7-5.2,2.2-1.2,1.7-1.3,4.3.1,5.9,1.7,1.6,5,1.5,7.6,1.5s6.7,0,10.2-.2c3.7-.2,8.5.2,11-1.1,0,0,.2,0,.2,0Z" data-active="1" style="display: none; fill: #0051bf; stroke: #1b3f1c; stroke-miterlimit: 10; stroke-width: .2px;" />
      <g id="telescope-crown" data-active="1" style="display: none;">
        <path id="telescope-crown-outside" d="M24,33.4c-4.6-5.7-12.3-4.6-15.2,1.9-.7,3.1-1.7,6.2-2.8,9.2-1.2,5-2.8,15.3,2.5,17.8,3.5,1.4,7.2-2.2,10.8-1.1,1.5.3,2.8.9,4.2.7,9.4-2.4,4.7-15.1,2.7-23.1-.5-1.8-1.3-3.7-2.1-5.3h-.1Z" data-active="1" style="fill: #0051bf; stroke: #0a1018; stroke-miterlimit: 10;" />
        <path id="telescope-crown-inside" d="M22.4,36.2c-3.6-4.4-9.6-3.6-11.9,1.5-.5,2.5-1.4,4.9-2.2,7.2-1,3.9-2.2,11.9,2,13.9,2.7,1.1,5.6-1.7,8.5-.9,1.2.2,2.2.7,3.3.6,7.3-1.8,3.7-11.8,2.1-18-.4-1.4-1-2.9-1.6-4.1h0s-.2-.2-.2-.2Z" data-active="1" style="fill: #aaa; stroke: #0a1018; stroke-miterlimit: 10;" />
        </g>
      </g>
    <g id="zircon" data-active="1">
      <path id="zircon-bridge-connector" d="M30.8,51.6c3.5-1.7,2.7-6.9-1-7.8-1.2-.4-2.5-.5-3.8-.5H6.9c-1.9,0-4.2.7-5.2,2.2-1.2,1.7-1.3,4.3.1,5.9,1.7,1.6,5,1.5,7.6,1.5s6.7,0,10.2-.2c3.7-.2,8.5.2,11-1.1,0,0,.2,0,.2,0Z" data-active="1" style="display: none; fill: #feffbf; stroke: #1b3f1c; stroke-miterlimit: 10; stroke-width: .2px;" />
      <path id="zircon-crown" d="M24,33.4c-4.6-5.7-12.3-4.6-15.2,1.9-1.3,3-2.2,5.9-2.8,9.2-1.2,5-2.8,15.3,2.5,17.8,3.5,1.4,7.2-2.2,10.8-1.1,1.5.3,2.8.9,4.2.7,9.4-2.4,4.7-15.1,2.7-23.1-.5-1.8-2.2-5.4-2.2-5.4Z" data-active="1" style="display: none; fill: #feffbf; stroke: #0a1018; stroke-miterlimit: 10;" />
      </g>
    <g id="metal" data-active="1">
      <path id="metal-bridge-connector" d="M30.8,51.6c3.5-1.7,2.7-6.9-1-7.8-1.2-.4-2.5-.5-3.8-.5H6.9c-1.9,0-4.2.7-5.2,2.2-1.2,1.7-1.3,4.3.1,5.9,1.7,1.6,5,1.5,7.6,1.5s6.7,0,10.2-.2c3.7-.2,8.5.2,11-1.1,0,0,.2,0,.2,0Z" data-active="1" style="display: none; fill: #0051bf; stroke: #1b3f1c; stroke-miterlimit: 10; stroke-width: .2px;" />
      <path id="metal-crown" d="M24,33.4c-4.6-5.7-12.3-4.6-15.2,1.9-1.4,2.8-2.2,6.1-2.8,9.2-1.2,5-2.8,15.3,2.5,17.8,3.5,1.4,7.2-2.2,10.8-1.1,1.5.3,2.8.9,4.2.7,9.4-2.4,4.7-15.1,2.7-23.1-.5-1.8-1.3-3.7-2.1-5.3h-.1Z" data-active="1" style="display: none; fill: #0051bf; stroke: #0a1018; stroke-miterlimit: 10;" />
      </g>
    <g id="emax" data-active="1">
      <path id="emax-crown" d="M22.7,34.5c-4-5-10.8-4-13.4,1.7-1.1,2.6-1.9,5.2-2.5,8.1-1.1,4.4-2.5,13.5,2.2,15.6,3.1,1.2,6.3-1.9,9.5-1,1.3.3,2.5.8,3.7.6,8.3-2.1,4.1-13.3,2.4-20.3-.4-1.6-1.9-4.7-1.9-4.7Z" data-active="1" style="display: none; fill: url(#radial-gradient-14-2); stroke: #0a1018; stroke-miterlimit: 10;" />
      </g>
    <g id="temporary-restorations" data-active="1">
      <path id="temporary-bridge-connector" d="M30.8,51.6c3.5-1.7,2.7-6.9-1-7.8-1.2-.4-2.5-.5-3.8-.5H6.9c-1.9,0-4.2.7-5.2,2.2-1.2,1.7-1.3,4.3.1,5.9,1.7,1.6,5,1.5,7.6,1.5s6.7,0,10.2-.2c3.7-.2,8.5.2,11-1.1,0,0,.2,0,.2,0Z" data-active="1" style="display: none; fill: #fff; stroke: #1b3f1c; stroke-miterlimit: 10; stroke-width: .2px;" />
      <path id="temporary-crown" d="M24,33.4c-4.6-5.7-12.3-4.6-15.2,1.9-.7,3.1-1.7,6.2-2.8,9.2-1.2,5-2.8,15.3,2.5,17.8,3.5,1.4,7.2-2.2,10.8-1.1,1.5.3,2.8.9,4.2.7,9.4-2.4,4.7-15.1,2.7-23.1-.5-1.8-1.3-3.7-2.1-5.3h-.1Z" data-active="1" style="display: none; fill: #fff; stroke: #0a1018; stroke-miterlimit: 10;" />
      </g>
    </g>
  <g id="specials" data-active="1">
    <g id="missing-closed" data-active="1" style="display: none;">
      <path d="M2.4,5c17.4,16.6,15.5,37.8,0,54.8" data-active="1" style="fill: none; stroke: #000; stroke-miterlimit: 10; stroke-width: 2px;" />
      <path d="M29.1,58.4c-17.6-16.4-15.8-37.6-.5-54.8" data-active="1" style="fill: none; stroke: #000; stroke-miterlimit: 10; stroke-width: 2px;" />
      </g>
    <g id="extraction-plan" data-active="1" style="display: none;">
      <path d="M4.1,56.3C5.5,52.3,31,4.7,31.7,2.6" data-active="1" style="fill: none; stroke: #b70000; stroke-miterlimit: 10; stroke-width: 3px;" />
      <path d="M4.5,3.1c2.6,3.5,18.9,39.4,22.2,48.1.6,1.5,1.1,3,1.9,4.3" data-active="1" style="fill: none; stroke: #b70000; stroke-miterlimit: 10; stroke-width: 3px;" />
      </g>
    <g id="crown-needed" data-active="1" style="display: none;">
      <path id="crown-needed-shape" d="M24,33.4c-4.6-5.7-12.3-4.6-15.2,1.9-1.3,3-2.2,5.9-2.8,9.2-1.2,5-2.8,15.3,2.5,17.8,3.5,1.4,7.2-2.2,10.8-1.1,1.5.3,2.8.9,4.2.7,9.4-2.4,4.7-15.1,2.7-23.1-.5-1.8-2.2-5.4-2.2-5.4Z" data-active="1" style="fill: #c83014; stroke: #000; stroke-miterlimit: 10;" />
      <path id="crown-needed-path" d="M14.8,31.2c-2,3.6-4,7.2-6,10.7-.7,1.5-2.9,3.3-2,5,1.1,1.2,2-1.3,2.6-2.1,3-4.5,5-10.5,9.9-13.3.4-.2.7-.2.8,0,.2.2.1.7,0,1.2-2,7.1-9.7,14-11.8,20.8-4.5,12.9,1.5,5.4,4.4-1.2,2.5-4.8,6.3-12.5,9.9-16.5,2.3-1.7,1.6,2.6,1.2,4-1.3,6.8-9.8,12.4-9.9,19.5.9,5.7,8-10,9.6-12.2.6-1,2.5-3.3,2.6-1.1,0,3.8-2.4,8-4.1,11-.5,1.1-1.2,2.2-1.3,3.4.7,2.6,5.4-4.6,6.2-5.6" data-active="1" style="fill: #feffbf; stroke: #1b3f1c; stroke-miterlimit: 10;" />
      </g>
    <g id="crown-replace" data-active="1" style="display: none;">
      <path id="crown-replace-shape" d="M24,33.4c-4.6-5.7-12.3-4.6-15.2,1.9-1.3,3-2.2,5.9-2.8,9.2-1.2,5-2.8,15.3,2.5,17.8,3.5,1.4,7.2-2.2,10.8-1.1,1.5.3,2.8.9,4.2.7,9.4-2.4,4.7-15.1,2.7-23.1-.5-1.8-2.2-5.4-2.2-5.4Z" data-active="1" style="fill: none; stroke: #c83014; stroke-miterlimit: 10; stroke-width: 3px;" />
      </g>
    <g id="parapulpal-pin" data-active="1" style="display: none;">
      <g id="parapulpal-pin-shape" data-active="1">
        <path d="M23.6,44.5c.1.5,0,.6,0,.8v.8c.1.4,0,.6,0,.8.1.3,0,.6,0,.8v2.4c.1.4.4.8,1,1.1s.2.2.1.3,0,.2,0,.3,0,.2-.3.3c-1.2.2-2.5.2-3.7,0s-.3,0-.3-.2v-.6c0-.2.9-.3,1-1s0-.7,0-1.1l.2-5,.2-4.4c0-1.2.2-2.3.4-3.5s0-.2.2-.3c.1.2.1.3.2.5.3,1.2.4,2.4.5,3.6l.3,3.5v.2c.1.2,0,.5,0,.8h.2Z" data-active="1" style="fill: #0a0a0a;" />
        <path d="M22,48.1c-.1,0-.2-.2-.2-.3v-3.7l.2-3.9.2-2.2h.1v9.3c0,.3,0,.6-.3.8Z" data-active="1" style="fill: #f0edee;" />
        <path d="M22.9,47.5h0v-1.7h0v-1h0v-6.5c0,.2.1.5.1.7v.5l.3,3.4v3.2l.2,1.8v.3h-.1c-.2-.2-.3-.4-.5-.6h0Z" data-active="1" style="fill: #eaeaea;" />
        <path d="M22.9,47.5s0,0-.1-.2l-.2-10.5v-.3l.2.7s.1.2,0,.2h0c-.1,0,0,.7,0,.8v6.2h0v2.8h0v.3Z" data-active="1" style="fill: #9c9c9c;" />
        <path d="M22.1,49.2c.2.3.5.6.7.9s0,.3,0,.5c-.2.4-.8.4-1.4.5.9-.7.2-1.1.9-1.9h-.2Z" data-active="1" style="fill: #c7c7c7;" />
        <path d="M23.5,49.2c.5.4.3.7.4,1v.2c0,.2.3.5.6.7h-.9c-.7-.2-.8-.8-.7-1s.4-.6.6-.8h0Z" data-active="1" style="fill: #b5b4b6;" />
        <path d="M22.9,51.2c.4,0,1.7,0,2,.2v.5c-.5,0-1,0-1.5,0s-.4,0-.4-.2v-.4h-.1Z" data-active="1" style="fill: #bababa;" />
        <path d="M21.3,51.8v-.5h1.3c0,.2,0,.4-.2.5s-.8,0-1.2,0h.1Z" data-active="1" style="fill: #cdcdcd;" />
        <path d="M21.5,52.1c.4,0,2.7,0,2.8,0s0,0,0,0c-.9,0-1.8,0-2.7,0s0,0-.1,0,0,0,0,0Z" data-active="1" style="fill: #9da1a2;" />
        <path d="M21.4,51.3v.5c-.2,0-.4,0-.6,0v-.5c.2,0,.5,0,.7-.2h-.1Z" data-active="1" style="fill: #8b8d8c;" />
        <path d="M22.3,48.5c.1,0,.2,0,.3.2l-.3.2s-.2,0-.2-.2c0,0,.1,0,.2-.2Z" data-active="1" style="fill: #acaaac;" />
        <path d="M23.2,48.5s.2,0,.2,0,0,0-.2.2c-.1,0-.2,0-.3-.2h.3Z" data-active="1" style="fill: #b2b0b3;" />
        <path d="M22.1,48.7s.2,0,.2,0c0,0-.1,0-.2.2,0,0-.1,0-.2,0s0,0,.2-.2Z" data-active="1" style="fill: #e4e1e2;" />
        <path d="M23.1,48.9c-.2.2-.1.2-.3.3v-.4l.3.2h0Z" data-active="1" style="fill: #8b8989;" />
        <path d="M22.1,48.3c.1,0,.2,0,.2,0s0,0-.1.2c0,0-.2,0-.2,0s0-.2.2-.2h-.1Z" data-active="1" style="fill: #e3e3e3;" />
        <path d="M23.3,48.9s.1,0,.2,0c0,0,.1,0,.2,0s0,0-.1.2c0,0-.2,0-.2-.2h-.1Z" data-active="1" style="fill: #cacaca;" />
        <path d="M22.4,48.9c.1,0,.2,0,.3-.2v.4c-.1,0-.2,0-.3-.2Z" data-active="1" style="fill: #7a797b;" />
        <path d="M23.2,48.4s.1,0,.2,0c0,0,.1,0,.1,0s0,.2-.1,0-.1,0-.2,0Z" data-active="1" style="fill: #d2d1d3;" />
        <path d="M22.4,48.4c.1,0,.2,0,.3-.2v.3c-.1,0-.2,0-.3,0Z" data-active="1" style="fill: #7f7e80;" />
        <path d="M22.8,48.5s0-.6,0-.2c0,0,.2,0,.1,0s-.1,0-.2,0h.1Z" data-active="1" style="fill: #7c7b7f;" />
        </g>
      </g>
    <g id="calculus" data-active="1" style="display: none;">
      <path id="calculus-shape-8" d="M18.1,40c.4.1.8-.2.9-.4.3-.2.4-.6-.1-.7-.7-.2-1.4.8-.8,1.1h0Z" data-active="1" style="fill: #c4ff98;" />
      <path id="calculus-shape-7" d="M14.4,39.4c-.4,0-.7.3-.9.5-.2.3-.3.7.2.7.8,0,1.3-1.1.7-1.3h0Z" data-active="1" style="fill: #c4ff98;" />
      <path id="calculus-shape-6" d="M9.2,39.7c.5-.3.4-1.1.4-1.4,0-.5-.3-1.1-1-.6-.8.6-.3,2.4.6,2h0Z" data-active="1" style="fill: #9e1f63;" />
      <path id="calculus-shape-5" d="M13.2,41.1c-.4-.4-1.1-.1-1.5,0-.5.2-1,.5-.3,1.1.8.7,2.4-.3,1.8-1.1h0Z" data-active="1" style="fill: #9e1f63;" />
      <path id="calculus-shape-4" d="M10.3,41.8c0-.5-.6-1-.9-1.1-.5-.3-1-.4-1.1.4,0,1,1.8,1.6,2,.7h0Z" data-active="1" style="fill: #9e1f63;" />
      <path id="calculus-shape-3" d="M24.5,37.6c-.5.2-.7.9-.7,1.3-.1.5,0,1.1.8.8,1-.4.9-2.2,0-2.1h0Z" data-active="1" style="fill: #9e1f63;" />
      <path id="calculus-shape-2" d="M21.7,40.7c0-.5-.8-.8-1.2-.9-.5-.2-1.1-.2-.9.7.2,1,2.1,1.2,2.1.3h0Z" data-active="1" style="fill: #9e1f63;" />
      <path id="calculus-shape-1" d="M24.4,40.5c-.5-.3-1.1,0-1.5.3-.5.3-.8.7-.1,1.1.9.5,2.3-.8,1.6-1.4h0Z" data-active="1" style="fill: #9e1f63;" />
      </g>
    </g>
  </svg>
