<?xml version='1.0' encoding='utf-8'?>
<!-- Created by Zoltan Dul in 2026 - free to use with MIT license. Part of React Odontogram Modul - https://github.com/ZoliQua/React-Odontogram-Modul - SVG Version: 2.1.4 -->
<svg xmlns="http://www.w3.org/2000/svg" id="premolar_x5F_tooth" version="1.1" viewBox="0 0 48.6 41.5">
  <style>
    [data-active="0"] { display: none; }
  </style>
  <defs>
    <linearGradient id="linear-gradient-14-occl-0" x1="14.8" y1="2105.5" x2="37.3" y2="2105.5" gradientTransform="translate(0 -2084.6929)" gradientUnits="userSpaceOnUse" data-active="1">
      <stop offset="0" stop-color="#f0eff0" data-active="1" />
      <stop offset="1" stop-color="#cfcece" data-active="1" />
      </linearGradient>
    <linearGradient id="linear-gradient-14-occl-1" x1="13.2" y1="2105.5" x2="37.3" y2="2105.5" gradientTransform="translate(0 -2084.6929)" gradientUnits="userSpaceOnUse" data-active="1">
      <stop offset="0" stop-color="#f0eff0" data-active="1" />
      <stop offset="1" stop-color="#cfcece" data-active="1" />
      </linearGradient>
    <linearGradient id="linear-gradient-14-occl-2" x1="14.7" y1="2105.6" x2="37.9" y2="2105.6" gradientTransform="translate(0 -2084.6929)" gradientUnits="userSpaceOnUse" data-active="1">
      <stop offset="0" stop-color="#f0eff0" data-active="1" />
      <stop offset="1" stop-color="#cfcece" data-active="1" />
      </linearGradient>
    <linearGradient id="linear-gradient-14-occl-3" x1="11.5" y1="2105.6" x2="37.9" y2="2105.6" gradientTransform="translate(0 -2084.6929)" gradientUnits="userSpaceOnUse" data-active="1">
      <stop offset="0" stop-color="#f0eff0" data-active="1" />
      <stop offset="1" stop-color="#cfcece" data-active="1" />
      </linearGradient>
    <linearGradient id="linear-gradient-14-occl-4" x1="10.9" y1="2105.6" x2="37.9" y2="2105.6" gradientTransform="translate(0 -2084.6929)" gradientUnits="userSpaceOnUse" data-active="1">
      <stop offset="0" stop-color="#f0eff0" data-active="1" />
      <stop offset="1" stop-color="#dcdcdc" data-active="1" />
      </linearGradient>
    <linearGradient id="linear-gradient-14-occl-5" x1="39.4" y1="2113.3" x2="29.3" y2="2095.5" gradientTransform="translate(0 -2084.6929)" gradientUnits="userSpaceOnUse" data-active="1">
      <stop offset="0" stop-color="#f0eff0" data-active="1" />
      <stop offset="1" stop-color="#e2d4c8" data-active="1" />
      </linearGradient>
    <linearGradient id="linear-gradient-14-occl-6" x1="8.6" y1="2099.1" x2="22.5" y2="2112.8" gradientTransform="translate(0 -2084.6929)" gradientUnits="userSpaceOnUse" data-active="1">
      <stop offset="0" stop-color="#f0eff0" data-active="1" />
      <stop offset="1" stop-color="#e2d4c8" data-active="1" />
      </linearGradient>
    <linearGradient id="linear-gradient-14-occl-7" x1="-871" y1="3214.4" x2="-871" y2="3230.1" gradientTransform="translate(-216.2522 -3318.5448) rotate(-19.3)" gradientUnits="userSpaceOnUse" data-active="1">
      <stop offset="0" stop-color="#f0f0f0" data-active="1" />
      <stop offset="1" stop-color="#e2d4c8" data-active="1" />
      </linearGradient>
    <linearGradient id="linear-gradient-14-occl-8" x1="27.8" y1="2122.9" x2="17.6" y2="2105" gradientTransform="translate(0 -2084.6929)" gradientUnits="userSpaceOnUse" data-active="1">
      <stop offset="0" stop-color="#f0eff0" data-active="1" />
      <stop offset="1" stop-color="#e2d4c8" data-active="1" />
      </linearGradient>
    <linearGradient id="linear-gradient-14-occl-9" x1="24.3" y1="-4068.2" x2="24.3" y2="-4089.4" gradientTransform="translate(0 -4058.3875) scale(1 -1)" gradientUnits="userSpaceOnUse" data-active="1">
      <stop offset="0" stop-color="#c8c9c9" data-active="1" />
      <stop offset="1" stop-color="#828282" data-active="1" />
      </linearGradient>
    <linearGradient id="linear-gradient-14-occl-10" x1="16.1" y1="2104.9" x2="32.5" y2="2104.9" gradientTransform="translate(0 -2084.6929)" gradientUnits="userSpaceOnUse" data-active="1">
      <stop offset=".3" stop-color="#cf0" stop-opacity=".5" data-active="1" />
      <stop offset="1" stop-color="#b4c500" data-active="1" />
      </linearGradient>
    <radialGradient id="radial-gradient-14-occl-0" cx="24.7" cy="-1015.2" fx="24.7" fy="-1015.2" r="15.9" gradientTransform="translate(0 -994.4) scale(1 -1)" gradientUnits="userSpaceOnUse" data-active="1">
      <stop offset="0" stop-color="#fff" data-active="1" />
      <stop offset="0" stop-color="#fdf3ea" data-active="1" />
      <stop offset=".2" stop-color="#f9d8b9" data-active="1" />
      <stop offset=".3" stop-color="#f5c18f" data-active="1" />
      <stop offset=".4" stop-color="#f2ae6c" data-active="1" />
      <stop offset=".6" stop-color="#f09f52" data-active="1" />
      <stop offset=".7" stop-color="#ef953f" data-active="1" />
      <stop offset=".9" stop-color="#ee8f33" data-active="1" />
      <stop offset="1" stop-color="#ee8d30" data-active="1" />
      </radialGradient>
    </defs>
  <g id="base" data-active="1">
    <path id="bone-base" d="M45.3,39.5s-2.8.7-5.5.5-4.5,0-5.2,0c-2-.2-5.2-.3-8.2-.2-3.4,0-7.2.9-9.7.9s-2.9,0-4.3-.2c-3.5-.3-5.1-.7-5.1-.7-1.6-.3-3.9.7-3.9-.6V2.7l4.8-.5,13.8-1.1h16.7l6.7.4v40h0v-2h-.1Z" data-active="1" style="fill: #fdecc5;" />
    <g id="gum-base" data-active="1">
      <path id="gum-line-2" d="M11.3,2.4c7.3-.2,28.5-1.1,30.8-.6,2.3.5,1.9.4,2.9,0s1.1-1.2,0-1.5-3.3-.3-5.9-.2c-4.9.2-10.2.6-12.3.8-5.6.5-6.2.5-12.1.5s-7.1-.5-11.6-.1c-4.6.4-.8,1.4.2,1.4,4.5,0,4.9,0,8-.3Z" data-active="1" style="fill: #f79f9a;" />
      <path id="gum-line-1" d="M37.1,39.2c-7.3,0-28.5.6-30.8,0s-1.9-.4-2.9,0-1.1,1.2,0,1.5c1.2.3,3.3.4,5.9.3,4.9,0,10.2-.4,12.4-.6,5.6-.4,6.2-.4,12.1-.3,4.3,0,7.1.6,11.6.3s.8-1.4-.3-1.5c-4.5-.2-4.9,0-8,0h0v.3Z" data-active="1" style="fill: #f79f9a;" />
      </g>
    </g>
  <g id="tooth-variants" data-active="1">
    <path id="tooth-broken-mesial-distal" d="M23.1,2.9c1.5,0,3.2.3,4.7.5,1.1,0,2.2.2,3.2.7s1.2.6,1.8,1c1,.6,2,1.4,2.8,2.6.8,1.1,1.4,2.4,1.7,3.9,0,.6-3.1-.4-3,.3,0,.8,1.4,3.4,1.4,4.2s-1.6,1.8-1.6,2.6c0,1.2,1.6,1.9,1.5,3.1,0,.6-2.1,2.8-2.1,3.4,0,1,2.3,1.8,2.1,2.7,0,.9-2.3,1.3-2.5,2.2s3.4,1.4,3,2.4c-1,2.4-2.9,3.8-4.7,4.4-.7.2-1.5.4-2.2.6-1.1.3-2.1.8-3.2,1.2-.9.3-1.8.2-2.7,0-.8,0-1.6-.3-2.3-.3-1.3-.2-2.8-.3-3.9-1.4-.9-.9-1.6-2.2-2.2-3.6-.1-.4,2.7-2.2,2.8-4.5s-2.3-1.7-2.2-2.8,0-2.4.5-3.9,1-1.9,1-2.7c.1-2.4-2-1.5-1.8-3.5s.8-2.1,1.1-3.8.3-5,.4-5.2c1-1.6,2.3-3,3.7-3.6.9-.3,1.9-.5,2.8-.5,0,0-.1,0-.1,0Z" data-active="1" style="display: none; fill: url(#linear-gradient-14-occl-0); stroke: #c8c8c8; stroke-miterlimit: 10;" />
    <path id="tooth-broken-mesial" d="M23.1,2.9c1.5,0,3.2.3,4.7.5,1.1,0,2.2.2,3.2.7s1.2.6,1.8,1c1,.6,2,1.4,2.8,2.6.8,1.1,1.4,2.4,1.7,3.9,0,.6-3.1-.4-3,.3,0,.8,1.4,3.4,1.4,4.2s-1.6,1.8-1.6,2.6c0,1.2,1.6,1.9,1.5,3.1,0,.6-2.1,2.8-2.1,3.4,0,1,2.3,1.8,2.1,2.7,0,.9-2.3,1.3-2.5,2.2s3.4,1.4,3,2.4c-1,2.4-2.9,3.8-4.7,4.4-.7.2-1.5.4-2.2.6-1.1.3-2.1.8-3.2,1.2-.9.3-1.8.2-2.7,0-.8,0-1.6-.3-2.3-.3-1.3-.2-2.8-.3-3.9-1.4-.9-.9-1.6-2.2-2.2-3.6-.7-1.5-1.2-3.2-1.4-5-.2-1.3-.1-2.7-.1-4s.4-3.5.5-5.3c.3-2.1.4-4.3.7-6.4.4-2.1,1.1-4,2-5.6,1-1.6,2.3-3,3.7-3.6.9-.3,1.9-.5,2.8-.5h0Z" data-active="1" style="display: none; fill: url(#linear-gradient-14-occl-1); stroke: #c8c8c8; stroke-miterlimit: 10;" />
    <path id="tooth-broken-distal" d="M23.1,2.9c1.5,0,3.2.3,4.7.5,1.1,0,2.2.2,3.2.7s1.2.6,1.8,1c1,.6,2,1.4,2.8,2.6.8,1.1,1.4,2.4,1.7,3.9,0,.6.2,1.3.4,2,.2,1.7.4,3.2.4,4.8v3.6c0,1.6,0,3.1-.4,4.6-.4,2-.7,4.2-1.4,6-1,2.4-2.9,3.8-4.7,4.4-.7.2-1.5.4-2.2.6-1.1.3-2.1.8-3.2,1.2-.9.3-1.8.2-2.7,0-.8,0-1.6-.3-2.3-.3-1.3-.2-2.8-.3-3.9-1.4-.9-.9-1.6-2.2-2.2-3.6-.7-1.5,3-2.7,2.8-4.5-.2-1.3-2.3-1.4-2.2-2.8,0-.9.5-3,.5-3.9s.9-1.8,1-2.7c.1-1.4-1.8-2.3-1.8-3.5s.9-3,1.1-3.8c.4-2.1-.6-3.6.4-5.2,1-1.6,2.3-3,3.7-3.6.9-.3,1.9-.5,2.8-.5h-.3Z" data-active="1" style="display: none; fill: url(#linear-gradient-14-occl-2); stroke: #c8c8c8; stroke-miterlimit: 10;" />
    <g id="tooth-crownprep" data-active="1" style="display: none;">
      <path id="tooth-crownprep-outer" d="M22.1,2.9c1.6,0,3.4.3,5.1.5,1.1,0,2.3.2,3.4.7.7.3,1.3.6,2,1,1.1.6,2.1,1.4,2.9,2.6.8,1.1,1.5,2.4,1.8,3.9.2.6.2,1.3.4,2,.2,1.7.4,3.2.4,4.8s0,2.4-.2,3.6c0,1.6-.2,3.1-.4,4.6-.4,2-.8,4.2-1.5,6-1.1,2.4-3.1,3.8-5.1,4.4-.8.2-1.6.4-2.3.6-1.1.3-2.3.8-3.4,1.2-1,.3-2,.2-2.9,0-.8,0-1.7-.3-2.5-.3-1.4-.2-2.9-.3-4.2-1.4-1-.9-1.7-2.2-2.3-3.6-.8-1.5-1.3-3.2-1.5-5-.2-1.3-.2-2.7-.2-4s.4-3.5.5-5.3c.3-2.1.4-4.3.8-6.4.4-2.1,1.1-4,2.1-5.6,1.1-1.6,2.5-3,4-3.6,1-.3,2-.5,3-.5h0v-.2h0Z" data-active="1" style="fill: url(#linear-gradient-14-occl-3); stroke: #c8c8c8; stroke-miterlimit: 10;" />
      <path id="tooth-crownprep-inner" d="M23,7.2c1.1,0,2.5.2,3.7.4.8.1,1.7.2,2.5.5.5.2,1,.5,1.4.7.8.4,1.6,1,2.2,1.9.6.8,1.1,1.7,1.4,2.8.2.5.2,1,.2,1.5.2,1.2.3,2.3.2,3.5v2.6c0,1.1,0,2.3-.3,3.4-.3,1.5-.6,3.1-1.1,4.4-.8,1.8-2.3,2.8-3.7,3.3-.5.2-1.1.3-1.7.4-.8.2-1.7.6-2.5.9-.7.2-1.4,0-2.1,0s-1.2-.2-1.8-.3c-1.1,0-2.2-.2-3-1.1-.8-.7-1.3-1.6-1.7-2.7-.5-1.1-.9-2.3-1.1-3.6-.2-1-.2-2,0-3,0-1.3.2-2.6.4-3.9.2-1.6.3-3.2.6-4.7.3-1.5.8-3,1.6-4.1.8-1.2,1.8-2.2,2.9-2.7.7-.3,1.5-.4,2.2-.3h-.3Z" data-active="1" style="fill: #eaeaea; stroke: #c8c8c8; stroke-miterlimit: 10;" />
      </g>
    </g>
  <g id="tooth" data-active="1">
    <g id="tooth-base" data-active="1">
      <path id="background-cusp" d="M21.7,2.9c1.6,0,3.5.3,5.2.5,1.2,0,2.4.2,3.5.7.7.3,1.3.6,2,1,1.1.6,2.2,1.4,3,2.6.8,1.1,1.5,2.4,1.9,3.9.2.6.2,1.3.4,2,.2,1.7.4,3.2.4,4.8s0,2.4-.2,3.6c0,1.6-.2,3.1-.4,4.6-.4,2-.8,4.2-1.5,6-1.1,2.4-3.2,3.8-5.2,4.4-.8.2-1.6.4-2.4.6-1.2.3-2.3.8-3.5,1.2-1,.3-2,.2-2.9,0-.8,0-1.7-.3-2.5-.3-1.5-.2-3-.3-4.2-1.4-1-.9-1.8-2.2-2.4-3.6-.8-1.5-1.3-3.2-1.5-5-.2-1.3-.2-2.7-.2-4s.4-3.5.5-5.3c.3-2.1.4-4.3.8-6.4.4-2.1,1.2-4,2.2-5.6,1.1-1.6,2.5-3,4.1-3.6,1-.3,2.1-.5,3.1-.5h0v-.2s-.2,0-.2,0Z" data-active="1" style="fill: url(#linear-gradient-14-occl-4); stroke: #c8c8c8; stroke-miterlimit: 10;" />
      <g id="cusps" data-active="1">
        <path d="M33.3,27.9c.7.6,1.4,2.7,2.3,2.7,1.1-1.1,1.1-3.5,1.4-5,.4-4.8,0-9.8-.5-14.5-.3-1.9-1.8-5.3-3.4-2.1-.6,1.2-1.2,2.5-2,3.6-1.4,2.1-3.9,4-4.2,6.8,0,1.4,1.5,2.9,2.6,4,1.6,1.3,2.3,2.9,3.7,4.4h.1,0Z" data-active="1" style="fill: url(#linear-gradient-14-occl-5);" />
        <path d="M18.7,26c1.7-2.7,4-5.5,4-8.9-.1-1.4-1.4-3.1-2.3-4.5-1.7-2-2.2-4.2-3.6-6.2-.6-.5-.9,0-1.4.6-1.1,1.9-2.4,4-2.7,6.3-.2,3.2-.6,6.5-1.2,9.6,0,2.5-.3,5.1.4,7.5.4,1.4,1.5,3.8,1.9,5,.2.5.3.8.4.7,1-1.4,3-7.7,4.4-10.2h.1Z" data-active="1" style="fill: url(#linear-gradient-14-occl-6);" />
        <path d="M28.9,15.1c.8-.9,2.1-1.7,2.7-2.8.8-1.1,1.3-2.7,2.1-3.8.3-.4.6-.8.4-1.3-2.6-4-11.2-4.5-15-2-.5.5-1.4.2-1.7.8-.7,3.5,2,6.2,3.3,9.2.8,1.7,1.4,4.5,3.8,4.5,2.1-.3,3.2-2.7,4.2-4.4h0s.2-.2.2-.2Z" data-active="1" style="fill: url(#linear-gradient-14-occl-7);" />
        <path d="M26.9,19.5c1.6,1.8,3.5,5,5.2,7.1.9,1.1,2.3,2.3,3.3,3.5.4.5.5,1,.4,1.6-1.1,3.8-5,4.4-8.3,5.9-3.8,1.5-6.2,1.5-11.1,0-1.1-.5-2.6-1.1-2.1-2.6.4-1.2,1.5-3.4,2-4.8,1.4-3.6,3.3-7.1,4.8-10.9,1.3-3.1,3.7-1.5,5.7,0h.1s0,.2,0,.2Z" data-active="1" style="fill: url(#linear-gradient-14-occl-8);" />
        </g>
      <g id="fissure" data-active="1">
        <path d="M26.3,19.6c.3-.1.9,1,1.2,1.3.8,1.1,3,3.6,3.4,5.1.4,1.3,3.9,4.3,3.5,4.1" data-active="1" style="fill: none; stroke: #9f9f9f; stroke-miterlimit: 10;" />
        <path d="M16.4,31c-1,2.3,1.9-5.9,2.8-7.2.8-1,.4-1.2,1.3-2.2.5-.7,2.2-2.7,2.3-3.7s-.3-1.3-1-2.6c-.5-.5-1.1-2-1.6-2.9s-.3-.8-.3-1.3c-.2-2-3.3-5-2.1-3.8" data-active="1" style="fill: none; stroke: #9f9f9f; stroke-miterlimit: 10;" />
        <path d="M33.5,8.6c.8-1.1-2.8,4.2-5,6.6-.5.7-1.7,3.8-2.3,4.4s-.8.9-1.2.9-.7,0-1-.2c-.6-.2-1.2-.7-1.5-1.5" data-active="1" style="fill: none; stroke: #9f9f9f; stroke-miterlimit: 10;" />
        </g>
      </g>
    </g>
  <g id="milktooth" data-active="1" style="display: none;">
    <g id="milktooth-base" data-active="1">
      <path id="background-cusp1" d="M21.1,2.9c1.9,0,4.1.3,6,.5,1.4,0,2.8.2,4.1.7.8.3,1.5.6,2.3,1,1.3.6,2.5,1.4,3.5,2.6,1,1.1,1.8,2.4,2.2,3.9.2.6.3,1.3.5,2,.3,1.7.5,3.2.5,4.8s0,2.4-.2,3.6c0,1.6-.2,3.1-.5,4.6-.5,2-.9,4.2-1.8,6-1.3,2.4-3.7,3.8-6,4.4-.9.2-1.9.4-2.8.6-1.4.3-2.7.8-4.1,1.2-1.2.3-2.3.2-3.4,0-1,0-2-.3-3-.3-1.7-.2-3.5-.3-5-1.4-1.2-.9-2.1-2.2-2.8-3.6-.9-1.5-1.5-3.2-1.8-5-.3-1.3-.2-2.7-.2-4s.5-3.5.6-5.3c.4-2.1.5-4.3.9-6.4.5-2.1,1.4-4,2.5-5.6,1.3-1.6,3-3,4.8-3.6,1.2-.3,2.4-.5,3.6-.5h0v-.2s.1,0,.1,0Z" data-active="1" style="fill: #fff; stroke: #c8c8c8; stroke-miterlimit: 10;" />
      <g id="fissure1" data-active="1">
        <path d="M21.7,37.3c.3.7-1-2.1-1.5-3.1s-1.5-1.9-2-3c-.6-1.6-1.6-3-1.6-4.8,0-2.7-2.4-4.7-3.8-6.8-.9-1.3-2.1-7.1-1.7-6" data-active="1" style="fill: none; stroke: #9f9f9f; stroke-miterlimit: 10;" />
        <path d="M25.4,18.7c.4-.1,1.1,1,1.4,1.3.9,1.1,3.5,3.6,4,5.1.5,1.3,4.5,4.3,4.2,4.1" data-active="1" style="fill: none; stroke: #9f9f9f; stroke-miterlimit: 10;" />
        <path d="M15.4,23.6c.9-1.2,1.6-1.3,2.7-2.4,1-.9,2-1.6,3-2.5.5-.6,1.1-1.5,1.3-2.4s-.6-1-.5-2.2c0-.5,0-2.1.2-2.5.7-1.7,0-1.5.2-2.2,0-.3-.4-5.7-.4-5.2" data-active="1" style="fill: none; stroke: #9f9f9f; stroke-miterlimit: 10;" />
        <path d="M36.1,21.2c1.1.3-3.4-.9-4.8-1.1-.5,0-1.9-.1-2.3-.4-.4-.2-1.5-.2-1.8-.5s-1.5-.6-1.9-.5" data-active="1" style="fill: none; stroke: #9f9f9f; stroke-miterlimit: 10;" />
        <path d="M34.8,12c.9-1-2.4,2.2-5,4.3-.6.6-3.1,1.5-3.8,2s-.5.4-1,.4-.8,0-1.2-.2c-.7-.2-1.4-.6-1.8-1.3" data-active="1" style="fill: none; stroke: #9f9f9f; stroke-miterlimit: 10;" />
        </g>
      </g>
    </g>
  <g id="surfaces" data-active="1">
    <g id="subcaries" data-active="1">
      <path id="subcaries-lingual" d="M19.9,38c.9.5,2.4.7,3.6.7,2,0,3.6-.5,4.5-1.4s.6-.6.6-1c-.7-1.9-9.5-1.3-10.7-.6-.6.6,1.1,1.7,1.9,2.2h0Z" data-active="1" style="stroke: #000; stroke-miterlimit: 10; stroke-width: 2px;" />
      <path id="subcaries-buccal" d="M20.5,5.8c.9.5,2.4.7,3.6.7,2,0,3.6-.5,4.5-1.5s.6-.6.6-1c-.8-1.9-9.5-1.2-10.7-.5-.6.6,1.1,1.7,1.9,2.2h0Z" data-active="1" style="stroke: #000; stroke-miterlimit: 10; stroke-width: 2px;" />
      <path id="subcaries-mesial" d="M36,28.6c2.7.2,2.7-14.6,1.6-16.2-.4-1.1-1.5-.3-2.2-.6-1.2-.5-1.5,3.4-2.2,5-.3,1.6-3.6,1.3-2.8,4.1s2.6,1,3,1.9.9,4.1,1.7,5.2l.9.7h0Z" data-active="1" style="stroke: #000; stroke-miterlimit: 10; stroke-width: 2px;" />
      <path id="subcaries-distal" d="M14.9,25.9c1.9-.3-.3-3.3,0-5.4.6-3.1,2.1-7.5-.6-7.2-.6.1-1.8-.3-2.2.5-1.8,3-2.4,10.6-.2,12.1,2.2,1.5.5.6.6,1h0c0,.6.5,1,.9.8s.5-.2.6-.4l.9-1.4h0Z" data-active="1" style="stroke: #000; stroke-miterlimit: 10; stroke-width: 2px;" />
      <path id="subcaries-occlusal" d="M23.6,25.6c3.1-1,8.9-8.9,5.1-11.9s-6.7-.2-10,3c-3.3,3.2,3.6,9.2,4.9,8.9Z" data-active="1" style="stroke: #000; stroke-miterlimit: 10; stroke-width: 2px;" />
      </g>
    <g id="caries" data-active="1">
      <path id="caries-lingual" d="M19.9,38c.9.5,2.4.7,3.6.7,2,0,3.6-.5,4.5-1.4s.6-.6.6-1c-.7-1.9-9.5-1.3-10.7-.6-.6.6,1.1,1.7,1.9,2.2h0Z" data-active="1" style="display: none; fill: #0a1018; stroke: #000; stroke-miterlimit: 10;" />
      <path id="caries-buccal" d="M20.5,5.8c.9.5,2.4.7,3.6.7,2,0,3.6-.5,4.5-1.5s.6-.6.6-1c-.8-1.9-9.5-1.2-10.7-.5-.6.6,1.1,1.7,1.9,2.2h0Z" data-active="1" style="display: none; fill: #0a1018; stroke: #000; stroke-miterlimit: 10;" />
      <g id="caries-mesial" data-active="1" style="display: none;">
        <path id="mesial-shape" d="M36,28.6c2.7.2,2.7-14.6,1.6-16.2-.4-1.1-1.5-.3-2.2-.6-1.2-.5-1.5,3.4-2.2,5-.3,1.6-3.6,1.3-2.8,4.1s2.6,1,3,1.9.9,4.1,1.7,5.2l.9.7h0Z" data-active="1" style="fill: #0a1018; stroke: #000; stroke-miterlimit: 10;" />
        <path id="mesial-patch2" d="M35.4,21.5c-3.2,0,.9,4.3,1.7,1.6.3-.9-.8-1.7-1.5-1.6h-.3,0Z" data-active="1" style="fill: #fff;" />
        <path id="mesial-patch1" d="M37.1,14.6c-1.3-1.3-4.5.7-2.1,1.6,1.6.5,2.4-.6,2.1-1.5h0Z" data-active="1" style="fill: #fff;" />
        </g>
      <g id="caries-distal" data-active="1" style="display: none;">
        <path id="distal-shape" d="M14.9,25.9c1.9-.3-.3-3.3,0-5.4.6-3.1,2.1-7.5-.6-7.2-.6.1-1.8-.3-2.2.5-1.8,3-2.4,10.6-.2,12.1,2.2,1.5.5.6.6,1h0c0,.6.5,1,.9.8s.5-.2.6-.4l.9-1.4h0Z" data-active="1" style="fill: #0a1018; stroke: #000; stroke-miterlimit: 10;" />
        <path id="distal-patch2" d="M14.3,18.3c.9-.7.6-3.2-.6-3.1s-.9,3.6.2,3.1h.4Z" data-active="1" style="fill: #fff;" />
        <path id="distal-patch1" d="M12.6,24.8c0,.3.5.5.8.6.2,0,.6.2.6,0-.2-.5-.8-1.5-1.1-1.8-.6-.3-.4.9-.3,1.2h0Z" data-active="1" style="fill: #fff;" />
        </g>
      <g id="caries-occlusal" data-active="1" style="display: none;">
        <path id="occlusal-shape" d="M19.1,26.7c.8-1.2,2.2-1.3,2.7-1.4,1.3-.4,1.2-3.5,2.7-3.1,2.4.6,1.1,2.4,4.5,2.6,2,.1,1.1-2.5,1.1-5.8s1-5.3.9-5.9c-.7-2-5,5.5-6.6,4.3s-3.3-7.8-4.7-7.8,2.4,6.4,1,7.7-.9,2-1.8,3.2-.2,6.8.2,6.2Z" data-active="1" style="fill: #0a1018; stroke: #000; stroke-miterlimit: 10;" />
        <path id="occlusal-patch2" d="M25.8,19c-.7,3,3.2,1.5,3.6,0,.5-.8.2-2-.5-2.3-1.2-.5-2.4,1-3.2,2.1h0v.2s.1,0,.1,0Z" data-active="1" style="fill: #fff; stroke: #000; stroke-miterlimit: 10; stroke-width: .2px;" />
        <path id="occlusal-patch1" d="M19.9,20.9c0,1.5.9,2.6,1.6,1.2.4-.9.4-3.1-.4-3.1s-1.1.7-1.1,1.8v.2h-.1Z" data-active="1" style="fill: #fff; stroke: #000; stroke-miterlimit: 10; stroke-width: .2px;" />
        </g>
      </g>
    <g id="fillings" data-active="1">
      <g id="amalgam" data-active="1">
        <path id="filling-amalgam-occlusal" d="M23.6,25.6c3.1-1,8.9-8.9,5.1-11.9s-6.7-.2-10,3c-3.3,3.2,3.6,9.2,4.9,8.9Z" data-active="1" style="display: none; fill: #a0a0a0; stroke: #c8c8c8; stroke-miterlimit: 10;" />
        <path id="filling-amalgam-lingual" d="M19.9,38c.9.5,2.4.7,3.6.7,2,0,3.6-.5,4.5-1.4s.6-.6.6-1c-.7-1.9-9.5-1.3-10.7-.6-.6.6,1.1,1.7,1.9,2.2h0Z" data-active="1" style="display: none; fill: #a0a0a0; stroke: #c8c8c8; stroke-miterlimit: 10;" />
        <path id="filling-amalgam-buccal" d="M20.5,5.8c.9.5,2.4.7,3.6.7,2,0,3.6-.5,4.5-1.5s.6-.6.6-1c-.8-1.9-9.5-1.2-10.7-.5-.6.6,1.1,1.7,1.9,2.2h0Z" data-active="1" style="display: none; fill: #a0a0a0; stroke: #c8c8c8; stroke-miterlimit: 10;" />
        <path id="filling-amalgam-mesial" d="M36,28.6c2.7.2,2.7-14.6,1.6-16.2-.4-1.1-1.5-.3-2.2-.6-1.2-.5-1.5,3.4-2.2,5-.3,1.6-3.6,1.3-2.8,4.1s2.6,1,3,1.9.9,4.1,1.7,5.2l.9.7h0Z" data-active="1" style="display: none; fill: #a0a0a0; stroke: #c8c8c8; stroke-miterlimit: 10;" />
        <path id="filling-amalgam-distal" d="M14.9,25.9c1.9-.3-.3-3.3,0-5.4.6-3.1,2.1-7.5-.6-7.2-.6.1-1.8-.3-2.2.5-1.8,3-2.4,10.6-.2,12.1,2.2,1.5.5.6.6,1h0c0,.6.5,1,.9.8s.5-.2.6-.4l.9-1.4h0Z" data-active="1" style="display: none; fill: #a0a0a0; stroke: #c8c8c8; stroke-miterlimit: 10;" />
        </g>
      <g id="composite" data-active="1">
        <path id="filling-composite-occlusal" d="M23.6,25.6c3.1-1,8.9-8.9,5.1-11.9s-6.7-.2-10,3c-3.3,3.2,3.6,9.2,4.9,8.9Z" data-active="1" style="display: none; fill: #feffbf; stroke: #feffd5; stroke-miterlimit: 10;" />
        <path id="filling-composite-lingual" d="M19.9,38c.9.5,2.4.7,3.6.7,2,0,3.6-.5,4.5-1.4s.6-.6.6-1c-.7-1.9-9.5-1.3-10.7-.6-.6.6,1.1,1.7,1.9,2.2h0Z" data-active="1" style="display: none; fill: #feffbf; stroke: #feffd5; stroke-miterlimit: 10;" />
        <path id="filling-composite-buccal" d="M20.5,5.8c.9.5,2.4.7,3.6.7,2,0,3.6-.5,4.5-1.5s.6-.6.6-1c-.8-1.9-9.5-1.2-10.7-.5-.6.6,1.1,1.7,1.9,2.2h0Z" data-active="1" style="display: none; fill: #feffbf; stroke: #feffd5; stroke-miterlimit: 10;" />
        <path id="filling-composite-mesial" d="M36,28.6c2.7.2,2.7-14.6,1.6-16.2-.4-1.1-1.5-.3-2.2-.6-1.2-.5-1.5,3.4-2.2,5-.3,1.6-3.6,1.3-2.8,4.1s2.6,1,3,1.9.9,4.1,1.7,5.2l.9.7h0Z" data-active="1" style="display: none; fill: #feffbf; stroke: #feffd5; stroke-miterlimit: 10;" />
        <path id="filling-composite-distal" d="M14.9,25.9c1.9-.3-.3-3.3,0-5.4.6-3.1,2.1-7.5-.6-7.2-.6.1-1.8-.3-2.2.5-1.8,3-2.4,10.6-.2,12.1,2.2,1.5.5.6.6,1h0c0,.6.5,1,.9.8s.5-.2.6-.4l.9-1.4h0Z" data-active="1" style="display: none; fill: #feffbf; stroke: #feffd5; stroke-miterlimit: 10;" />
        </g>
      <g id="gic" data-active="1">
        <path id="filling-gic-occlusal" d="M23.6,25.6c3.1-1,8.9-8.9,5.1-11.9s-6.7-.2-10,3c-3.3,3.2,3.6,9.2,4.9,8.9Z" data-active="1" style="display: none; fill: #f9ae94; stroke: #f99; stroke-miterlimit: 10;" />
        <path id="filling-gic-lingual" d="M19.9,38c.9.5,2.4.7,3.6.7,2,0,3.6-.5,4.5-1.4s.6-.6.6-1c-.7-1.9-9.5-1.3-10.7-.6-.6.6,1.1,1.7,1.9,2.2h0Z" data-active="1" style="display: none; fill: #f9ae94; stroke: #f99; stroke-miterlimit: 10;" />
        <path id="filling-gic-buccal" d="M20.5,5.8c.9.5,2.4.7,3.6.7,2,0,3.6-.5,4.5-1.5s.6-.6.6-1c-.8-1.9-9.5-1.2-10.7-.5-.6.6,1.1,1.7,1.9,2.2h0Z" data-active="1" style="display: none; fill: #f9ae94; stroke: #f99; stroke-miterlimit: 10;" />
        <path id="filling-gic-mesial" d="M36,28.6c2.7.2,2.7-14.6,1.6-16.2-.4-1.1-1.5-.3-2.2-.6-1.2-.5-1.5,3.4-2.2,5-.3,1.6-3.6,1.3-2.8,4.1s2.6,1,3,1.9.9,4.1,1.7,5.2l.9.7h0Z" data-active="1" style="display: none; fill: #f9ae94; stroke: #f99; stroke-miterlimit: 10;" />
        <path id="filling-gic-distal" d="M14.9,25.9c1.9-.3-.3-3.3,0-5.4.6-3.1,2.1-7.5-.6-7.2-.6.1-1.8-.3-2.2.5-1.8,3-2.4,10.6-.2,12.1,2.2,1.5.5.6.6,1h0c0,.6.5,1,.9.8s.5-.2.6-.4l.9-1.4h0Z" data-active="1" style="display: none; fill: #f9ae94; stroke: #f99; stroke-miterlimit: 10;" />
        </g>
      <g id="temporary" data-active="1">
        <path id="filling-temporary-occlusal" d="M23.6,25.6c3.1-1,8.9-8.9,5.1-11.9s-6.7-.2-10,3c-3.3,3.2,3.6,9.2,4.9,8.9Z" data-active="1" style="display: none; fill: #fff; stroke: #eee; stroke-miterlimit: 10;" />
        <path id="filling-temporary-lingual" d="M19.9,38c.9.5,2.4.7,3.6.7,2,0,3.6-.5,4.5-1.4s.6-.6.6-1c-.7-1.9-9.5-1.3-10.7-.6-.6.6,1.1,1.7,1.9,2.2h0Z" data-active="1" style="display: none; fill: #fff; stroke: #eee; stroke-miterlimit: 10;" />
        <path id="filling-temporary-buccal" d="M20.5,5.8c.9.5,2.4.7,3.6.7,2,0,3.6-.5,4.5-1.5s.6-.6.6-1c-.8-1.9-9.5-1.2-10.7-.5-.6.6,1.1,1.7,1.9,2.2h0Z" data-active="1" style="display: none; fill: #fff; stroke: #eee; stroke-miterlimit: 10;" />
        <path id="filling-temporary-mesial" d="M36,28.6c2.7.2,2.7-14.6,1.6-16.2-.4-1.1-1.5-.3-2.2-.6-1.2-.5-1.5,3.4-2.2,5-.3,1.6-3.6,1.3-2.8,4.1s2.6,1,3,1.9.9,4.1,1.7,5.2l.9.7h0Z" data-active="1" style="display: none; fill: #fff; stroke: #eee; stroke-miterlimit: 10;" />
        <path id="filling-temporary-distal" d="M14.9,25.9c1.9-.3-.3-3.3,0-5.4.6-3.1,2.1-7.5-.6-7.2-.6.1-1.8-.3-2.2.5-1.8,3-2.4,10.6-.2,12.1,2.2,1.5.5.6.6,1h0c0,.6.5,1,.9.8s.5-.2.6-.4l.9-1.4h0Z" data-active="1" style="display: none; fill: #fff; stroke: #eee; stroke-miterlimit: 10;" />
        </g>
      </g>
    <g id="contact-point" data-active="1">
      <g id="mesial-no-contact-point" data-active="1" style="display: none;">
        <path d="M36.9,15.5c.7,3,1.7,6.3,2.7,9.4" data-active="1" style="fill: none; stroke: #aaa; stroke-miterlimit: 10; stroke-width: .5px;" />
        <path d="M36.7,25.4c.6-1.8.8-3,1.3-4.5.6-1.7,1-3.4,1.5-5.3" data-active="1" style="fill: none; stroke: #aaa; stroke-miterlimit: 10; stroke-width: .5px;" />
        </g>
      <g id="distal-no-contact-point" data-active="1" style="display: none;">
        <path d="M9.2,16.4c.7,3.1,1.7,6.4,2.7,9.7" data-active="1" style="fill: none; stroke: #aaa; stroke-miterlimit: 10; stroke-width: .5px;" />
        <path d="M9,26.2c.7-1.8.8-2.9,1.3-4.3.6-1.6,1.1-3.3,1.5-5.1" data-active="1" style="fill: none; stroke: #aaa; stroke-miterlimit: 10; stroke-width: .5px;" />
        </g>
      </g>
    <g id="fissure-sealing" data-active="1" style="display: none;">
      <g id="fissure-sealing-occlusal" data-active="1">
        <path d="M25,20.6c.3-.2,1.9-.4,2.2-.1,1.1.9,2.5,2.9,3.3,4.4.7,1.2,3.9,5.2,3.6,4.9" data-active="1" style="fill: none; stroke: #3fb6ff; stroke-miterlimit: 10; stroke-width: 2px;" />
        <path d="M16.2,31.7c-1.2,2,2.8-5.5,3.4-6.9.6-1.2,1.2-2.1,1.8-3.3.3-.7.5-1.8.4-2.8s-.8-.9-1-2.2c-.1-.5-.6-2.2-.5-2.6.1-1.9-.4-1.5-.5-2.3,0-.3-1.9-5.8-1.8-5.3" data-active="1" style="fill: none; stroke: #3fb6ff; stroke-miterlimit: 10; stroke-width: 2px;" />
        <path d="M33.5,8.6c.9-1.2-3.9,5.8-5.4,8.5-.4.8-2.2,2.2-2.6,2.9s-.3.5-.7.6-.7.2-1,0c-.7,0-2.3-3.5-2.9-4.1" data-active="1" style="fill: none; stroke: #3fb6ff; stroke-miterlimit: 10; stroke-width: 2px;" />
        </g>
      </g>
    </g>
  <g id="restorations" data-active="1">
    <g id="implant" data-active="1" style="display: none;">
      <g id="implant-base" data-active="1">
        <path d="M25.6,34.9h-2.8l-.7-2.2c-.8-.2-1.5-.3-2.3-.7l-1.8,1.6-2.4-1.4.6-2.3c-.6-.5-1.2-1.1-1.7-1.7l-2.3.6-1.4-2.4,1.6-1.8c-.3-.8-.5-1.5-.7-2.3l-2.2-.7v-2.8l2.2-.7c.2-.8.4-1.5.7-2.3l-1.6-1.8,1.4-2.4,2.3.6c.5-.6,1-1.1,1.7-1.7l-.6-2.4,2.4-1.4,1.7,1.6c.8-.3,1.5-.5,2.3-.6l.7-2.2h2.8l.6,2.2c.8.2,1.5.3,2.3.6l1.8-1.6,2.4,1.4-.6,2.3c.6.5,1.1,1,1.7,1.7l2.3-.6,1.4,2.4-1.6,1.7c.3.8.5,1.5.7,2.3l2.2.7v2.8l-2.2.7c-.2.8-.4,1.6-.7,2.3l1.6,1.8-1.4,2.4-2.3-.6c-.5.6-1,1.1-1.7,1.6l.6,2.4-2.4,1.4-1.8-1.6c-.8.3-1.5.5-2.3.6l-.6,2.2v.3s.1,0,.1,0Z" data-active="1" style="fill: #145d2a;" />
        <path d="M26.1,32.2h-.2l-.6,2.1h-2.1l-.6-2s0-.2-.2-.2c-.9,0-1.8-.4-2.6-.7l-1.7,1.6-1.8-1,.5-2.3c-.8-.6-1.4-1.3-2-2l-2.3.6-1-1.8,1.6-1.7c-.4-.9-.6-1.8-.8-2.8l-2.1-.7v-2.1l2-.6c.2,0,.2-.1.2-.3.1-.9.4-1.7.7-2.6l-1.6-1.7,1-1.8,2.3.6c.6-.7,1.3-1.4,2-2l-.6-2.3,1.8-1,1.6,1.5s.2.1.3,0c.9-.3,1.7-.5,2.7-.7l.7-2.2h2.1l.6,2c0,.1,0,.2.2.2.9.1,1.8.4,2.6.7l1.7-1.6,1.8,1.1-.6,2.3c.8.6,1.4,1.3,2,2l2.3-.6,1,1.8-1.6,1.7c.4.9.6,1.8.8,2.8l2.1.7v2.1l-2,.6s0,.1-.2.2c0,.9-.4,1.7-.7,2.5s0,.2,0,.2l1.5,1.6-1,1.8-2.3-.6c-.6.7-1.3,1.4-2,2l.6,2.3-1.8,1-1.7-1.6c-.9.3-1.7.6-2.6.7h0s0,.2,0,.2Z" data-active="1" style="fill: #c8c8c8;" />
        <circle cx="24.3" cy="20.2" r="9.4" data-active="1" style="fill: #eaeaea; stroke: #1b3f1c; stroke-miterlimit: 10; stroke-width: .5px;" />
        <circle cx="24.3" cy="20.2" r="5.8" data-active="1" style="fill: #fff; stroke: #1b3f1c; stroke-miterlimit: 10; stroke-width: .5px;" />
        </g>
      <path id="implant-bar" d="M1.6,15.5c-3.4,7.4-1,15.6,2.9,15.1,8.2.8,27.3,0,36.3,0s6.5-2.3,7.5-8.5c.6-3.7,0-7.1-1.4-9.3-2.6-3.4-6.5-2.8-9.6-3.1-5.2,0-9.5,0-14.3.6-5.3.6-10.4,0-15.5.8-2.1,0-4.5,1.1-6,4h0v.6-.2h0Z" data-active="1" style="fill: url(#linear-gradient-14-occl-9);" />
      <circle id="implant-healing-abutment" cx="24.2" cy="20.3" r="11.4" data-active="1" style="fill: #475563; stroke: #1b3f1c; stroke-miterlimit: 10; stroke-width: .5px;" />
      <circle id="implant-locator-screw" cx="24.3" cy="20.2" r="8.2" data-active="1" style="fill: url(#linear-gradient-14-occl-10); isolation: isolate; opacity: .8; stroke: #1b3f1c; stroke-miterlimit: 10; stroke-width: .5px;" />
      </g>
    <g id="prosthesis-implant" data-active="1">
      <path id="prosthesis-implant-gum" d="M48.4,23.2c-2.6,8.1-13,3.2-19,3.7-7.9-.9-20.9,4.1-26.5-2.6-1.9-2.8-3.2-7.5-.7-10.3,4.9-4.3,18.5-3.9,25.7-3.7,8.2.6,23.5-.7,20.5,12.7v.4h0s0-.2,0-.2Z" data-active="1" style="display: none; fill: #f9ae94; stroke: #1b3f1c; stroke-miterlimit: 10; stroke-width: .5px;" />
      <path id="prosthesis-implant-crown" d="M22.2,4.6c1.4,0,2.9.3,4.3.4.9,0,2,.2,2.9.6.6.3,1.1.5,1.6.9.9.5,1.8,1.2,2.5,2.2.7.9,1.3,2.1,1.5,3.3,0,.5.2,1.1.3,1.7.2,1.5.3,2.7.3,4.1v3.1c0,1.4,0,2.7-.3,3.9-.3,1.7-.6,3.6-1.3,5.1-.9,2.1-2.7,3.3-4.3,3.8-.6.2-1.4.3-2,.5-.9.3-1.9.7-2.9,1-.9.3-1.6.2-2.4,0-.7,0-1.4-.3-2.1-.3-1.2-.2-2.5-.3-3.5-1.2-.9-.8-1.5-1.9-2-3.1-.6-1.3-1.1-2.7-1.3-4.3-.2-1.1,0-2.3,0-3.4s.3-3,.4-4.5c.3-1.8.3-3.7.6-5.5s.9-3.4,1.8-4.8,2.1-2.6,3.4-3.1c.9-.3,1.7-.4,2.6-.4h0v-.2h-.2v.2h0Z" data-active="1" style="display: none; fill: #f9ae94; stroke: #000; stroke-miterlimit: 10;" />
      </g>
    <g id="prosthesis" data-active="1">
      <path id="prosthesis-connector" d="M48.4,23.2c-2.6,8.1-13,3.2-19,3.7-7.9-.9-20.9,4.1-26.5-2.6-1.9-2.8-3.2-7.5-.7-10.3,4.9-4.3,18.5-3.9,25.7-3.7,8.2.6,23.5-.7,20.5,12.7v.4h0s0-.2,0-.2Z" data-active="1" style="display: none; fill: #f9ae94; stroke: #1b3f1c; stroke-miterlimit: 10; stroke-width: .5px;" />
      <path id="prosthesis-crown" d="M21.8,2.9c1.6,0,3.4.3,5,.5,1.1,0,2.3.2,3.4.7.7.3,1.3.6,1.9,1,1,.6,2.1,1.4,2.9,2.6.8,1.1,1.5,2.4,1.8,3.9,0,.6.2,1.3.4,2,.2,1.7.4,3.2.4,4.8v3.6c0,1.6,0,3.1-.4,4.6-.4,2-.7,4.2-1.5,6-1,2.4-3.1,3.8-5,4.4-.7.2-1.6.4-2.3.6-1.1.3-2.2.8-3.4,1.2-1,.3-1.9.2-2.8,0-.8,0-1.6-.3-2.5-.3-1.4-.2-2.9-.3-4.1-1.4-1-.9-1.7-2.2-2.3-3.6-.7-1.5-1.3-3.2-1.5-5-.2-1.3-.1-2.7-.1-4s.4-3.5.5-5.3c.3-2.1.4-4.3.7-6.4.4-2.1,1.1-4,2.1-5.6s2.5-3,4-3.6c1-.3,2-.5,3-.5h0v-.2s-.2,0-.2,0Z" data-active="1" style="display: none; fill: #f9ae94; stroke: #000; stroke-miterlimit: 10;" />
      </g>
    <g id="telescope" data-active="1">
      <path id="telescope-bridge-connector" d="M48.4,23.2c-2.7,8.1-13.2,3.2-19.3,3.7-8.1-.9-21.3,4.1-27-2.6-2-2.8-3.3-7.5-.7-10.3,5-4.3,18.8-3.9,26.1-3.7,8.4.6,24-.7,20.9,12.7v.4h0s0-.2,0-.2Z" data-active="1" style="display: none; fill: #0051bf; stroke: #1b3f1c; stroke-miterlimit: 10; stroke-width: .5px;" />
      <g id="telescope-crown" data-active="1" style="display: none;">
        <path id="telescope-crown-outside" d="M21.5,2.9c1.6,0,3.4.3,5.1.5,1.1,0,2.4.2,3.4.7.7.3,1.3.6,2,1,1.1.6,2.1,1.4,3,2.6.8,1.1,1.5,2.4,1.8,3.9.2.6.2,1.3.4,2,.2,1.7.4,3.2.4,4.8s0,2.4-.2,3.6c0,1.6-.2,3.1-.4,4.6-.4,2-.8,4.2-1.5,6-1.1,2.4-3.1,3.8-5.1,4.4-.8.2-1.6.4-2.4.6-1.1.3-2.3.8-3.4,1.2-1,.3-2,.2-2.9,0-.8,0-1.7-.3-2.5-.3-1.4-.2-3-.3-4.2-1.4-1-.9-1.7-2.2-2.4-3.6-.8-1.5-1.3-3.2-1.5-5-.2-1.3-.2-2.7-.2-4s.4-3.5.5-5.3c.3-2.1.4-4.3.8-6.4.4-2.1,1.1-4,2.1-5.6,1.1-1.6,2.5-3,4-3.6,1-.3,2.1-.5,3-.5h0v-.2s.2,0,.2,0Z" data-active="1" style="fill: #0051bf; stroke: #000; stroke-miterlimit: 10;" />
        <path id="telescope-crown-inside" d="M22.4,7.3c1.2,0,2.6.3,3.8.4.9.1,1.8.2,2.6.5.5.2,1,.5,1.4.7.8.4,1.6,1.1,2.3,1.9.6.8,1.1,1.8,1.4,2.9.2.5.2,1,.3,1.5.2,1.3.3,2.4.3,3.7v2.7c0,1.2,0,2.4-.3,3.5-.3,1.5-.6,3.2-1.1,4.5-.8,1.8-2.3,2.9-3.8,3.4-.6.2-1.2.3-1.7.4-.9.2-1.7.6-2.6.9-.8.2-1.4,0-2.2,0s-1.3-.2-1.9-.3c-1.1,0-2.2-.2-3.1-1.1-.8-.7-1.3-1.7-1.8-2.7-.5-1.1-1-2.4-1.1-3.8-.2-1-.2-2,0-3.1,0-1.4.2-2.7.5-4,.2-1.6.3-3.3.6-4.8.3-1.6.8-3.1,1.7-4.3.8-1.2,1.9-2.3,3-2.7.8-.3,1.5-.4,2.3-.4h0l-.2.2s-.4,0-.4,0Z" data-active="1" style="fill: #a0a0a0; stroke: #000; stroke-miterlimit: 10;" />
        </g>
      </g>
    <g id="zircon" data-active="1">
      <path id="zircon-bridge-connector" d="M48.4,23.2c-2.7,8.1-13.3,3.2-19.4,3.7-8.1-.9-21.4,4.1-27.1-2.6-2-2.8-3.3-7.5-.7-10.3,5-4.3,18.9-3.9,26.2-3.7,8.4.6,24.1-.7,21,12.7v.4h0s0-.2,0-.2Z" data-active="1" style="display: none; fill: #feffbf; stroke: #1b3f1c; stroke-miterlimit: 10; stroke-width: .5px;" />
      <path id="zircon-crown" d="M21.7,2.9c1.6,0,3.5.3,5.2.5,1.2,0,2.4.2,3.5.7.7.3,1.3.6,2,1,1.1.6,2.2,1.4,3,2.6.8,1.1,1.5,2.4,1.9,3.9.2.6.2,1.3.4,2,.2,1.7.4,3.2.4,4.8s0,2.4-.2,3.6c0,1.6-.2,3.1-.4,4.6-.4,2-.8,4.2-1.5,6-1.1,2.4-3.2,3.8-5.2,4.4-.8.2-1.6.4-2.4.6-1.2.3-2.3.8-3.5,1.2-1,.3-2,.2-2.9,0-.8,0-1.7-.3-2.5-.3-1.5-.2-3-.3-4.2-1.4-1-.9-1.8-2.2-2.4-3.6-.8-1.5-1.3-3.2-1.5-5-.2-1.3-.2-2.7-.2-4s.4-3.5.5-5.3c.3-2.1.4-4.3.8-6.4.4-2.1,1.2-4,2.2-5.6,1.1-1.6,2.5-3,4.1-3.6,1-.3,2.1-.5,3.1-.5h0v-.2s-.2,0-.2,0Z" data-active="1" style="display: none; fill: #feffbf; stroke: #000; stroke-miterlimit: 10;" />
      </g>
    <g id="metal" data-active="1">
      <path id="metal-bridge-connector" d="M46.7,23.2c-2.5,8.1-12.4,3.2-18.1,3.7-7.6-.9-20,4.1-25.3-2.6-1.8-2.8-3.1-7.5-.7-10.3,4.7-4.3,17.6-3.9,24.5-3.7,7.9.6,22.5-.7,19.6,12.7v.4h0s0-.2,0-.2Z" data-active="1" style="display: none; fill: #0051bf; stroke: #1b3f1c; stroke-miterlimit: 10; stroke-width: .5px;" />
      <path id="metal-crown" d="M21.4,2.9c1.6,0,3.5.3,5.3.5,1.2,0,2.4.2,3.5.7.7.3,1.3.6,2,1,1.1.6,2.2,1.4,3.1,2.6.9,1.1,1.6,2.4,1.9,3.9.2.6.2,1.3.4,2,.2,1.7.4,3.2.4,4.8s0,2.4-.2,3.6c0,1.6-.2,3.1-.4,4.6-.4,2-.8,4.2-1.6,6-1.1,2.4-3.2,3.8-5.3,4.4-.8.2-1.6.4-2.4.6-1.2.3-2.4.8-3.5,1.2-1,.3-2,.2-3,0-.9,0-1.7-.3-2.6-.3-1.5-.2-3.1-.3-4.3-1.4-1-.9-1.8-2.2-2.4-3.6-.8-1.5-1.3-3.2-1.6-5-.2-1.3-.2-2.7-.2-4s.4-3.5.5-5.3c.3-2.1.4-4.3.8-6.4.4-2.1,1.2-4,2.2-5.6,1.1-1.6,2.6-3,4.2-3.6,1-.3,2.1-.5,3.1-.5h0v-.2h0Z" data-active="1" style="display: none; fill: #0051bf; stroke: #000; stroke-miterlimit: 10;" />
      </g>
    <g id="emax" data-active="1">
      <path id="emax-crown" d="M21.7,2.9c1.6,0,3.5.3,5.2.5,1.2,0,2.4.2,3.5.7.7.3,1.3.6,2,1,1.1.6,2.2,1.4,3,2.6.8,1.1,1.5,2.4,1.9,3.9.2.6.2,1.3.4,2,.2,1.7.4,3.2.4,4.8s0,2.4-.2,3.6c0,1.6-.2,3.1-.4,4.6-.4,2-.8,4.2-1.5,6-1.1,2.4-3.2,3.8-5.2,4.4-.8.2-1.6.4-2.4.6-1.2.3-2.3.8-3.5,1.2-1,.3-2,.2-2.9,0-.8,0-1.7-.3-2.5-.3-1.5-.2-3-.3-4.2-1.4-1-.9-1.8-2.2-2.4-3.6-.8-1.5-1.3-3.2-1.5-5-.2-1.3-.2-2.7-.2-4s.4-3.5.5-5.3c.3-2.1.4-4.3.8-6.4.4-2.1,1.2-4,2.2-5.6,1.1-1.6,2.5-3,4.1-3.6,1-.3,2.1-.5,3.1-.5h0v-.2s-.2,0-.2,0Z" data-active="1" style="display: none; fill: url(#radial-gradient-14-occl-0); stroke: #000; stroke-miterlimit: 10;" />
      </g>
    <g id="temporary-restorations" data-active="1">
      <path id="temporary-bridge-connector" d="M47.3,23.1c-2.6,8.1-12.7,3.2-18.5,3.7-7.7-.9-20.4,4.1-25.9-2.6-1.9-2.8-3.2-7.5-.7-10.2,4.8-4.3,18-3.9,25.1-3.7,8,.6,23-.7,20,12.6v.4h0v-.2Z" data-active="1" style="display: none; fill: #fffffb; stroke: #1b3f1c; stroke-miterlimit: 10; stroke-width: .5px;" />
      <path id="temporary-crown" d="M21.2,2.9c1.7,0,3.6.3,5.3.5,1.2,0,2.5.2,3.6.7.7.3,1.4.6,2.1,1,1.1.6,2.2,1.4,3.1,2.6.9,1.1,1.6,2.4,1.9,3.9.2.6.2,1.3.4,2,.2,1.7.4,3.2.4,4.8s0,2.4-.2,3.6c0,1.6-.2,3.1-.4,4.6-.4,2-.8,4.2-1.6,6-1.1,2.4-3.3,3.8-5.3,4.4-.8.2-1.7.4-2.5.6-1.2.3-2.4.8-3.6,1.2-1,.3-2.1.2-3,0-.9,0-1.7-.3-2.6-.3-1.5-.2-3.1-.3-4.4-1.4-1-.9-1.8-2.2-2.5-3.6-.8-1.5-1.4-3.2-1.6-5-.2-1.3-.2-2.7-.2-4s.4-3.5.6-5.3c.3-2.1.4-4.3.8-6.4.4-2.1,1.2-4,2.2-5.6,1.1-1.6,2.6-3,4.2-3.6,1-.3,2.1-.5,3.2-.5h0v-.2h0Z" data-active="1" style="display: none; fill: #fff; stroke: #000; stroke-miterlimit: 10;" />
      </g>
    </g>
  <g id="specials" data-active="1">
    <g id="missing-closed" data-active="1" style="display: none;">
      <path d="M7.3,3.7c21.7,10.1,19.3,22.9,0,33.3" data-active="1" style="fill: none; stroke: #000; stroke-miterlimit: 10; stroke-width: 2px;" />
      <path d="M40.5,36.2c-21.8-9.9-19.7-22.8-.6-33.3" data-active="1" style="fill: none; stroke: #000; stroke-miterlimit: 10; stroke-width: 2px;" />
      </g>
    <g id="extraction-plan" data-active="1" style="display: none;">
      <path d="M8.6,37.6c1.6-2.5,33.3-32,34.3-33.3" data-active="1" style="fill: none; stroke: #b70000; stroke-miterlimit: 10; stroke-width: 3px;" />
      <path d="M9.1,4.6c3.2,2.2,23.4,24.4,27.6,29.8.7.9,1.4,1.9,2.4,2.7" data-active="1" style="fill: none; stroke: #b70000; stroke-miterlimit: 10; stroke-width: 3px;" />
      </g>
    <g id="crown-needed" data-active="1" style="display: none;">
      <path id="crown-needed-shape" d="M21.7,2.9c1.6,0,3.5.3,5.2.5,1.2,0,2.4.2,3.5.7.7.3,1.3.6,2,1,1.1.6,2.2,1.4,3,2.6.8,1.1,1.5,2.4,1.9,3.9.2.6.2,1.3.4,2,.2,1.7.4,3.2.4,4.8s0,2.4-.2,3.6c0,1.6-.2,3.1-.4,4.6-.4,2-.8,4.2-1.5,6-1.1,2.4-3.2,3.8-5.2,4.4-.8.2-1.6.4-2.4.6-1.2.3-2.3.8-3.5,1.2-1,.3-2,.2-2.9,0-.8,0-1.7-.3-2.5-.3-1.5-.2-3-.3-4.2-1.4-1-.9-1.8-2.2-2.4-3.6-.8-1.5-1.3-3.2-1.5-5-.2-1.3-.2-2.7-.2-4s.4-3.5.5-5.3c.3-2.1.4-4.3.8-6.4.4-2.1,1.2-4,2.2-5.6,1.1-1.6,2.5-3,4.1-3.6,1-.3,2.1-.5,3.1-.5h0v-.2s-.2,0-.2,0Z" data-active="1" style="fill: #c83014; stroke: #000; stroke-miterlimit: 10;" />
      <path id="crown-needed-path" d="M22.8,3.7c-2.3,3.7-4.7,7.4-7,11-.9,1.5-3.4,3.3-2.3,5.2,1.3,1.2,2.3-1.3,3-2.2,3.5-4.6,5.9-10.8,11.6-13.7.5-.2.8-.2,1,0s.1.7,0,1.2c-2.4,7.3-11.3,14.4-13.8,21.4-5.3,13.3,1.7,5.5,5.2-1.3,2.9-4.9,7.4-12.9,11.7-17,2.7-1.8,1.9,2.7,1.4,4.2-1.5,7-11.5,12.8-11.6,20.1,1.1,5.9,9.4-10.3,11.3-12.6.7-1,3-3.4,3-1.1,0,4-2.8,8.3-4.8,11.3-.6,1.1-1.4,2.2-1.5,3.5.8,2.6,6.4-4.8,7.3-5.8" data-active="1" style="fill: #feffbf; stroke: #1b3f1c; stroke-miterlimit: 10;" />
      </g>
    <g id="crown-replace" data-active="1" style="display: none;">
      <path id="crown-replace-shape" d="M21.7,2.9c1.6,0,3.5.3,5.2.5,1.2,0,2.4.2,3.5.7.7.3,1.3.6,2,1,1.1.6,2.2,1.4,3,2.6.8,1.1,1.5,2.4,1.9,3.9.2.6.2,1.3.4,2,.2,1.7.4,3.2.4,4.8s0,2.4-.2,3.6c0,1.6-.2,3.1-.4,4.6-.4,2-.8,4.2-1.5,6-1.1,2.4-3.2,3.8-5.2,4.4-.8.2-1.6.4-2.4.6-1.2.3-2.3.8-3.5,1.2-1,.3-2,.2-2.9,0-.8,0-1.7-.3-2.5-.3-1.5-.2-3-.3-4.2-1.4-1-.9-1.8-2.2-2.4-3.6-.8-1.5-1.3-3.2-1.5-5-.2-1.3-.2-2.7-.2-4s.4-3.5.5-5.3c.3-2.1.4-4.3.8-6.4.4-2.1,1.2-4,2.2-5.6,1.1-1.6,2.5-3,4.1-3.6,1-.3,2.1-.5,3.1-.5h0v-.2s-.2,0-.2,0Z" data-active="1" style="fill: none; stroke: #c83014; stroke-miterlimit: 10; stroke-width: 3px;" />
      </g>
    </g>
  </svg>
